<svg width="1829" height="908" xmlns="http://www.w3.org/2000/svg" xmlns:xlink="http://www.w3.org/1999/xlink" overflow="hidden"><defs><clipPath id="clip0"><rect x="1027" y="1129" width="1829" height="908"/></clipPath><clipPath id="clip1"><rect x="1027" y="1512" width="1829" height="526"/></clipPath><clipPath id="clip2"><rect x="1027" y="1512" width="1829" height="526"/></clipPath><clipPath id="clip3"><rect x="1027" y="1512" width="1829" height="526"/></clipPath></defs><g clip-path="url(#clip0)" transform="translate(-1027 -1129)"><g clip-path="url(#clip1)"><g clip-path="url(#clip2)"><g clip-path="url(#clip3)"><path d="M57.1831 191.89C57.1831 191.563 57.0197 191.4 56.8564 191.155 53.8338 188.132 48.3606 182.659 42.8873 173.837 29.7352 152.761 23.7718 126.211 23.7718 94.7606 23.7718 72.7859 26.7127 44.4394 40.1916 20.0958 46.6451 8.49578 53.3437 1.79718 56.938-1.79718 57.1831-2.04225 57.1831-2.20563 57.1831-2.4507 57.1831-3.26761 56.6113-3.26761 55.4676-3.26761 54.324-3.26761 54.1606-3.26761 52.9352-2.04225 25.569 22.8732 16.9916 60.2873 16.9916 94.6789 16.9916 126.783 24.3437 159.132 45.093 183.558 46.7268 185.437 49.831 188.786 53.1803 191.727 54.1606 192.707 54.324 192.707 55.4676 192.707 56.6113 192.707 57.1831 192.707 57.1831 191.89Z" fill="#FFFFFF" transform="matrix(1 0 0 1.00105 1120.52 1516.91)"/><path d="M15.6845-50.3211C15.6845-52.5268 13.8056-54.6507 11.3549-54.6507 8.57747-54.6507 6.94366-52.3634 6.94366-50.3211 6.94366-48.1155 8.82254-45.9916 11.2732-45.9916 14.0507-45.9916 15.6845-48.2789 15.6845-50.3211Z" fill="#FFFFFF" transform="matrix(1 0 0 1.00105 1196.66 1582.34)"/><path d="M36.9239-35.2085C36.9239-35.5352 36.6789-36.0254 36.1071-36.0254 35.2085-36.0254 31.9408-32.7578 30.5521-30.3887 28.7549-34.8 25.569-36.1071 22.9549-36.1071 13.3155-36.1071 3.26761-24.0169 3.26761-12.1718 3.26761-4.1662 8.08732 0.898591 14.0507 0.898591 17.5634 0.898591 20.7493-1.06197 23.6902-4.00281 22.9549-1.14366 20.2592 9.88451 20.0141 10.6197 19.3606 12.907 18.7071 13.2338 14.1324 13.3155 13.0704 13.3155 12.2535 13.3155 12.2535 14.9493 12.2535 15.031 12.2535 15.8479 13.3155 15.8479 15.9296 15.8479 18.7887 15.6028 21.4845 15.6028 24.262 15.6028 27.2028 15.8479 29.8986 15.8479 30.307 15.8479 31.369 15.8479 31.369 14.2141 31.369 13.3155 30.5521 13.3155 29.2451 13.3155 25.3239 13.3155 25.3239 12.7437 25.3239 12.0085 25.3239 11.4366 25.4873 10.9465 25.6507 10.2113L36.9239-35.2085ZM14.2958-0.898591C9.39437-0.898591 9.06761-7.18873 9.06761-8.57747 9.06761-12.4986 11.4366-21.4028 12.8254-24.8338 15.3577-30.8789 19.6056-34.3099 22.9549-34.3099 28.2648-34.3099 29.4085-27.693 29.4085-27.1211 29.4085-26.631 24.9155-8.74084 24.6704-8.41409 23.4451-6.12676 18.8704-0.898591 14.2958-0.898591Z" fill="#FFFFFF" transform="matrix(1 0 0 1.00105 1181.5 1582.34)"/><path d="M15.6845-50.3211C15.6845-52.5268 13.8056-54.6507 11.3549-54.6507 8.57747-54.6507 6.94366-52.3634 6.94366-50.3211 6.94366-48.1155 8.82254-45.9916 11.2732-45.9916 14.0507-45.9916 15.6845-48.2789 15.6845-50.3211Z" fill="#FFFFFF" transform="matrix(1 0 0 1.00105 1196.66 1680.47)"/><path d="M3.67606 9.9662C3.02254 12.7437 2.85915 13.3155-0.735213 13.3155-1.71549 13.3155-2.61408 13.3155-2.61408 14.8676-2.61408 15.5211-2.20563 15.8479-1.55211 15.8479 0.65352 15.8479 3.02254 15.6028 5.30986 15.6028 8.00564 15.6028 10.7831 15.8479 13.3972 15.8479 13.8056 15.8479 14.8676 15.8479 14.8676 14.2141 14.8676 13.3155 14.0507 13.3155 12.907 13.3155 8.82254 13.3155 8.82254 12.7437 8.82254 12.0085 8.82254 11.0282 12.2535-2.28733 12.8254-4.32958 13.8873-1.96056 16.1747 0.898591 20.3408 0.898591 29.8169 0.898591 40.0282-11.0282 40.0282-23.0366 40.0282-30.7155 35.3718-36.1071 29.1634-36.1071 25.0789-36.1071 21.1578-33.1662 18.462-29.9803 17.6451-34.3916 14.1324-36.1071 11.1099-36.1071 7.35212-36.1071 5.8-32.9211 5.06479-31.4507 3.59437-28.6732 2.5324-23.7718 2.5324-23.5268 2.5324-22.7099 3.34929-22.7099 3.51268-22.7099 4.32958-22.7099 4.41127-22.7916 4.90141-24.5887 6.29014-30.3887 7.92394-34.3099 10.8648-34.3099 12.2535-34.3099 13.3972-33.6563 13.3972-30.5521 13.3972-28.6732 13.1521-27.7747 12.8254-26.3859L3.67606 9.9662ZM18.0535-25.4873C18.6254-27.693 20.831-29.9803 22.3014-31.2056 25.1606-33.738 27.5296-34.3099 28.9183-34.3099 32.1859-34.3099 34.1465-31.4507 34.1465-26.631 34.1465-21.8113 31.4507-12.4169 29.9803-9.31268 27.2028-3.59437 23.2817-0.898591 20.2592-0.898591 14.8676-0.898591 13.8056-7.67887 13.8056-8.16902 13.8056-8.33239 13.8056-8.49578 14.0507-9.47606L18.0535-25.4873Z" fill="#FFFFFF" transform="matrix(1 0 0 1.00105 1180.65 1680.47)"/><path d="M43.0507 94.7606C43.0507 62.6564 35.6986 30.307 14.9493 5.88169 13.3155 4.00281 10.2113 0.65352 6.86198-2.28733 5.88169-3.26761 5.71831-3.26761 4.57465-3.26761 3.59437-3.26761 2.85915-3.26761 2.85915-2.4507 2.85915-2.12395 3.18592-1.79718 3.34929-1.6338 6.20846 1.30704 11.6817 6.78028 17.1549 15.6028 30.307 36.6789 36.2704 63.2282 36.2704 94.6789 36.2704 116.654 33.3296 145 19.8507 169.344 13.3972 180.944 6.6169 187.724 3.18592 191.155 3.02254 191.4 2.85915 191.645 2.85915 191.89 2.85915 192.707 3.59437 192.707 4.57465 192.707 5.71831 192.707 5.88169 192.707 7.10705 191.482 34.4732 166.566 43.0507 129.152 43.0507 94.7606Z" fill="#FFFFFF" transform="matrix(1 0 0 1.00105 1221.75 1516.91)"/><path d="M56.1211-26.7127C57.3465-26.7127 58.8986-26.7127 58.8986-28.3465 58.8986-29.9803 57.3465-29.9803 56.2028-29.9803L7.27042-29.9803C6.12676-29.9803 4.57465-29.9803 4.57465-28.3465 4.57465-26.7127 6.12676-26.7127 7.35212-26.7127L56.1211-26.7127ZM56.2028-10.8648C57.3465-10.8648 58.8986-10.8648 58.8986-12.4986 58.8986-14.1324 57.3465-14.1324 56.1211-14.1324L7.35212-14.1324C6.12676-14.1324 4.57465-14.1324 4.57465-12.4986 4.57465-10.8648 6.12676-10.8648 7.27042-10.8648L56.2028-10.8648Z" fill="#FFFFFF" transform="matrix(1 0 0 1.00105 1304.58 1632.22)"/><path d="M57.1831 191.89C57.1831 191.563 57.0197 191.4 56.8564 191.155 53.8338 188.132 48.3606 182.659 42.8873 173.837 29.7352 152.761 23.7718 126.211 23.7718 94.7606 23.7718 72.7859 26.7127 44.4394 40.1916 20.0958 46.6451 8.49578 53.3437 1.79718 56.938-1.79718 57.1831-2.04225 57.1831-2.20563 57.1831-2.4507 57.1831-3.26761 56.6113-3.26761 55.4676-3.26761 54.324-3.26761 54.1606-3.26761 52.9352-2.04225 25.569 22.8732 16.9916 60.2873 16.9916 94.6789 16.9916 126.783 24.3437 159.132 45.093 183.558 46.7268 185.437 49.831 188.786 53.1803 191.727 54.1606 192.707 54.324 192.707 55.4676 192.707 56.6113 192.707 57.1831 192.707 57.1831 191.89Z" fill="#FFFFFF" transform="matrix(1 0 0 1.00105 1390.8 1516.91)"/><path d="M37.5775-26.1409C37.5775-32.6761 37.169-39.2113 34.3099-45.2564 30.5521-53.0986 23.8535-54.4056 20.4225-54.4056 15.5211-54.4056 9.55775-52.2817 6.20846-44.6845 3.59437-39.0479 3.18592-32.6761 3.18592-26.1409 3.18592-20.0141 3.51268-12.662 6.86198-6.45353 10.3746 0.163378 16.338 1.79718 20.3408 1.79718 24.7521 1.79718 30.9606 0.0816931 34.5549-7.67887 37.169-13.3155 37.5775-19.6873 37.5775-26.1409ZM20.3408 0C17.1549 0 12.3352-2.04225 10.8648-9.88451 9.9662-14.7859 9.9662-22.3014 9.9662-27.1211 9.9662-32.3493 9.9662-37.7409 10.6197-42.1521 12.1718-51.8732 18.2986-52.6085 20.3408-52.6085 23.0366-52.6085 28.4282-51.138 29.9803-43.0507 30.7972-38.4761 30.7972-32.2676 30.7972-27.1211 30.7972-20.9944 30.7972-15.4394 29.8986-10.2113 28.6732-2.4507 24.0169 0 20.3408 0Z" fill="#FFFFFF" transform="matrix(1 0 0 1.00105 1524.29 1582.34)"/><path d="M30.5521-49.5042C31.2873-52.4451 31.5324-53.262 37.9859-53.262 39.9465-53.262 40.6-53.262 40.6-54.8141 40.6-55.7944 39.7014-55.7944 39.3747-55.7944 37.0056-55.7944 30.9606-55.5493 28.5916-55.5493 26.1409-55.5493 20.1775-55.7944 17.7268-55.7944 17.1549-55.7944 16.093-55.7944 16.093-54.1606 16.093-53.262 16.8282-53.262 18.3803-53.262 21.8113-53.262 24.0169-53.262 24.0169-51.7099 24.0169-51.3014 24.0169-51.138 23.8535-50.4028L12.8254-6.37183C12.0901-3.34929 11.8451-2.5324 5.39155-2.5324 3.51268-2.5324 2.77747-2.5324 2.77747-0.898591 2.77747 0 3.75774 0 4.00281 0 6.37183 0 12.3352-0.245071 14.7042-0.245071 17.1549-0.245071 23.2 0 25.6507 0 26.3042 0 27.2845 0 27.2845-1.55211 27.2845-2.5324 26.631-2.5324 24.8338-2.5324 23.3634-2.5324 22.9549-2.5324 21.3211-2.69577 19.6056-2.85915 19.2789-3.18592 19.2789-4.08451 19.2789-4.73803 19.4423-5.39155 19.6056-5.96338L30.5521-49.5042Z" fill="#FFFFFF" transform="matrix(1 0 0 1.00105 1815.06 1582.34)"/><path d="M53.8338-18.7887C55.2225-18.7887 56.693-18.7887 56.693-20.4225 56.693-22.0563 55.2225-22.0563 53.8338-22.0563L9.63944-22.0563C8.25071-22.0563 6.78028-22.0563 6.78028-20.4225 6.78028-18.7887 8.25071-18.7887 9.63944-18.7887L53.8338-18.7887Z" fill="#FFFFFF" transform="matrix(1 0 0 1.00105 1491.78 1680.47)"/><path d="M30.5521-49.5042C31.2873-52.4451 31.5324-53.262 37.9859-53.262 39.9465-53.262 40.6-53.262 40.6-54.8141 40.6-55.7944 39.7014-55.7944 39.3747-55.7944 37.0056-55.7944 30.9606-55.5493 28.5916-55.5493 26.1409-55.5493 20.1775-55.7944 17.7268-55.7944 17.1549-55.7944 16.093-55.7944 16.093-54.1606 16.093-53.262 16.8282-53.262 18.3803-53.262 21.8113-53.262 24.0169-53.262 24.0169-51.7099 24.0169-51.3014 24.0169-51.138 23.8535-50.4028L12.8254-6.37183C12.0901-3.34929 11.8451-2.5324 5.39155-2.5324 3.51268-2.5324 2.77747-2.5324 2.77747-0.898591 2.77747 0 3.75774 0 4.00281 0 6.37183 0 12.3352-0.245071 14.7042-0.245071 17.1549-0.245071 23.2 0 25.6507 0 26.3042 0 27.2845 0 27.2845-1.55211 27.2845-2.5324 26.631-2.5324 24.8338-2.5324 23.3634-2.5324 22.9549-2.5324 21.3211-2.69577 19.6056-2.85915 19.2789-3.18592 19.2789-4.08451 19.2789-4.73803 19.4423-5.39155 19.6056-5.96338L30.5521-49.5042Z" fill="#FFFFFF" transform="matrix(1 0 0 1.00105 1555.32 1680.47)"/><path d="M53.8338-18.7887C55.2225-18.7887 56.693-18.7887 56.693-20.4225 56.693-22.0563 55.2225-22.0563 53.8338-22.0563L9.63944-22.0563C8.25071-22.0563 6.78028-22.0563 6.78028-20.4225 6.78028-18.7887 8.25071-18.7887 9.63944-18.7887L53.8338-18.7887Z" fill="#FFFFFF" transform="matrix(1 0 0 1.00105 1679.33 1680.47)"/><path d="M12.9887-6.37183C12.1718-3.18592 12.0085-2.5324 5.55493-2.5324 4.1662-2.5324 3.26761-2.5324 3.26761-0.980285 3.26761 0 4.00281 0 5.55493 0L32.5944 0C49.5859 0 65.6789-17.2366 65.6789-35.1268 65.6789-46.6451 58.7352-55.7944 46.4817-55.7944L19.0338-55.7944C17.4817-55.7944 16.5831-55.7944 16.5831-54.2423 16.5831-53.262 17.3183-53.262 18.9521-53.262 20.0141-53.262 21.4845-53.1803 22.4648-53.0986 23.7718-52.9352 24.262-52.6902 24.262-51.7916 24.262-51.4648 24.1803-51.2197 23.9352-50.2395L12.9887-6.37183ZM30.6338-50.1578C31.369-53.0169 31.5324-53.262 35.0451-53.262L43.7859-53.262C51.7916-53.262 58.5718-48.9324 58.5718-38.1493 58.5718-34.1465 56.938-20.7493 49.9944-11.7634 47.6254-8.74084 41.1718-2.5324 31.124-2.5324L21.893-2.5324C20.7493-2.5324 20.5859-2.5324 20.0958-2.61408 19.2789-2.69577 19.0338-2.77747 19.0338-3.43099 19.0338-3.67606 19.0338-3.83944 19.4423-5.30986L30.6338-50.1578Z" fill="#FFFFFF" transform="matrix(1 0 0 1.00105 1742.87 1680.47)"/><path d="M27.0394 19.6056C27.0394 19.3606 27.0394 19.1972 25.6507 17.8085 15.4394 7.5155 12.8254-7.92394 12.8254-20.4225 12.8254-34.6366 15.9296-48.8507 25.9775-59.062 27.0394-60.0423 27.0394-60.2057 27.0394-60.4507 27.0394-61.0225 26.7127-61.2676 26.2225-61.2676 25.4056-61.2676 18.0535-55.7127 13.2338-45.338 9.06761-36.3521 8.08732-27.2845 8.08732-20.4225 8.08732-14.0507 8.98591-4.1662 13.4789 5.06479 18.3803 15.1127 25.4056 20.4225 26.2225 20.4225 26.7127 20.4225 27.0394 20.1775 27.0394 19.6056Z" fill="#FFFFFF" transform="matrix(1 0 0 1.00105 1812.77 1680.47)"/><path d="M36.9239-35.2085C36.9239-35.5352 36.6789-36.0254 36.1071-36.0254 35.2085-36.0254 31.9408-32.7578 30.5521-30.3887 28.7549-34.8 25.569-36.1071 22.9549-36.1071 13.3155-36.1071 3.26761-24.0169 3.26761-12.1718 3.26761-4.1662 8.08732 0.898591 14.0507 0.898591 17.5634 0.898591 20.7493-1.06197 23.6902-4.00281 22.9549-1.14366 20.2592 9.88451 20.0141 10.6197 19.3606 12.907 18.7071 13.2338 14.1324 13.3155 13.0704 13.3155 12.2535 13.3155 12.2535 14.9493 12.2535 15.031 12.2535 15.8479 13.3155 15.8479 15.9296 15.8479 18.7887 15.6028 21.4845 15.6028 24.262 15.6028 27.2028 15.8479 29.8986 15.8479 30.307 15.8479 31.369 15.8479 31.369 14.2141 31.369 13.3155 30.5521 13.3155 29.2451 13.3155 25.3239 13.3155 25.3239 12.7437 25.3239 12.0085 25.3239 11.4366 25.4873 10.9465 25.6507 10.2113L36.9239-35.2085ZM14.2958-0.898591C9.39437-0.898591 9.06761-7.18873 9.06761-8.57747 9.06761-12.4986 11.4366-21.4028 12.8254-24.8338 15.3577-30.8789 19.6056-34.3099 22.9549-34.3099 28.2648-34.3099 29.4085-27.693 29.4085-27.1211 29.4085-26.631 24.9155-8.74084 24.6704-8.41409 23.4451-6.12676 18.8704-0.898591 14.2958-0.898591Z" fill="#FFFFFF" transform="matrix(1 0 0 1.00105 1844.54 1680.47)"/><path d="M16.5831-0.0816931C16.5831-5.47324 14.5408-8.65916 11.3549-8.65916 8.65916-8.65916 7.02535-6.6169 7.02535-4.32958 7.02535-2.12395 8.65916 0 11.3549 0 12.3352 0 13.3972-0.326764 14.2141-1.06197 14.4592-1.22536 14.5408-1.30704 14.6225-1.30704 14.7042-1.30704 14.7859-1.22536 14.7859-0.0816931 14.7859 5.96338 11.9268 10.8648 9.23098 13.5606 8.33239 14.4592 8.33239 14.6225 8.33239 14.8676 8.33239 15.4394 8.74084 15.7662 9.1493 15.7662 10.0479 15.7662 16.5831 9.47606 16.5831-0.0816931Z" fill="#FFFFFF" transform="matrix(1 0 0 1.00105 1883.94 1680.47)"/><path d="M3.67606 9.9662C3.02254 12.7437 2.85915 13.3155-0.735213 13.3155-1.71549 13.3155-2.61408 13.3155-2.61408 14.8676-2.61408 15.5211-2.20563 15.8479-1.55211 15.8479 0.65352 15.8479 3.02254 15.6028 5.30986 15.6028 8.00564 15.6028 10.7831 15.8479 13.3972 15.8479 13.8056 15.8479 14.8676 15.8479 14.8676 14.2141 14.8676 13.3155 14.0507 13.3155 12.907 13.3155 8.82254 13.3155 8.82254 12.7437 8.82254 12.0085 8.82254 11.0282 12.2535-2.28733 12.8254-4.32958 13.8873-1.96056 16.1747 0.898591 20.3408 0.898591 29.8169 0.898591 40.0282-11.0282 40.0282-23.0366 40.0282-30.7155 35.3718-36.1071 29.1634-36.1071 25.0789-36.1071 21.1578-33.1662 18.462-29.9803 17.6451-34.3916 14.1324-36.1071 11.1099-36.1071 7.35212-36.1071 5.8-32.9211 5.06479-31.4507 3.59437-28.6732 2.5324-23.7718 2.5324-23.5268 2.5324-22.7099 3.34929-22.7099 3.51268-22.7099 4.32958-22.7099 4.41127-22.7916 4.90141-24.5887 6.29014-30.3887 7.92394-34.3099 10.8648-34.3099 12.2535-34.3099 13.3972-33.6563 13.3972-30.5521 13.3972-28.6732 13.1521-27.7747 12.8254-26.3859L3.67606 9.9662ZM18.0535-25.4873C18.6254-27.693 20.831-29.9803 22.3014-31.2056 25.1606-33.738 27.5296-34.3099 28.9183-34.3099 32.1859-34.3099 34.1465-31.4507 34.1465-26.631 34.1465-21.8113 31.4507-12.4169 29.9803-9.31268 27.2028-3.59437 23.2817-0.898591 20.2592-0.898591 14.8676-0.898591 13.8056-7.67887 13.8056-8.16902 13.8056-8.33239 13.8056-8.49578 14.0507-9.47606L18.0535-25.4873Z" fill="#FFFFFF" transform="matrix(1 0 0 1.00105 1920.24 1680.47)"/><path d="M23.6085-20.4225C23.6085-26.7944 22.7099-36.6789 18.2169-45.9099 13.3155-55.9578 6.29014-61.2676 5.47324-61.2676 4.9831-61.2676 4.65634-60.9409 4.65634-60.4507 4.65634-60.2057 4.65634-60.0423 6.20846-58.5718 14.2141-50.4845 18.8704-37.4958 18.8704-20.4225 18.8704-6.45353 15.8479 7.92394 5.71831 18.2169 4.65634 19.1972 4.65634 19.3606 4.65634 19.6056 4.65634 20.0958 4.9831 20.4225 5.47324 20.4225 6.29014 20.4225 13.6423 14.8676 18.462 4.49296 22.6282-4.49296 23.6085-13.5606 23.6085-20.4225Z" fill="#FFFFFF" transform="matrix(1 0 0 1.00105 1961.34 1680.47)"/><path d="M43.0507 94.7606C43.0507 62.6564 35.6986 30.307 14.9493 5.88169 13.3155 4.00281 10.2113 0.65352 6.86198-2.28733 5.88169-3.26761 5.71831-3.26761 4.57465-3.26761 3.59437-3.26761 2.85915-3.26761 2.85915-2.4507 2.85915-2.12395 3.18592-1.79718 3.34929-1.6338 6.20846 1.30704 11.6817 6.78028 17.1549 15.6028 30.307 36.6789 36.2704 63.2282 36.2704 94.6789 36.2704 116.654 33.3296 145 19.8507 169.344 13.3972 180.944 6.6169 187.724 3.18592 191.155 3.02254 191.4 2.85915 191.645 2.85915 191.89 2.85915 192.707 3.59437 192.707 4.57465 192.707 5.71831 192.707 5.88169 192.707 7.10705 191.482 34.4732 166.566 43.0507 129.152 43.0507 94.7606Z" fill="#FFFFFF" transform="matrix(1 0 0 1.00105 2033.96 1516.91)"/><path d="M57.1831 191.89C57.1831 191.563 57.0197 191.4 56.8564 191.155 53.8338 188.132 48.3606 182.659 42.8873 173.837 29.7352 152.761 23.7718 126.211 23.7718 94.7606 23.7718 72.7859 26.7127 44.4394 40.1916 20.0958 46.6451 8.49578 53.3437 1.79718 56.938-1.79718 57.1831-2.04225 57.1831-2.20563 57.1831-2.4507 57.1831-3.26761 56.6113-3.26761 55.4676-3.26761 54.324-3.26761 54.1606-3.26761 52.9352-2.04225 25.569 22.8732 16.9916 60.2873 16.9916 94.6789 16.9916 126.783 24.3437 159.132 45.093 183.558 46.7268 185.437 49.831 188.786 53.1803 191.727 54.1606 192.707 54.324 192.707 55.4676 192.707 56.6113 192.707 57.1831 192.707 57.1831 191.89Z" fill="#FFFFFF" transform="matrix(1 0 0 1.00105 2107.7 1516.91)"/><path d="M63.7183-53.9972C63.8817-54.2423 64.1268-54.8141 64.1268-55.1409 64.1268-55.7127 64.0451-55.7944 62.1662-55.7944L5.8-55.7944C3.92113-55.7944 3.83944-55.7127 3.83944-55.1409 3.83944-54.8141 4.08451-54.2423 4.24789-53.9972L31.7775 1.14366C32.3493 2.20563 32.5944 2.69577 33.9831 2.69577 35.3718 2.69577 35.6169 2.20563 36.1887 1.14366L63.7183-53.9972ZM13.969-49.9127 58.8169-49.9127 36.4338-4.9831 13.969-49.9127Z" fill="#FFFFFF" transform="matrix(1 0 0 1.00105 2168.68 1582.34)"/><path d="M29.1062-23.5594C29.1634-23.7882 29.2206-24.1313 29.2206-24.4172 29.2206-24.7603 28.9918-25.2178 28.4772-25.2178 27.9054-25.2178 25.5037-23.2735 24.36-21.4437 23.7882-22.5873 21.9011-25.2178 18.2414-25.2178 10.922-25.2178 3.48817-17.1549 3.48817-8.92056 3.48817-3.3738 7.20507 0.571827 12.1228 0.571827 15.3823 0.571827 18.0699-1.48676 19.3279-2.57324 19.2707-2.40169 17.498 4.80338 17.2693 5.7755 16.4687 8.92056 16.4115 8.97775 12.8662 9.03493 12.18 9.03493 11.3794 9.03493 11.3794 10.293 11.3794 10.6361 11.6654 11.0935 12.2372 11.0935 14.1242 11.0935 16.24 10.8648 18.1842 10.8648 20.1285 10.8648 22.5301 11.0935 24.3028 11.0935 24.8175 11.0935 25.4465 10.922 25.4465 9.8355 25.4465 9.03493 24.6459 9.03493 23.9597 9.03493 22.7017 9.03493 21.1578 9.03493 21.1578 8.34874 21.1578 8.17718 21.1578 8.06282 21.4437 7.0907L29.1062-23.5594ZM20.4716-7.20507C20.1856-6.23296 20.1856-6.1186 19.4423-5.20366 17.2121-2.57324 14.5245-1.02929 12.2944-1.02929 10.1786-1.02929 8.12-2.51605 8.12-6.57606 8.12-9.60676 9.77831-15.8969 11.0935-18.1842 13.724-22.7589 16.6403-23.6166 18.2414-23.6166 22.2442-23.6166 23.3307-19.2135 23.3307-18.6417 23.3307-18.3558 23.2163-18.0127 23.1592-17.784L20.4716-7.20507Z" fill="#FFFFFF" transform="matrix(1 0 0 1.00105 2236.75 1594.6)"/><path d="M62.3296-49.5042C63.0648-52.4451 63.2282-53.262 69.1916-53.262 71.3155-53.262 71.969-53.262 71.969-54.8958 71.969-55.7944 71.0704-55.7944 70.8254-55.7944 68.538-55.7944 62.6564-55.5493 60.369-55.5493 58-55.5493 52.2-55.7944 49.831-55.7944 49.1775-55.7944 48.2789-55.7944 48.2789-54.1606 48.2789-53.262 49.0141-53.262 50.5662-53.262 50.7296-53.262 52.2817-53.262 53.6704-53.0986 55.1409-52.9352 55.8761-52.8535 55.8761-51.7916 55.8761-51.4648 55.7944-51.3014 55.5493-50.2395L50.6479-30.307 25.7324-30.307 30.5521-49.5042C31.2873-52.4451 31.5324-53.262 37.4141-53.262 39.538-53.262 40.1916-53.262 40.1916-54.8958 40.1916-55.7944 39.293-55.7944 39.0479-55.7944 36.7606-55.7944 30.8789-55.5493 28.5916-55.5493 26.2225-55.5493 20.4225-55.7944 18.0535-55.7944 17.4-55.7944 16.5014-55.7944 16.5014-54.1606 16.5014-53.262 17.2366-53.262 18.7887-53.262 18.9521-53.262 20.5042-53.262 21.893-53.0986 23.3634-52.9352 24.0986-52.8535 24.0986-51.7916 24.0986-51.4648 24.0169-51.2197 23.7718-50.2395L12.8254-6.37183C12.0085-3.18592 11.8451-2.5324 5.39155-2.5324 3.92113-2.5324 3.18592-2.5324 3.18592-0.898591 3.18592 0 4.1662 0 4.32958 0 6.6169 0 12.4169-0.245071 14.7042-0.245071 16.4197-0.245071 18.2169-0.163378 19.9324-0.163378 21.7296-0.163378 23.5268 0 25.2423 0 25.8958 0 26.8761 0 26.8761-1.6338 26.8761-2.5324 26.1409-2.5324 24.5887-2.5324 21.5662-2.5324 19.2789-2.5324 19.2789-4.00281 19.2789-4.49296 19.4423-4.90141 19.5239-5.39155L25.0789-27.7747 49.9944-27.7747C46.5634-14.2141 44.6845-6.45353 44.3578-5.22817 43.5409-2.61408 41.9887-2.5324 36.9239-2.5324 35.6986-2.5324 34.9634-2.5324 34.9634-0.898591 34.9634 0 35.9437 0 36.1071 0 38.3944 0 44.1944-0.245071 46.4817-0.245071 48.1972-0.245071 49.9944-0.163378 51.7099-0.163378 53.5071-0.163378 55.3042 0 57.0197 0 57.6733 0 58.6535 0 58.6535-1.6338 58.6535-2.5324 57.9183-2.5324 56.3662-2.5324 53.3437-2.5324 51.0564-2.5324 51.0564-4.00281 51.0564-4.49296 51.2197-4.90141 51.3014-5.39155L62.3296-49.5042Z" fill="#FFFFFF" transform="matrix(1 0 0 1.00105 2272.83 1582.34)"/><path d="M63.7183-53.9972C63.8817-54.2423 64.1268-54.8141 64.1268-55.1409 64.1268-55.7127 64.0451-55.7944 62.1662-55.7944L5.8-55.7944C3.92113-55.7944 3.83944-55.7127 3.83944-55.1409 3.83944-54.8141 4.08451-54.2423 4.24789-53.9972L31.7775 1.14366C32.3493 2.20563 32.5944 2.69577 33.9831 2.69577 35.3718 2.69577 35.6169 2.20563 36.1887 1.14366L63.7183-53.9972ZM13.969-49.9127 58.8169-49.9127 36.4338-4.9831 13.969-49.9127Z" fill="#FFFFFF" transform="matrix(1 0 0 1.00105 2167.84 1680.47)"/><path d="M4.28874 6.97634C3.88845 8.57747 3.77409 9.03493 1.48676 9.03493 0.74338 9.03493-0.0571844 9.03493-0.0571844 10.2358-0.0571844 10.8648 0.457467 11.0935 0.74338 11.0935 2.23014 11.0935 4.11718 10.8648 5.66113 10.8648 7.60536 10.8648 9.77831 11.0935 11.6654 11.0935 12.18 11.0935 12.809 10.922 12.809 9.8355 12.809 9.03493 12.0085 9.03493 11.3223 9.03493 10.0642 9.03493 8.52028 9.03493 8.52028 8.34874 8.52028 8.06282 8.92056 6.57606 9.1493 5.71831 9.8355 2.68761 10.6361-0.400282 11.2651-2.80198 11.9513-1.65831 13.724 0.571827 17.1549 0.571827 24.1313 0.571827 31.851-7.14789 31.851-15.6682 31.851-22.3586 27.2192-25.2178 23.2735-25.2178 19.7282-25.2178 16.6975-22.8161 15.1535-21.2149 14.1814-24.4744 10.9792-25.2178 9.26366-25.2178 7.03352-25.2178 5.66113-23.731 4.74619-22.187 3.60253-20.2428 2.68761-16.8118 2.68761-16.4687 2.68761-15.7254 3.48817-15.7254 3.65972-15.7254 4.46028-15.7254 4.51747-15.8969 4.91775-17.4409 5.7755-20.7575 6.86198-23.6166 9.09212-23.6166 10.5789-23.6166 10.9792-22.3586 10.9792-20.8147 10.9792-20.1856 10.8648-19.4423 10.8076-19.0992L4.28874 6.97634ZM15.0963-18.3558C18.413-22.7589 21.2721-23.6166 23.102-23.6166 25.3321-23.6166 27.2763-21.9583 27.2763-18.0699 27.2763-15.7254 26.0183-9.89268 24.3028-6.57606 22.8732-3.77409 20.0713-1.02929 17.1549-1.02929 13.0949-1.02929 12.0656-5.4324 12.0656-6.00423 12.0656-6.23296 12.18-6.63324 12.2372-6.86198L15.0963-18.3558Z" fill="#FFFFFF" transform="matrix(1 0 0 1.00105 2235.91 1692.73)"/><path d="M62.3296-49.5042C63.0648-52.4451 63.2282-53.262 69.1916-53.262 71.3155-53.262 71.969-53.262 71.969-54.8958 71.969-55.7944 71.0704-55.7944 70.8254-55.7944 68.538-55.7944 62.6564-55.5493 60.369-55.5493 58-55.5493 52.2-55.7944 49.831-55.7944 49.1775-55.7944 48.2789-55.7944 48.2789-54.1606 48.2789-53.262 49.0141-53.262 50.5662-53.262 50.7296-53.262 52.2817-53.262 53.6704-53.0986 55.1409-52.9352 55.8761-52.8535 55.8761-51.7916 55.8761-51.4648 55.7944-51.3014 55.5493-50.2395L50.6479-30.307 25.7324-30.307 30.5521-49.5042C31.2873-52.4451 31.5324-53.262 37.4141-53.262 39.538-53.262 40.1916-53.262 40.1916-54.8958 40.1916-55.7944 39.293-55.7944 39.0479-55.7944 36.7606-55.7944 30.8789-55.5493 28.5916-55.5493 26.2225-55.5493 20.4225-55.7944 18.0535-55.7944 17.4-55.7944 16.5014-55.7944 16.5014-54.1606 16.5014-53.262 17.2366-53.262 18.7887-53.262 18.9521-53.262 20.5042-53.262 21.893-53.0986 23.3634-52.9352 24.0986-52.8535 24.0986-51.7916 24.0986-51.4648 24.0169-51.2197 23.7718-50.2395L12.8254-6.37183C12.0085-3.18592 11.8451-2.5324 5.39155-2.5324 3.92113-2.5324 3.18592-2.5324 3.18592-0.898591 3.18592 0 4.1662 0 4.32958 0 6.6169 0 12.4169-0.245071 14.7042-0.245071 16.4197-0.245071 18.2169-0.163378 19.9324-0.163378 21.7296-0.163378 23.5268 0 25.2423 0 25.8958 0 26.8761 0 26.8761-1.6338 26.8761-2.5324 26.1409-2.5324 24.5887-2.5324 21.5662-2.5324 19.2789-2.5324 19.2789-4.00281 19.2789-4.49296 19.4423-4.90141 19.5239-5.39155L25.0789-27.7747 49.9944-27.7747C46.5634-14.2141 44.6845-6.45353 44.3578-5.22817 43.5409-2.61408 41.9887-2.5324 36.9239-2.5324 35.6986-2.5324 34.9634-2.5324 34.9634-0.898591 34.9634 0 35.9437 0 36.1071 0 38.3944 0 44.1944-0.245071 46.4817-0.245071 48.1972-0.245071 49.9944-0.163378 51.7099-0.163378 53.5071-0.163378 55.3042 0 57.0197 0 57.6733 0 58.6535 0 58.6535-1.6338 58.6535-2.5324 57.9183-2.5324 56.3662-2.5324 53.3437-2.5324 51.0564-2.5324 51.0564-4.00281 51.0564-4.49296 51.2197-4.90141 51.3014-5.39155L62.3296-49.5042Z" fill="#FFFFFF" transform="matrix(1 0 0 1.00105 2273.67 1680.47)"/><path d="M43.0507 94.7606C43.0507 62.6564 35.6986 30.307 14.9493 5.88169 13.3155 4.00281 10.2113 0.65352 6.86198-2.28733 5.88169-3.26761 5.71831-3.26761 4.57465-3.26761 3.59437-3.26761 2.85915-3.26761 2.85915-2.4507 2.85915-2.12395 3.18592-1.79718 3.34929-1.6338 6.20846 1.30704 11.6817 6.78028 17.1549 15.6028 30.307 36.6789 36.2704 63.2282 36.2704 94.6789 36.2704 116.654 33.3296 145 19.8507 169.344 13.3972 180.944 6.6169 187.724 3.18592 191.155 3.02254 191.4 2.85915 191.645 2.85915 191.89 2.85915 192.707 3.59437 192.707 4.57465 192.707 5.71831 192.707 5.88169 192.707 7.10705 191.482 34.4732 166.566 43.0507 129.152 43.0507 94.7606Z" fill="#FFFFFF" transform="matrix(1 0 0 1.00105 2348.21 1516.91)"/><path d="M33.4113-18.7887 56.2028-18.7887C57.3465-18.7887 58.8986-18.7887 58.8986-20.4225 58.8986-22.0563 57.3465-22.0563 56.2028-22.0563L33.4113-22.0563 33.4113-44.9296C33.4113-46.0732 33.4113-47.6254 31.7775-47.6254 30.1437-47.6254 30.1437-46.0732 30.1437-44.9296L30.1437-22.0563 7.27042-22.0563C6.12676-22.0563 4.57465-22.0563 4.57465-20.4225 4.57465-18.7887 6.12676-18.7887 7.27042-18.7887L30.1437-18.7887 30.1437 4.08451C30.1437 5.22817 30.1437 6.78028 31.7775 6.78028 33.4113 6.78028 33.4113 5.22817 33.4113 4.08451L33.4113-18.7887Z" fill="#FFFFFF" transform="matrix(1 0 0 1.00105 2426.5 1632.22)"/><path d="M57.1831 191.89C57.1831 191.563 57.0197 191.4 56.8564 191.155 53.8338 188.132 48.3606 182.659 42.8873 173.837 29.7352 152.761 23.7718 126.211 23.7718 94.7606 23.7718 72.7859 26.7127 44.4394 40.1916 20.0958 46.6451 8.49578 53.3437 1.79718 56.938-1.79718 57.1831-2.04225 57.1831-2.20563 57.1831-2.4507 57.1831-3.26761 56.6113-3.26761 55.4676-3.26761 54.324-3.26761 54.1606-3.26761 52.9352-2.04225 25.569 22.8732 16.9916 60.2873 16.9916 94.6789 16.9916 126.783 24.3437 159.132 45.093 183.558 46.7268 185.437 49.831 188.786 53.1803 191.727 54.1606 192.707 54.324 192.707 55.4676 192.707 56.6113 192.707 57.1831 192.707 57.1831 191.89Z" fill="#FFFFFF" transform="matrix(1 0 0 1.00105 2508.19 1516.91)"/><path d="M37.5775-26.1409C37.5775-32.6761 37.169-39.2113 34.3099-45.2564 30.5521-53.0986 23.8535-54.4056 20.4225-54.4056 15.5211-54.4056 9.55775-52.2817 6.20846-44.6845 3.59437-39.0479 3.18592-32.6761 3.18592-26.1409 3.18592-20.0141 3.51268-12.662 6.86198-6.45353 10.3746 0.163378 16.338 1.79718 20.3408 1.79718 24.7521 1.79718 30.9606 0.0816931 34.5549-7.67887 37.169-13.3155 37.5775-19.6873 37.5775-26.1409ZM20.3408 0C17.1549 0 12.3352-2.04225 10.8648-9.88451 9.9662-14.7859 9.9662-22.3014 9.9662-27.1211 9.9662-32.3493 9.9662-37.7409 10.6197-42.1521 12.1718-51.8732 18.2986-52.6085 20.3408-52.6085 23.0366-52.6085 28.4282-51.138 29.9803-43.0507 30.7972-38.4761 30.7972-32.2676 30.7972-27.1211 30.7972-20.9944 30.7972-15.4394 29.8986-10.2113 28.6732-2.4507 24.0169 0 20.3408 0Z" fill="#FFFFFF" transform="matrix(1 0 0 1.00105 2631.48 1582.34)"/><path d="M62.0845-56.7747C62.0845-57.0197 61.9211-57.5916 61.1859-57.5916 60.9409-57.5916 60.8592-57.5099 59.9606-56.6113L54.2423-50.3211C53.5071-51.4648 49.7493-57.5916 40.6817-57.5916 22.4648-57.5916 4.08451-39.538 4.08451-20.5859 4.08451-7.59719 13.1521 1.79718 26.3859 1.79718 29.9803 1.79718 33.6563 1.06197 36.5972-0.163378 40.6817-1.79718 42.2338-3.51268 43.7042-5.14648 44.4394-3.10422 46.5634-0.0816931 47.3803-0.0816931 47.7887-0.0816931 47.9521-0.326764 47.9521-0.408449 48.1155-0.571827 48.9324-3.67606 49.3409-5.39155L50.893-11.6817C51.2197-13.0704 51.6282-14.4592 51.9549-15.8479 52.8535-19.5239 52.9352-19.6873 57.5916-19.769 58-19.769 58.8986-19.8507 58.8986-21.4028 58.8986-21.9747 58.4902-22.3014 57.8366-22.3014 55.9578-22.3014 51.138-22.0563 49.2592-22.0563 46.7268-22.0563 40.3549-22.3014 37.8225-22.3014 37.0873-22.3014 36.1071-22.3014 36.1071-20.6676 36.1071-19.769 36.7606-19.769 38.5578-19.769 38.6394-19.769 41.0085-19.769 42.8873-19.6056 45.0113-19.3606 45.4197-19.1155 45.4197-18.0535 45.4197-17.3183 44.5211-13.6423 43.7042-10.6197 41.4169-1.6338 30.7972-0.735213 27.938-0.735213 20.0958-0.735213 11.5183-5.39155 11.5183-17.8901 11.5183-20.4225 12.3352-33.9014 20.9127-44.5211 25.3239-50.0761 33.2479-55.0592 41.3352-55.0592 49.6676-55.0592 54.4873-48.769 54.4873-39.293 54.4873-36.0254 54.2423-35.9437 54.2423-35.1268 54.2423-34.3099 55.1409-34.3099 55.4676-34.3099 56.5296-34.3099 56.5296-34.4732 56.938-35.9437L62.0845-56.7747Z" fill="#FFFFFF" transform="matrix(1 0 0 1.00105 2568.32 1680.47)"/><path d="M27.0394 19.6056C27.0394 19.3606 27.0394 19.1972 25.6507 17.8085 15.4394 7.5155 12.8254-7.92394 12.8254-20.4225 12.8254-34.6366 15.9296-48.8507 25.9775-59.062 27.0394-60.0423 27.0394-60.2057 27.0394-60.4507 27.0394-61.0225 26.7127-61.2676 26.2225-61.2676 25.4056-61.2676 18.0535-55.7127 13.2338-45.338 9.06761-36.3521 8.08732-27.2845 8.08732-20.4225 8.08732-14.0507 8.98591-4.1662 13.4789 5.06479 18.3803 15.1127 25.4056 20.4225 26.2225 20.4225 26.7127 20.4225 27.0394 20.1775 27.0394 19.6056Z" fill="#FFFFFF" transform="matrix(1 0 0 1.00105 2632.55 1680.47)"/><path d="M36.9239-35.2085C36.9239-35.5352 36.6789-36.0254 36.1071-36.0254 35.2085-36.0254 31.9408-32.7578 30.5521-30.3887 28.7549-34.8 25.569-36.1071 22.9549-36.1071 13.3155-36.1071 3.26761-24.0169 3.26761-12.1718 3.26761-4.1662 8.08732 0.898591 14.0507 0.898591 17.5634 0.898591 20.7493-1.06197 23.6902-4.00281 22.9549-1.14366 20.2592 9.88451 20.0141 10.6197 19.3606 12.907 18.7071 13.2338 14.1324 13.3155 13.0704 13.3155 12.2535 13.3155 12.2535 14.9493 12.2535 15.031 12.2535 15.8479 13.3155 15.8479 15.9296 15.8479 18.7887 15.6028 21.4845 15.6028 24.262 15.6028 27.2028 15.8479 29.8986 15.8479 30.307 15.8479 31.369 15.8479 31.369 14.2141 31.369 13.3155 30.5521 13.3155 29.2451 13.3155 25.3239 13.3155 25.3239 12.7437 25.3239 12.0085 25.3239 11.4366 25.4873 10.9465 25.6507 10.2113L36.9239-35.2085ZM14.2958-0.898591C9.39437-0.898591 9.06761-7.18873 9.06761-8.57747 9.06761-12.4986 11.4366-21.4028 12.8254-24.8338 15.3577-30.8789 19.6056-34.3099 22.9549-34.3099 28.2648-34.3099 29.4085-27.693 29.4085-27.1211 29.4085-26.631 24.9155-8.74084 24.6704-8.41409 23.4451-6.12676 18.8704-0.898591 14.2958-0.898591Z" fill="#FFFFFF" transform="matrix(1 0 0 1.00105 2664.32 1680.47)"/><path d="M23.6085-20.4225C23.6085-26.7944 22.7099-36.6789 18.2169-45.9099 13.3155-55.9578 6.29014-61.2676 5.47324-61.2676 4.9831-61.2676 4.65634-60.9409 4.65634-60.4507 4.65634-60.2057 4.65634-60.0423 6.20846-58.5718 14.2141-50.4845 18.8704-37.4958 18.8704-20.4225 18.8704-6.45353 15.8479 7.92394 5.71831 18.2169 4.65634 19.1972 4.65634 19.3606 4.65634 19.6056 4.65634 20.0958 4.9831 20.4225 5.47324 20.4225 6.29014 20.4225 13.6423 14.8676 18.462 4.49296 22.6282-4.49296 23.6085-13.5606 23.6085-20.4225Z" fill="#FFFFFF" transform="matrix(1 0 0 1.00105 2703.72 1680.47)"/><path d="M43.0507 94.7606C43.0507 62.6564 35.6986 30.307 14.9493 5.88169 13.3155 4.00281 10.2113 0.65352 6.86198-2.28733 5.88169-3.26761 5.71831-3.26761 4.57465-3.26761 3.59437-3.26761 2.85915-3.26761 2.85915-2.4507 2.85915-2.12395 3.18592-1.79718 3.34929-1.6338 6.20846 1.30704 11.6817 6.78028 17.1549 15.6028 30.307 36.6789 36.2704 63.2282 36.2704 94.6789 36.2704 116.654 33.3296 145 19.8507 169.344 13.3972 180.944 6.6169 187.724 3.18592 191.155 3.02254 191.4 2.85915 191.645 2.85915 191.89 2.85915 192.707 3.59437 192.707 4.57465 192.707 5.71831 192.707 5.88169 192.707 7.10705 191.482 34.4732 166.566 43.0507 129.152 43.0507 94.7606Z" fill="#FFFFFF" transform="matrix(1 0 0 1.00105 2735.49 1516.91)"/><path d="M28.5916-4.57465C29.4901-1.22536 32.3493 0.898591 35.862 0.898591 38.7211 0.898591 40.6-0.980285 41.9071-3.59437 43.2958-6.53521 44.3578-11.5183 44.3578-11.6817 44.3578-12.4986 43.6225-12.4986 43.3775-12.4986 42.5606-12.4986 42.4789-12.1718 42.2338-11.0282 41.0902-6.45353 39.538-0.898591 36.1071-0.898591 34.3916-0.898591 33.5747-1.96056 33.5747-4.65634 33.5747-6.45353 34.5549-10.293 35.2085-13.1521L37.4958-21.9747C37.7409-23.2 38.5578-26.3042 38.8845-27.5296 39.293-29.4085 40.1099-32.5127 40.1099-33.0028 40.1099-34.4732 38.9662-35.2085 37.7409-35.2085 37.3324-35.2085 35.2085-35.1268 34.5549-32.3493 33.0028-26.3859 29.4085-12.0901 28.4282-7.76057 28.3465-7.4338 25.0789-0.898591 19.1155-0.898591 14.8676-0.898591 14.0507-4.57465 14.0507-7.59719 14.0507-12.1718 16.338-18.6254 18.462-24.262 19.4423-26.7127 19.8507-27.8563 19.8507-29.4085 19.8507-33.0845 17.2366-36.1071 13.1521-36.1071 5.39155-36.1071 2.36902-24.262 2.36902-23.5268 2.36902-22.7099 3.18592-22.7099 3.34929-22.7099 4.1662-22.7099 4.24789-22.8732 4.65634-24.1803 6.69859-31.2873 9.80282-34.3099 12.907-34.3099 13.6423-34.3099 14.9493-34.2282 14.9493-31.6141 14.9493-29.6535 14.0507-27.2845 13.5606-26.0592 10.538-17.9718 8.82254-12.907 8.82254-8.90423 8.82254-1.14366 14.4592 0.898591 18.8704 0.898591 24.262 0.898591 27.2028-2.77747 28.5916-4.57465Z" fill="#FFFFFF" transform="matrix(1 0 0 1.00105 2809.24 1632.22)"/><path d="M62.3296-49.5042C63.0648-52.4451 63.2282-53.262 69.1916-53.262 71.3155-53.262 71.969-53.262 71.969-54.8958 71.969-55.7944 71.0704-55.7944 70.8254-55.7944 68.538-55.7944 62.6564-55.5493 60.369-55.5493 58-55.5493 52.2-55.7944 49.831-55.7944 49.1775-55.7944 48.2789-55.7944 48.2789-54.1606 48.2789-53.262 49.0141-53.262 50.5662-53.262 50.7296-53.262 52.2817-53.262 53.6704-53.0986 55.1409-52.9352 55.8761-52.8535 55.8761-51.7916 55.8761-51.4648 55.7944-51.3014 55.5493-50.2395L50.6479-30.307 25.7324-30.307 30.5521-49.5042C31.2873-52.4451 31.5324-53.262 37.4141-53.262 39.538-53.262 40.1916-53.262 40.1916-54.8958 40.1916-55.7944 39.293-55.7944 39.0479-55.7944 36.7606-55.7944 30.8789-55.5493 28.5916-55.5493 26.2225-55.5493 20.4225-55.7944 18.0535-55.7944 17.4-55.7944 16.5014-55.7944 16.5014-54.1606 16.5014-53.262 17.2366-53.262 18.7887-53.262 18.9521-53.262 20.5042-53.262 21.893-53.0986 23.3634-52.9352 24.0986-52.8535 24.0986-51.7916 24.0986-51.4648 24.0169-51.2197 23.7718-50.2395L12.8254-6.37183C12.0085-3.18592 11.8451-2.5324 5.39155-2.5324 3.92113-2.5324 3.18592-2.5324 3.18592-0.898591 3.18592 0 4.1662 0 4.32958 0 6.6169 0 12.4169-0.245071 14.7042-0.245071 16.4197-0.245071 18.2169-0.163378 19.9324-0.163378 21.7296-0.163378 23.5268 0 25.2423 0 25.8958 0 26.8761 0 26.8761-1.6338 26.8761-2.5324 26.1409-2.5324 24.5887-2.5324 21.5662-2.5324 19.2789-2.5324 19.2789-4.00281 19.2789-4.49296 19.4423-4.90141 19.5239-5.39155L25.0789-27.7747 49.9944-27.7747C46.5634-14.2141 44.6845-6.45353 44.3578-5.22817 43.5409-2.61408 41.9887-2.5324 36.9239-2.5324 35.6986-2.5324 34.9634-2.5324 34.9634-0.898591 34.9634 0 35.9437 0 36.1071 0 38.3944 0 44.1944-0.245071 46.4817-0.245071 48.1972-0.245071 49.9944-0.163378 51.7099-0.163378 53.5071-0.163378 55.3042 0 57.0197 0 57.6733 0 58.6535 0 58.6535-1.6338 58.6535-2.5324 57.9183-2.5324 56.3662-2.5324 53.3437-2.5324 51.0564-2.5324 51.0564-4.00281 51.0564-4.49296 51.2197-4.90141 51.3014-5.39155L62.3296-49.5042Z" fill="#FFFFFF" transform="matrix(1 0 0 1.00105 1027 1850.64)"/><path d="M27.0394 19.6056C27.0394 19.3606 27.0394 19.1972 25.6507 17.8085 15.4394 7.5155 12.8254-7.92394 12.8254-20.4225 12.8254-34.6366 15.9296-48.8507 25.9775-59.062 27.0394-60.0423 27.0394-60.2057 27.0394-60.4507 27.0394-61.0225 26.7127-61.2676 26.2225-61.2676 25.4056-61.2676 18.0535-55.7127 13.2338-45.338 9.06761-36.3521 8.08732-27.2845 8.08732-20.4225 8.08732-14.0507 8.98591-4.1662 13.4789 5.06479 18.3803 15.1127 25.4056 20.4225 26.2225 20.4225 26.7127 20.4225 27.0394 20.1775 27.0394 19.6056Z" fill="#FFFFFF" transform="matrix(1 0 0 1.00105 1101.54 1850.64)"/><path d="M36.9239-35.2085C36.9239-35.5352 36.6789-36.0254 36.1071-36.0254 35.2085-36.0254 31.9408-32.7578 30.5521-30.3887 28.7549-34.8 25.569-36.1071 22.9549-36.1071 13.3155-36.1071 3.26761-24.0169 3.26761-12.1718 3.26761-4.1662 8.08732 0.898591 14.0507 0.898591 17.5634 0.898591 20.7493-1.06197 23.6902-4.00281 22.9549-1.14366 20.2592 9.88451 20.0141 10.6197 19.3606 12.907 18.7071 13.2338 14.1324 13.3155 13.0704 13.3155 12.2535 13.3155 12.2535 14.9493 12.2535 15.031 12.2535 15.8479 13.3155 15.8479 15.9296 15.8479 18.7887 15.6028 21.4845 15.6028 24.262 15.6028 27.2028 15.8479 29.8986 15.8479 30.307 15.8479 31.369 15.8479 31.369 14.2141 31.369 13.3155 30.5521 13.3155 29.2451 13.3155 25.3239 13.3155 25.3239 12.7437 25.3239 12.0085 25.3239 11.4366 25.4873 10.9465 25.6507 10.2113L36.9239-35.2085ZM14.2958-0.898591C9.39437-0.898591 9.06761-7.18873 9.06761-8.57747 9.06761-12.4986 11.4366-21.4028 12.8254-24.8338 15.3577-30.8789 19.6056-34.3099 22.9549-34.3099 28.2648-34.3099 29.4085-27.693 29.4085-27.1211 29.4085-26.631 24.9155-8.74084 24.6704-8.41409 23.4451-6.12676 18.8704-0.898591 14.2958-0.898591Z" fill="#FFFFFF" transform="matrix(1 0 0 1.00105 1133.31 1850.64)"/><path d="M16.5831-0.0816931C16.5831-5.47324 14.5408-8.65916 11.3549-8.65916 8.65916-8.65916 7.02535-6.6169 7.02535-4.32958 7.02535-2.12395 8.65916 0 11.3549 0 12.3352 0 13.3972-0.326764 14.2141-1.06197 14.4592-1.22536 14.5408-1.30704 14.6225-1.30704 14.7042-1.30704 14.7859-1.22536 14.7859-0.0816931 14.7859 5.96338 11.9268 10.8648 9.23098 13.5606 8.33239 14.4592 8.33239 14.6225 8.33239 14.8676 8.33239 15.4394 8.74084 15.7662 9.1493 15.7662 10.0479 15.7662 16.5831 9.47606 16.5831-0.0816931Z" fill="#FFFFFF" transform="matrix(1 0 0 1.00105 1172.71 1850.64)"/><path d="M3.67606 9.9662C3.02254 12.7437 2.85915 13.3155-0.735213 13.3155-1.71549 13.3155-2.61408 13.3155-2.61408 14.8676-2.61408 15.5211-2.20563 15.8479-1.55211 15.8479 0.65352 15.8479 3.02254 15.6028 5.30986 15.6028 8.00564 15.6028 10.7831 15.8479 13.3972 15.8479 13.8056 15.8479 14.8676 15.8479 14.8676 14.2141 14.8676 13.3155 14.0507 13.3155 12.907 13.3155 8.82254 13.3155 8.82254 12.7437 8.82254 12.0085 8.82254 11.0282 12.2535-2.28733 12.8254-4.32958 13.8873-1.96056 16.1747 0.898591 20.3408 0.898591 29.8169 0.898591 40.0282-11.0282 40.0282-23.0366 40.0282-30.7155 35.3718-36.1071 29.1634-36.1071 25.0789-36.1071 21.1578-33.1662 18.462-29.9803 17.6451-34.3916 14.1324-36.1071 11.1099-36.1071 7.35212-36.1071 5.8-32.9211 5.06479-31.4507 3.59437-28.6732 2.5324-23.7718 2.5324-23.5268 2.5324-22.7099 3.34929-22.7099 3.51268-22.7099 4.32958-22.7099 4.41127-22.7916 4.90141-24.5887 6.29014-30.3887 7.92394-34.3099 10.8648-34.3099 12.2535-34.3099 13.3972-33.6563 13.3972-30.5521 13.3972-28.6732 13.1521-27.7747 12.8254-26.3859L3.67606 9.9662ZM18.0535-25.4873C18.6254-27.693 20.831-29.9803 22.3014-31.2056 25.1606-33.738 27.5296-34.3099 28.9183-34.3099 32.1859-34.3099 34.1465-31.4507 34.1465-26.631 34.1465-21.8113 31.4507-12.4169 29.9803-9.31268 27.2028-3.59437 23.2817-0.898591 20.2592-0.898591 14.8676-0.898591 13.8056-7.67887 13.8056-8.16902 13.8056-8.33239 13.8056-8.49578 14.0507-9.47606L18.0535-25.4873Z" fill="#FFFFFF" transform="matrix(1 0 0 1.00105 1209.02 1850.64)"/><path d="M23.6085-20.4225C23.6085-26.7944 22.7099-36.6789 18.2169-45.9099 13.3155-55.9578 6.29014-61.2676 5.47324-61.2676 4.9831-61.2676 4.65634-60.9409 4.65634-60.4507 4.65634-60.2057 4.65634-60.0423 6.20846-58.5718 14.2141-50.4845 18.8704-37.4958 18.8704-20.4225 18.8704-6.45353 15.8479 7.92394 5.71831 18.2169 4.65634 19.1972 4.65634 19.3606 4.65634 19.6056 4.65634 20.0958 4.9831 20.4225 5.47324 20.4225 6.29014 20.4225 13.6423 14.8676 18.462 4.49296 22.6282-4.49296 23.6085-13.5606 23.6085-20.4225Z" fill="#FFFFFF" transform="matrix(1 0 0 1.00105 1250.12 1850.64)"/><path d="M56.1211-26.7127C57.3465-26.7127 58.8986-26.7127 58.8986-28.3465 58.8986-29.9803 57.3465-29.9803 56.2028-29.9803L7.27042-29.9803C6.12676-29.9803 4.57465-29.9803 4.57465-28.3465 4.57465-26.7127 6.12676-26.7127 7.35212-26.7127L56.1211-26.7127ZM56.2028-10.8648C57.3465-10.8648 58.8986-10.8648 58.8986-12.4986 58.8986-14.1324 57.3465-14.1324 56.1211-14.1324L7.35212-14.1324C6.12676-14.1324 4.57465-14.1324 4.57465-12.4986 4.57465-10.8648 6.12676-10.8648 7.27042-10.8648L56.2028-10.8648Z" fill="#FFFFFF" transform="matrix(1 0 0 1.00105 1304.58 1850.64)"/><path d="M24.0169-52.2817C24.0169-54.2423 24.0169-54.4056 22.138-54.4056 17.0732-49.1775 9.88451-49.1775 7.27042-49.1775L7.27042-46.6451C8.90423-46.6451 13.724-46.6451 17.9718-48.769L17.9718-6.45353C17.9718-3.51268 17.7268-2.5324 10.3746-2.5324L7.76057-2.5324 7.76057 0C10.6197-0.245071 17.7268-0.245071 20.9944-0.245071 24.262-0.245071 31.369-0.245071 34.2282 0L34.2282-2.5324 31.6141-2.5324C24.262-2.5324 24.0169-3.43099 24.0169-6.45353L24.0169-52.2817Z" fill="#FFFFFF" transform="matrix(1 0 0 1.00105 1400.61 1795.32)"/><path d="M1374.74 919.094 1415.59 919.094 1415.59 922.361 1374.74 922.361Z" fill="#FFFFFF" transform="matrix(1 0 0 1.00105 25.8658 908.501)"/><path d="M10.3746-6.29014 19.0338-14.7042C31.7775-25.9775 36.6789-30.3887 36.6789-38.5578 36.6789-47.8704 29.3268-54.4056 19.3606-54.4056 10.1296-54.4056 4.08451-46.8901 4.08451-39.6197 4.08451-35.0451 8.16902-35.0451 8.41409-35.0451 9.80282-35.0451 12.662-36.0254 12.662-39.3747 12.662-41.4986 11.1916-43.6225 8.33239-43.6225 7.67887-43.6225 7.5155-43.6225 7.27042-43.5409 9.1493-48.8507 13.5606-51.8732 18.2986-51.8732 25.7324-51.8732 29.2451-45.2564 29.2451-38.5578 29.2451-32.0225 25.1606-25.569 20.6676-20.5042L4.9831-3.02254C4.08451-2.12395 4.08451-1.96056 4.08451 0L34.3916 0 36.6789-14.2141 34.6366-14.2141C34.2282-11.7634 33.6563-8.16902 32.8394-6.94366 32.2676-6.29014 26.8761-6.29014 25.0789-6.29014L10.3746-6.29014Z" fill="#FFFFFF" transform="matrix(1 0 0 1.00105 1400.61 1906.73)"/><path d="M3.67606 9.9662C3.02254 12.7437 2.85915 13.3155-0.735213 13.3155-1.71549 13.3155-2.61408 13.3155-2.61408 14.8676-2.61408 15.5211-2.20563 15.8479-1.55211 15.8479 0.65352 15.8479 3.02254 15.6028 5.30986 15.6028 8.00564 15.6028 10.7831 15.8479 13.3972 15.8479 13.8056 15.8479 14.8676 15.8479 14.8676 14.2141 14.8676 13.3155 14.0507 13.3155 12.907 13.3155 8.82254 13.3155 8.82254 12.7437 8.82254 12.0085 8.82254 11.0282 12.2535-2.28733 12.8254-4.32958 13.8873-1.96056 16.1747 0.898591 20.3408 0.898591 29.8169 0.898591 40.0282-11.0282 40.0282-23.0366 40.0282-30.7155 35.3718-36.1071 29.1634-36.1071 25.0789-36.1071 21.1578-33.1662 18.462-29.9803 17.6451-34.3916 14.1324-36.1071 11.1099-36.1071 7.35212-36.1071 5.8-32.9211 5.06479-31.4507 3.59437-28.6732 2.5324-23.7718 2.5324-23.5268 2.5324-22.7099 3.34929-22.7099 3.51268-22.7099 4.32958-22.7099 4.41127-22.7916 4.90141-24.5887 6.29014-30.3887 7.92394-34.3099 10.8648-34.3099 12.2535-34.3099 13.3972-33.6563 13.3972-30.5521 13.3972-28.6732 13.1521-27.7747 12.8254-26.3859L3.67606 9.9662ZM18.0535-25.4873C18.6254-27.693 20.831-29.9803 22.3014-31.2056 25.1606-33.738 27.5296-34.3099 28.9183-34.3099 32.1859-34.3099 34.1465-31.4507 34.1465-26.631 34.1465-21.8113 31.4507-12.4169 29.9803-9.31268 27.2028-3.59437 23.2817-0.898591 20.2592-0.898591 14.8676-0.898591 13.8056-7.67887 13.8056-8.16902 13.8056-8.33239 13.8056-8.49578 14.0507-9.47606L18.0535-25.4873Z" fill="#FFFFFF" transform="matrix(1 0 0 1.00105 1464.87 1850.64)"/><path d="M26.9332-36.8831 44.3741-36.8831C45.289-36.8831 46.6614-36.8831 46.6614-38.2555 46.6614-39.6851 45.3462-39.6851 44.3741-39.6851L6.69042-39.6851C5.83268-39.6851 4.4031-39.6851 4.4031-38.3127 4.4031-36.8831 5.71831-36.8831 6.69042-36.8831L24.1313-36.8831 24.1313-2.23014C24.1313-1.31522 24.1313 0 25.5609 0 26.9332 0 26.9332-1.37239 26.9332-2.23014L26.9332-36.8831Z" fill="#FFFFFF" transform="matrix(1 0 0 1.00105 1505.97 1816.87)"/><path d="M75.6451-49.5042C76.3803-52.4451 76.5437-53.262 82.6704-53.262 84.5493-53.262 85.2845-53.262 85.2845-54.8958 85.2845-55.7944 84.4676-55.7944 83.0789-55.7944L72.2958-55.7944C70.1719-55.7944 70.0902-55.7944 69.1099-54.2423L39.293-7.67887 32.9211-53.9155C32.6761-55.7944 32.5127-55.7944 30.3887-55.7944L19.1972-55.7944C17.6451-55.7944 16.7465-55.7944 16.7465-54.2423 16.7465-53.262 17.4817-53.262 19.1155-53.262 20.1775-53.262 21.6479-53.1803 22.6282-53.0986 23.9352-52.9352 24.4254-52.6902 24.4254-51.7916 24.4254-51.4648 24.3437-51.2197 24.0986-50.2395L13.724-8.65916C12.907-5.39155 11.5183-2.77747 4.90141-2.5324 4.49296-2.5324 3.43099-2.4507 3.43099-0.980285 3.43099-0.245071 3.92113 0 4.57465 0 7.18873 0 10.0479-0.245071 12.7437-0.245071 15.5211-0.245071 18.462 0 21.1578 0 21.5662 0 22.6282 0 22.6282-1.6338 22.6282-2.5324 21.7296-2.5324 21.1578-2.5324 16.5014-2.61408 15.6028-4.24789 15.6028-6.12676 15.6028-6.69859 15.6845-7.10705 15.9296-8.00564L27.0394-52.5268 27.1211-52.5268 34.1465-1.87888C34.3099-0.898591 34.3916 0 35.3718 0 36.2704 0 36.7606-0.898591 37.169-1.47043L70.1719-53.1803 70.2535-53.1803 58.5718-6.37183C57.7549-3.18592 57.5916-2.5324 51.138-2.5324 49.7493-2.5324 48.8507-2.5324 48.8507-0.980285 48.8507 0 49.831 0 50.0761 0 52.3634 0 57.9183-0.245071 60.2057-0.245071 63.5549-0.245071 67.0676 0 70.4169 0 70.9071 0 71.969 0 71.969-1.6338 71.969-2.5324 71.2338-2.5324 69.6817-2.5324 66.6592-2.5324 64.3718-2.5324 64.3718-4.00281 64.3718-4.32958 64.3718-4.49296 64.7803-5.96338L75.6451-49.5042Z" fill="#FFFFFF" transform="matrix(1 0 0 1.00105 1561.11 1850.64)"/><path d="M27.0394 19.6056C27.0394 19.3606 27.0394 19.1972 25.6507 17.8085 15.4394 7.5155 12.8254-7.92394 12.8254-20.4225 12.8254-34.6366 15.9296-48.8507 25.9775-59.062 27.0394-60.0423 27.0394-60.2057 27.0394-60.4507 27.0394-61.0225 26.7127-61.2676 26.2225-61.2676 25.4056-61.2676 18.0535-55.7127 13.2338-45.338 9.06761-36.3521 8.08732-27.2845 8.08732-20.4225 8.08732-14.0507 8.98591-4.1662 13.4789 5.06479 18.3803 15.1127 25.4056 20.4225 26.2225 20.4225 26.7127 20.4225 27.0394 20.1775 27.0394 19.6056Z" fill="#FFFFFF" transform="matrix(1 0 0 1.00105 1649.27 1850.64)"/><path d="M36.9239-35.2085C36.9239-35.5352 36.6789-36.0254 36.1071-36.0254 35.2085-36.0254 31.9408-32.7578 30.5521-30.3887 28.7549-34.8 25.569-36.1071 22.9549-36.1071 13.3155-36.1071 3.26761-24.0169 3.26761-12.1718 3.26761-4.1662 8.08732 0.898591 14.0507 0.898591 17.5634 0.898591 20.7493-1.06197 23.6902-4.00281 22.9549-1.14366 20.2592 9.88451 20.0141 10.6197 19.3606 12.907 18.7071 13.2338 14.1324 13.3155 13.0704 13.3155 12.2535 13.3155 12.2535 14.9493 12.2535 15.031 12.2535 15.8479 13.3155 15.8479 15.9296 15.8479 18.7887 15.6028 21.4845 15.6028 24.262 15.6028 27.2028 15.8479 29.8986 15.8479 30.307 15.8479 31.369 15.8479 31.369 14.2141 31.369 13.3155 30.5521 13.3155 29.2451 13.3155 25.3239 13.3155 25.3239 12.7437 25.3239 12.0085 25.3239 11.4366 25.4873 10.9465 25.6507 10.2113L36.9239-35.2085ZM14.2958-0.898591C9.39437-0.898591 9.06761-7.18873 9.06761-8.57747 9.06761-12.4986 11.4366-21.4028 12.8254-24.8338 15.3577-30.8789 19.6056-34.3099 22.9549-34.3099 28.2648-34.3099 29.4085-27.693 29.4085-27.1211 29.4085-26.631 24.9155-8.74084 24.6704-8.41409 23.4451-6.12676 18.8704-0.898591 14.2958-0.898591Z" fill="#FFFFFF" transform="matrix(1 0 0 1.00105 1681.04 1850.64)"/><path d="M23.6085-20.4225C23.6085-26.7944 22.7099-36.6789 18.2169-45.9099 13.3155-55.9578 6.29014-61.2676 5.47324-61.2676 4.9831-61.2676 4.65634-60.9409 4.65634-60.4507 4.65634-60.2057 4.65634-60.0423 6.20846-58.5718 14.2141-50.4845 18.8704-37.4958 18.8704-20.4225 18.8704-6.45353 15.8479 7.92394 5.71831 18.2169 4.65634 19.1972 4.65634 19.3606 4.65634 19.6056 4.65634 20.0958 4.9831 20.4225 5.47324 20.4225 6.29014 20.4225 13.6423 14.8676 18.462 4.49296 22.6282-4.49296 23.6085-13.5606 23.6085-20.4225Z" fill="#FFFFFF" transform="matrix(1 0 0 1.00105 1720.43 1850.64)"/><path d="M42.5442-12.9234C43.4592-12.9234 44.8316-12.9234 44.8316-14.2958 44.8316-15.7254 43.5163-15.7254 42.5442-15.7254L8.4631-15.7254C7.54817-15.7254 6.17578-15.7254 6.17578-14.353 6.17578-12.9234 7.49099-12.9234 8.4631-12.9234L42.5442-12.9234Z" fill="#FFFFFF" transform="matrix(1 0 0 1.00105 1752.2 1816.87)"/><path d="M19.1563-36.3685C19.1563-37.9124 19.042-37.9696 17.4409-37.9696 13.7811-34.3671 8.57747-34.3099 6.23296-34.3099L6.23296-32.2513C7.60536-32.2513 11.3794-32.2513 14.5245-33.8524L14.5245-4.68902C14.5245-2.80198 14.5245-2.0586 8.8062-2.0586L6.63324-2.0586 6.63324 0C7.66254-0.0571844 14.6961-0.228729 16.8118-0.228729 18.5845-0.228729 25.7896-0.0571844 27.0476 0L27.0476-2.0586 24.8747-2.0586C19.1563-2.0586 19.1563-2.80198 19.1563-4.68902L19.1563-36.3685Z" fill="#FFFFFF" transform="matrix(1 0 0 1.00105 1803.26 1816.87)"/><path d="M3.67606 9.9662C3.02254 12.7437 2.85915 13.3155-0.735213 13.3155-1.71549 13.3155-2.61408 13.3155-2.61408 14.8676-2.61408 15.5211-2.20563 15.8479-1.55211 15.8479 0.65352 15.8479 3.02254 15.6028 5.30986 15.6028 8.00564 15.6028 10.7831 15.8479 13.3972 15.8479 13.8056 15.8479 14.8676 15.8479 14.8676 14.2141 14.8676 13.3155 14.0507 13.3155 12.907 13.3155 8.82254 13.3155 8.82254 12.7437 8.82254 12.0085 8.82254 11.0282 12.2535-2.28733 12.8254-4.32958 13.8873-1.96056 16.1747 0.898591 20.3408 0.898591 29.8169 0.898591 40.0282-11.0282 40.0282-23.0366 40.0282-30.7155 35.3718-36.1071 29.1634-36.1071 25.0789-36.1071 21.1578-33.1662 18.462-29.9803 17.6451-34.3916 14.1324-36.1071 11.1099-36.1071 7.35212-36.1071 5.8-32.9211 5.06479-31.4507 3.59437-28.6732 2.5324-23.7718 2.5324-23.5268 2.5324-22.7099 3.34929-22.7099 3.51268-22.7099 4.32958-22.7099 4.41127-22.7916 4.90141-24.5887 6.29014-30.3887 7.92394-34.3099 10.8648-34.3099 12.2535-34.3099 13.3972-33.6563 13.3972-30.5521 13.3972-28.6732 13.1521-27.7747 12.8254-26.3859L3.67606 9.9662ZM18.0535-25.4873C18.6254-27.693 20.831-29.9803 22.3014-31.2056 25.1606-33.738 27.5296-34.3099 28.9183-34.3099 32.1859-34.3099 34.1465-31.4507 34.1465-26.631 34.1465-21.8113 31.4507-12.4169 29.9803-9.31268 27.2028-3.59437 23.2817-0.898591 20.2592-0.898591 14.8676-0.898591 13.8056-7.67887 13.8056-8.16902 13.8056-8.33239 13.8056-8.49578 14.0507-9.47606L18.0535-25.4873Z" fill="#FFFFFF" transform="matrix(1 0 0 1.00105 1839.91 1850.64)"/><path d="M33.4113-18.7887 56.2028-18.7887C57.3465-18.7887 58.8986-18.7887 58.8986-20.4225 58.8986-22.0563 57.3465-22.0563 56.2028-22.0563L33.4113-22.0563 33.4113-44.9296C33.4113-46.0732 33.4113-47.6254 31.7775-47.6254 30.1437-47.6254 30.1437-46.0732 30.1437-44.9296L30.1437-22.0563 7.27042-22.0563C6.12676-22.0563 4.57465-22.0563 4.57465-20.4225 4.57465-18.7887 6.12676-18.7887 7.27042-18.7887L30.1437-18.7887 30.1437 4.08451C30.1437 5.22817 30.1437 6.78028 31.7775 6.78028 33.4113 6.78028 33.4113 5.22817 33.4113 4.08451L33.4113-18.7887Z" fill="#FFFFFF" transform="matrix(1 0 0 1.00105 1899.16 1850.64)"/><path d="M51.3014-46.4817C55.3042-52.8535 58.7352-53.0986 61.7578-53.262 62.738-53.3437 62.8197-54.7324 62.8197-54.8141 62.8197-55.4676 62.4113-55.7944 61.7578-55.7944 59.6338-55.7944 57.2648-55.5493 55.0592-55.5493 52.3634-55.5493 49.5859-55.7944 46.9718-55.7944 46.4817-55.7944 45.4197-55.7944 45.4197-54.2423 45.4197-53.3437 46.1549-53.262 46.7268-53.262 48.9324-53.0986 50.4845-52.2817 50.4845-50.5662 50.4845-49.3409 49.2592-47.5437 49.2592-47.462L24.1803-7.59719 18.6254-50.8113C18.6254-52.2 20.5042-53.262 24.262-53.262 25.4056-53.262 26.3042-53.262 26.3042-54.8958 26.3042-55.631 25.6507-55.7944 25.1606-55.7944 21.893-55.7944 18.3803-55.5493 15.031-55.5493 13.5606-55.5493 12.0085-55.631 10.538-55.631 9.06762-55.631 7.5155-55.7944 6.12676-55.7944 5.55493-55.7944 4.57465-55.7944 4.57465-54.2423 4.57465-53.262 5.30986-53.262 6.6169-53.262 11.1916-53.262 11.2732-52.5268 11.5183-50.4845L17.9718-0.0816931C18.2169 1.55211 18.5437 1.79718 19.6056 1.79718 20.9127 1.79718 21.2394 1.38873 21.893 0.326764L51.3014-46.4817Z" fill="#FFFFFF" transform="matrix(1 0 0 1.00105 1980.85 1850.64)"/><path d="M27.0394 19.6056C27.0394 19.3606 27.0394 19.1972 25.6507 17.8085 15.4394 7.5155 12.8254-7.92394 12.8254-20.4225 12.8254-34.6366 15.9296-48.8507 25.9775-59.062 27.0394-60.0423 27.0394-60.2057 27.0394-60.4507 27.0394-61.0225 26.7127-61.2676 26.2225-61.2676 25.4056-61.2676 18.0535-55.7127 13.2338-45.338 9.06761-36.3521 8.08732-27.2845 8.08732-20.4225 8.08732-14.0507 8.98591-4.1662 13.4789 5.06479 18.3803 15.1127 25.4056 20.4225 26.2225 20.4225 26.7127 20.4225 27.0394 20.1775 27.0394 19.6056Z" fill="#FFFFFF" transform="matrix(1 0 0 1.00105 2046.66 1850.64)"/><path d="M36.9239-35.2085C36.9239-35.5352 36.6789-36.0254 36.1071-36.0254 35.2085-36.0254 31.9408-32.7578 30.5521-30.3887 28.7549-34.8 25.569-36.1071 22.9549-36.1071 13.3155-36.1071 3.26761-24.0169 3.26761-12.1718 3.26761-4.1662 8.08732 0.898591 14.0507 0.898591 17.5634 0.898591 20.7493-1.06197 23.6902-4.00281 22.9549-1.14366 20.2592 9.88451 20.0141 10.6197 19.3606 12.907 18.7071 13.2338 14.1324 13.3155 13.0704 13.3155 12.2535 13.3155 12.2535 14.9493 12.2535 15.031 12.2535 15.8479 13.3155 15.8479 15.9296 15.8479 18.7887 15.6028 21.4845 15.6028 24.262 15.6028 27.2028 15.8479 29.8986 15.8479 30.307 15.8479 31.369 15.8479 31.369 14.2141 31.369 13.3155 30.5521 13.3155 29.2451 13.3155 25.3239 13.3155 25.3239 12.7437 25.3239 12.0085 25.3239 11.4366 25.4873 10.9465 25.6507 10.2113L36.9239-35.2085ZM14.2958-0.898591C9.39437-0.898591 9.06761-7.18873 9.06761-8.57747 9.06761-12.4986 11.4366-21.4028 12.8254-24.8338 15.3577-30.8789 19.6056-34.3099 22.9549-34.3099 28.2648-34.3099 29.4085-27.693 29.4085-27.1211 29.4085-26.631 24.9155-8.74084 24.6704-8.41409 23.4451-6.12676 18.8704-0.898591 14.2958-0.898591Z" fill="#FFFFFF" transform="matrix(1 0 0 1.00105 2078.43 1850.64)"/><path d="M23.6085-20.4225C23.6085-26.7944 22.7099-36.6789 18.2169-45.9099 13.3155-55.9578 6.29014-61.2676 5.47324-61.2676 4.9831-61.2676 4.65634-60.9409 4.65634-60.4507 4.65634-60.2057 4.65634-60.0423 6.20846-58.5718 14.2141-50.4845 18.8704-37.4958 18.8704-20.4225 18.8704-6.45353 15.8479 7.92394 5.71831 18.2169 4.65634 19.1972 4.65634 19.3606 4.65634 19.6056 4.65634 20.0958 4.9831 20.4225 5.47324 20.4225 6.29014 20.4225 13.6423 14.8676 18.462 4.49296 22.6282-4.49296 23.6085-13.5606 23.6085-20.4225Z" fill="#FFFFFF" transform="matrix(1 0 0 1.00105 2117.82 1850.64)"/><path d="M39.7014-31.124C40.0282-32.2676 40.0282-32.431 40.0282-33.0028 40.0282-34.4732 38.8845-35.2085 37.6592-35.2085 36.8423-35.2085 35.5352-34.7183 34.8-33.493 34.6366-33.0845 33.9831-30.5521 33.6563-29.0817 33.0845-26.9578 32.5127-24.7521 32.0225-22.5465L28.3465-7.84225C28.0197-6.6169 24.507-0.898591 19.1155-0.898591 14.9493-0.898591 14.0507-4.49296 14.0507-7.5155 14.0507-11.2732 15.4394-16.338 18.2169-23.5268 19.5239-26.8761 19.8507-27.7747 19.8507-29.4085 19.8507-33.0845 17.2366-36.1071 13.1521-36.1071 5.39155-36.1071 2.36902-24.262 2.36902-23.5268 2.36902-22.7099 3.18592-22.7099 3.34929-22.7099 4.1662-22.7099 4.24789-22.8732 4.65634-24.1803 6.86198-31.8592 10.1296-34.3099 12.907-34.3099 13.5606-34.3099 14.9493-34.3099 14.9493-31.6958 14.9493-29.6535 14.1324-27.5296 13.5606-25.9775 10.293-17.3183 8.82254-12.662 8.82254-8.82254 8.82254-1.55211 13.969 0.898591 18.7887 0.898591 21.9747 0.898591 24.7521-0.490142 27.0394-2.77747 25.9775 1.47043 24.9972 5.47324 21.7296 9.80282 19.6056 12.5803 16.5014 14.9493 12.7437 14.9493 11.6 14.9493 7.92394 14.7042 6.53521 11.5183 7.84225 11.5183 8.90423 11.5183 10.0479 10.538 10.8648 9.80282 11.6817 8.74084 11.6817 7.18873 11.6817 4.65634 9.47606 4.32958 8.65916 4.32958 6.78028 4.32958 4.08451 5.63662 4.08451 9.63944 4.08451 13.724 7.67887 16.7465 12.7437 16.7465 21.1578 16.7465 29.5718 9.31268 31.8592 0.0816931L39.7014-31.124Z" fill="#FFFFFF" transform="matrix(1 0 0 1.00105 1238.9 2012.96)"/><path d="M56.1211-26.7127C57.3465-26.7127 58.8986-26.7127 58.8986-28.3465 58.8986-29.9803 57.3465-29.9803 56.2028-29.9803L7.27042-29.9803C6.12676-29.9803 4.57465-29.9803 4.57465-28.3465 4.57465-26.7127 6.12676-26.7127 7.35212-26.7127L56.1211-26.7127ZM56.2028-10.8648C57.3465-10.8648 58.8986-10.8648 58.8986-12.4986 58.8986-14.1324 57.3465-14.1324 56.1211-14.1324L7.35212-14.1324C6.12676-14.1324 4.57465-14.1324 4.57465-12.4986 4.57465-10.8648 6.12676-10.8648 7.27042-10.8648L56.2028-10.8648Z" fill="#FFFFFF" transform="matrix(1 0 0 1.00105 1304.58 2012.96)"/><path d="M62.0845-56.7747C62.0845-57.0197 61.9211-57.5916 61.1859-57.5916 60.9409-57.5916 60.8592-57.5099 59.9606-56.6113L54.2423-50.3211C53.5071-51.4648 49.7493-57.5916 40.6817-57.5916 22.4648-57.5916 4.08451-39.538 4.08451-20.5859 4.08451-7.59719 13.1521 1.79718 26.3859 1.79718 29.9803 1.79718 33.6563 1.06197 36.5972-0.163378 40.6817-1.79718 42.2338-3.51268 43.7042-5.14648 44.4394-3.10422 46.5634-0.0816931 47.3803-0.0816931 47.7887-0.0816931 47.9521-0.326764 47.9521-0.408449 48.1155-0.571827 48.9324-3.67606 49.3409-5.39155L50.893-11.6817C51.2197-13.0704 51.6282-14.4592 51.9549-15.8479 52.8535-19.5239 52.9352-19.6873 57.5916-19.769 58-19.769 58.8986-19.8507 58.8986-21.4028 58.8986-21.9747 58.4902-22.3014 57.8366-22.3014 55.9578-22.3014 51.138-22.0563 49.2592-22.0563 46.7268-22.0563 40.3549-22.3014 37.8225-22.3014 37.0873-22.3014 36.1071-22.3014 36.1071-20.6676 36.1071-19.769 36.7606-19.769 38.5578-19.769 38.6394-19.769 41.0085-19.769 42.8873-19.6056 45.0113-19.3606 45.4197-19.1155 45.4197-18.0535 45.4197-17.3183 44.5211-13.6423 43.7042-10.6197 41.4169-1.6338 30.7972-0.735213 27.938-0.735213 20.0958-0.735213 11.5183-5.39155 11.5183-17.8901 11.5183-20.4225 12.3352-33.9014 20.9127-44.5211 25.3239-50.0761 33.2479-55.0592 41.3352-55.0592 49.6676-55.0592 54.4873-48.769 54.4873-39.293 54.4873-36.0254 54.2423-35.9437 54.2423-35.1268 54.2423-34.3099 55.1409-34.3099 55.4676-34.3099 56.5296-34.3099 56.5296-34.4732 56.938-35.9437L62.0845-56.7747Z" fill="#FFFFFF" transform="matrix(1 0 0 1.00105 1390.8 2012.96)"/><path d="M27.0394 19.6056C27.0394 19.3606 27.0394 19.1972 25.6507 17.8085 15.4394 7.5155 12.8254-7.92394 12.8254-20.4225 12.8254-34.6366 15.9296-48.8507 25.9775-59.062 27.0394-60.0423 27.0394-60.2057 27.0394-60.4507 27.0394-61.0225 26.7127-61.2676 26.2225-61.2676 25.4056-61.2676 18.0535-55.7127 13.2338-45.338 9.06761-36.3521 8.08732-27.2845 8.08732-20.4225 8.08732-14.0507 8.98591-4.1662 13.4789 5.06479 18.3803 15.1127 25.4056 20.4225 26.2225 20.4225 26.7127 20.4225 27.0394 20.1775 27.0394 19.6056Z" fill="#FFFFFF" transform="matrix(1 0 0 1.00105 1455.03 2012.96)"/><path d="M36.9239-35.2085C36.9239-35.5352 36.6789-36.0254 36.1071-36.0254 35.2085-36.0254 31.9408-32.7578 30.5521-30.3887 28.7549-34.8 25.569-36.1071 22.9549-36.1071 13.3155-36.1071 3.26761-24.0169 3.26761-12.1718 3.26761-4.1662 8.08732 0.898591 14.0507 0.898591 17.5634 0.898591 20.7493-1.06197 23.6902-4.00281 22.9549-1.14366 20.2592 9.88451 20.0141 10.6197 19.3606 12.907 18.7071 13.2338 14.1324 13.3155 13.0704 13.3155 12.2535 13.3155 12.2535 14.9493 12.2535 15.031 12.2535 15.8479 13.3155 15.8479 15.9296 15.8479 18.7887 15.6028 21.4845 15.6028 24.262 15.6028 27.2028 15.8479 29.8986 15.8479 30.307 15.8479 31.369 15.8479 31.369 14.2141 31.369 13.3155 30.5521 13.3155 29.2451 13.3155 25.3239 13.3155 25.3239 12.7437 25.3239 12.0085 25.3239 11.4366 25.4873 10.9465 25.6507 10.2113L36.9239-35.2085ZM14.2958-0.898591C9.39437-0.898591 9.06761-7.18873 9.06761-8.57747 9.06761-12.4986 11.4366-21.4028 12.8254-24.8338 15.3577-30.8789 19.6056-34.3099 22.9549-34.3099 28.2648-34.3099 29.4085-27.693 29.4085-27.1211 29.4085-26.631 24.9155-8.74084 24.6704-8.41409 23.4451-6.12676 18.8704-0.898591 14.2958-0.898591Z" fill="#FFFFFF" transform="matrix(1 0 0 1.00105 1486.8 2012.96)"/><path d="M23.6085-20.4225C23.6085-26.7944 22.7099-36.6789 18.2169-45.9099 13.3155-55.9578 6.29014-61.2676 5.47324-61.2676 4.9831-61.2676 4.65634-60.9409 4.65634-60.4507 4.65634-60.2057 4.65634-60.0423 6.20846-58.5718 14.2141-50.4845 18.8704-37.4958 18.8704-20.4225 18.8704-6.45353 15.8479 7.92394 5.71831 18.2169 4.65634 19.1972 4.65634 19.3606 4.65634 19.6056 4.65634 20.0958 4.9831 20.4225 5.47324 20.4225 6.29014 20.4225 13.6423 14.8676 18.462 4.49296 22.6282-4.49296 23.6085-13.5606 23.6085-20.4225Z" fill="#FFFFFF" transform="matrix(1 0 0 1.00105 1526.2 2012.96)"/><path d="M26.9332-36.8831 44.3741-36.8831C45.289-36.8831 46.6614-36.8831 46.6614-38.2555 46.6614-39.6851 45.3462-39.6851 44.3741-39.6851L6.69042-39.6851C5.83268-39.6851 4.4031-39.6851 4.4031-38.3127 4.4031-36.8831 5.71831-36.8831 6.69042-36.8831L24.1313-36.8831 24.1313-2.23014C24.1313-1.31522 24.1313 0 25.5609 0 26.9332 0 26.9332-1.37239 26.9332-2.23014L26.9332-36.8831Z" fill="#FFFFFF" transform="matrix(1 0 0 1.00105 1557.97 1979.2)"/><path d="M63.7183-53.9972C63.8817-54.2423 64.1268-54.8141 64.1268-55.1409 64.1268-55.7127 64.0451-55.7944 62.1662-55.7944L5.8-55.7944C3.92113-55.7944 3.83944-55.7127 3.83944-55.1409 3.83944-54.8141 4.08451-54.2423 4.24789-53.9972L31.7775 1.14366C32.3493 2.20563 32.5944 2.69577 33.9831 2.69577 35.3718 2.69577 35.6169 2.20563 36.1887 1.14366L63.7183-53.9972ZM13.969-49.9127 58.8169-49.9127 36.4338-4.9831 13.969-49.9127Z" fill="#FFFFFF" transform="matrix(1 0 0 1.00105 1613.11 2012.96)"/><path d="M4.28874 6.97634C3.88845 8.57747 3.77409 9.03493 1.48676 9.03493 0.74338 9.03493-0.0571844 9.03493-0.0571844 10.2358-0.0571844 10.8648 0.457467 11.0935 0.74338 11.0935 2.23014 11.0935 4.11718 10.8648 5.66113 10.8648 7.60536 10.8648 9.77831 11.0935 11.6654 11.0935 12.18 11.0935 12.809 10.922 12.809 9.8355 12.809 9.03493 12.0085 9.03493 11.3223 9.03493 10.0642 9.03493 8.52028 9.03493 8.52028 8.34874 8.52028 8.06282 8.92056 6.57606 9.1493 5.71831 9.8355 2.68761 10.6361-0.400282 11.2651-2.80198 11.9513-1.65831 13.724 0.571827 17.1549 0.571827 24.1313 0.571827 31.851-7.14789 31.851-15.6682 31.851-22.3586 27.2192-25.2178 23.2735-25.2178 19.7282-25.2178 16.6975-22.8161 15.1535-21.2149 14.1814-24.4744 10.9792-25.2178 9.26366-25.2178 7.03352-25.2178 5.66113-23.731 4.74619-22.187 3.60253-20.2428 2.68761-16.8118 2.68761-16.4687 2.68761-15.7254 3.48817-15.7254 3.65972-15.7254 4.46028-15.7254 4.51747-15.8969 4.91775-17.4409 5.7755-20.7575 6.86198-23.6166 9.09212-23.6166 10.5789-23.6166 10.9792-22.3586 10.9792-20.8147 10.9792-20.1856 10.8648-19.4423 10.8076-19.0992L4.28874 6.97634ZM15.0963-18.3558C18.413-22.7589 21.2721-23.6166 23.102-23.6166 25.3321-23.6166 27.2763-21.9583 27.2763-18.0699 27.2763-15.7254 26.0183-9.89268 24.3028-6.57606 22.8732-3.77409 20.0713-1.02929 17.1549-1.02929 13.0949-1.02929 12.0656-5.4324 12.0656-6.00423 12.0656-6.23296 12.18-6.63324 12.2372-6.86198L15.0963-18.3558Z" fill="#FFFFFF" transform="matrix(1 0 0 1.00105 1681.18 2025.23)"/><path d="M62.3296-49.5042C63.0648-52.4451 63.2282-53.262 69.1916-53.262 71.3155-53.262 71.969-53.262 71.969-54.8958 71.969-55.7944 71.0704-55.7944 70.8254-55.7944 68.538-55.7944 62.6564-55.5493 60.369-55.5493 58-55.5493 52.2-55.7944 49.831-55.7944 49.1775-55.7944 48.2789-55.7944 48.2789-54.1606 48.2789-53.262 49.0141-53.262 50.5662-53.262 50.7296-53.262 52.2817-53.262 53.6704-53.0986 55.1409-52.9352 55.8761-52.8535 55.8761-51.7916 55.8761-51.4648 55.7944-51.3014 55.5493-50.2395L50.6479-30.307 25.7324-30.307 30.5521-49.5042C31.2873-52.4451 31.5324-53.262 37.4141-53.262 39.538-53.262 40.1916-53.262 40.1916-54.8958 40.1916-55.7944 39.293-55.7944 39.0479-55.7944 36.7606-55.7944 30.8789-55.5493 28.5916-55.5493 26.2225-55.5493 20.4225-55.7944 18.0535-55.7944 17.4-55.7944 16.5014-55.7944 16.5014-54.1606 16.5014-53.262 17.2366-53.262 18.7887-53.262 18.9521-53.262 20.5042-53.262 21.893-53.0986 23.3634-52.9352 24.0986-52.8535 24.0986-51.7916 24.0986-51.4648 24.0169-51.2197 23.7718-50.2395L12.8254-6.37183C12.0085-3.18592 11.8451-2.5324 5.39155-2.5324 3.92113-2.5324 3.18592-2.5324 3.18592-0.898591 3.18592 0 4.1662 0 4.32958 0 6.6169 0 12.4169-0.245071 14.7042-0.245071 16.4197-0.245071 18.2169-0.163378 19.9324-0.163378 21.7296-0.163378 23.5268 0 25.2423 0 25.8958 0 26.8761 0 26.8761-1.6338 26.8761-2.5324 26.1409-2.5324 24.5887-2.5324 21.5662-2.5324 19.2789-2.5324 19.2789-4.00281 19.2789-4.49296 19.4423-4.90141 19.5239-5.39155L25.0789-27.7747 49.9944-27.7747C46.5634-14.2141 44.6845-6.45353 44.3578-5.22817 43.5409-2.61408 41.9887-2.5324 36.9239-2.5324 35.6986-2.5324 34.9634-2.5324 34.9634-0.898591 34.9634 0 35.9437 0 36.1071 0 38.3944 0 44.1944-0.245071 46.4817-0.245071 48.1972-0.245071 49.9944-0.163378 51.7099-0.163378 53.5071-0.163378 55.3042 0 57.0197 0 57.6733 0 58.6535 0 58.6535-1.6338 58.6535-2.5324 57.9183-2.5324 56.3662-2.5324 53.3437-2.5324 51.0564-2.5324 51.0564-4.00281 51.0564-4.49296 51.2197-4.90141 51.3014-5.39155L62.3296-49.5042Z" fill="#FFFFFF" transform="matrix(1 0 0 1.00105 1718.94 2012.96)"/><path d="M27.0394 19.6056C27.0394 19.3606 27.0394 19.1972 25.6507 17.8085 15.4394 7.5155 12.8254-7.92394 12.8254-20.4225 12.8254-34.6366 15.9296-48.8507 25.9775-59.062 27.0394-60.0423 27.0394-60.2057 27.0394-60.4507 27.0394-61.0225 26.7127-61.2676 26.2225-61.2676 25.4056-61.2676 18.0535-55.7127 13.2338-45.338 9.06761-36.3521 8.08732-27.2845 8.08732-20.4225 8.08732-14.0507 8.98591-4.1662 13.4789 5.06479 18.3803 15.1127 25.4056 20.4225 26.2225 20.4225 26.7127 20.4225 27.0394 20.1775 27.0394 19.6056Z" fill="#FFFFFF" transform="matrix(1 0 0 1.00105 1793.49 2012.96)"/><path d="M36.9239-35.2085C36.9239-35.5352 36.6789-36.0254 36.1071-36.0254 35.2085-36.0254 31.9408-32.7578 30.5521-30.3887 28.7549-34.8 25.569-36.1071 22.9549-36.1071 13.3155-36.1071 3.26761-24.0169 3.26761-12.1718 3.26761-4.1662 8.08732 0.898591 14.0507 0.898591 17.5634 0.898591 20.7493-1.06197 23.6902-4.00281 22.9549-1.14366 20.2592 9.88451 20.0141 10.6197 19.3606 12.907 18.7071 13.2338 14.1324 13.3155 13.0704 13.3155 12.2535 13.3155 12.2535 14.9493 12.2535 15.031 12.2535 15.8479 13.3155 15.8479 15.9296 15.8479 18.7887 15.6028 21.4845 15.6028 24.262 15.6028 27.2028 15.8479 29.8986 15.8479 30.307 15.8479 31.369 15.8479 31.369 14.2141 31.369 13.3155 30.5521 13.3155 29.2451 13.3155 25.3239 13.3155 25.3239 12.7437 25.3239 12.0085 25.3239 11.4366 25.4873 10.9465 25.6507 10.2113L36.9239-35.2085ZM14.2958-0.898591C9.39437-0.898591 9.06761-7.18873 9.06761-8.57747 9.06761-12.4986 11.4366-21.4028 12.8254-24.8338 15.3577-30.8789 19.6056-34.3099 22.9549-34.3099 28.2648-34.3099 29.4085-27.693 29.4085-27.1211 29.4085-26.631 24.9155-8.74084 24.6704-8.41409 23.4451-6.12676 18.8704-0.898591 14.2958-0.898591Z" fill="#FFFFFF" transform="matrix(1 0 0 1.00105 1825.26 2012.96)"/><path d="M16.5831-0.0816931C16.5831-5.47324 14.5408-8.65916 11.3549-8.65916 8.65916-8.65916 7.02535-6.6169 7.02535-4.32958 7.02535-2.12395 8.65916 0 11.3549 0 12.3352 0 13.3972-0.326764 14.2141-1.06197 14.4592-1.22536 14.5408-1.30704 14.6225-1.30704 14.7042-1.30704 14.7859-1.22536 14.7859-0.0816931 14.7859 5.96338 11.9268 10.8648 9.23098 13.5606 8.33239 14.4592 8.33239 14.6225 8.33239 14.8676 8.33239 15.4394 8.74084 15.7662 9.1493 15.7662 10.0479 15.7662 16.5831 9.47606 16.5831-0.0816931Z" fill="#FFFFFF" transform="matrix(1 0 0 1.00105 1864.65 2012.96)"/><path d="M3.67606 9.9662C3.02254 12.7437 2.85915 13.3155-0.735213 13.3155-1.71549 13.3155-2.61408 13.3155-2.61408 14.8676-2.61408 15.5211-2.20563 15.8479-1.55211 15.8479 0.65352 15.8479 3.02254 15.6028 5.30986 15.6028 8.00564 15.6028 10.7831 15.8479 13.3972 15.8479 13.8056 15.8479 14.8676 15.8479 14.8676 14.2141 14.8676 13.3155 14.0507 13.3155 12.907 13.3155 8.82254 13.3155 8.82254 12.7437 8.82254 12.0085 8.82254 11.0282 12.2535-2.28733 12.8254-4.32958 13.8873-1.96056 16.1747 0.898591 20.3408 0.898591 29.8169 0.898591 40.0282-11.0282 40.0282-23.0366 40.0282-30.7155 35.3718-36.1071 29.1634-36.1071 25.0789-36.1071 21.1578-33.1662 18.462-29.9803 17.6451-34.3916 14.1324-36.1071 11.1099-36.1071 7.35212-36.1071 5.8-32.9211 5.06479-31.4507 3.59437-28.6732 2.5324-23.7718 2.5324-23.5268 2.5324-22.7099 3.34929-22.7099 3.51268-22.7099 4.32958-22.7099 4.41127-22.7916 4.90141-24.5887 6.29014-30.3887 7.92394-34.3099 10.8648-34.3099 12.2535-34.3099 13.3972-33.6563 13.3972-30.5521 13.3972-28.6732 13.1521-27.7747 12.8254-26.3859L3.67606 9.9662ZM18.0535-25.4873C18.6254-27.693 20.831-29.9803 22.3014-31.2056 25.1606-33.738 27.5296-34.3099 28.9183-34.3099 32.1859-34.3099 34.1465-31.4507 34.1465-26.631 34.1465-21.8113 31.4507-12.4169 29.9803-9.31268 27.2028-3.59437 23.2817-0.898591 20.2592-0.898591 14.8676-0.898591 13.8056-7.67887 13.8056-8.16902 13.8056-8.33239 13.8056-8.49578 14.0507-9.47606L18.0535-25.4873Z" fill="#FFFFFF" transform="matrix(1 0 0 1.00105 1900.96 2012.96)"/><path d="M23.6085-20.4225C23.6085-26.7944 22.7099-36.6789 18.2169-45.9099 13.3155-55.9578 6.29014-61.2676 5.47324-61.2676 4.9831-61.2676 4.65634-60.9409 4.65634-60.4507 4.65634-60.2057 4.65634-60.0423 6.20846-58.5718 14.2141-50.4845 18.8704-37.4958 18.8704-20.4225 18.8704-6.45353 15.8479 7.92394 5.71831 18.2169 4.65634 19.1972 4.65634 19.3606 4.65634 19.6056 4.65634 20.0958 4.9831 20.4225 5.47324 20.4225 6.29014 20.4225 13.6423 14.8676 18.462 4.49296 22.6282-4.49296 23.6085-13.5606 23.6085-20.4225Z" fill="#FFFFFF" transform="matrix(1 0 0 1.00105 1942.06 2012.96)"/></g></g></g><text fill="#FFFFFF" font-family="Century,Century_MSFontService,sans-serif" font-weight="400" font-size="83" transform="matrix(1 0 0 1 1194.08 1424)">Mechanical Port<tspan font-size="83" x="624.479" y="0">-</tspan>Hamiltonian Systems</text></g></svg>