<svg width="816" height="306" xmlns="http://www.w3.org/2000/svg" xmlns:xlink="http://www.w3.org/1999/xlink" xml:space="preserve" overflow="hidden"><defs><clipPath id="clip0"><rect x="0" y="142" width="816" height="306"/></clipPath><clipPath id="clip1"><rect x="0" y="142" width="816" height="306"/></clipPath><clipPath id="clip2"><rect x="0" y="143" width="816" height="304"/></clipPath><clipPath id="clip3"><rect x="0" y="143" width="816" height="304"/></clipPath></defs><g clip-path="url(#clip0)" transform="matrix(1 0 0 1 0 -142)"><g clip-path="url(#clip1)"><g clip-path="url(#clip2)"><g clip-path="url(#clip3)"><g><g><g><g><g><path d="M25.4753 85.4879C25.4753 85.3422 25.4026 85.2696 25.3298 85.1605 23.9832 83.8137 21.5449 81.3755 19.1065 77.4452 13.2472 68.0558 10.5905 56.2276 10.5905 42.2163 10.5905 32.4265 11.9006 19.798 17.9056 8.95278 20.7806 3.78491 23.7649 0.800652 25.3662-0.800652 25.4753-0.909832 25.4753-0.982619 25.4753-1.0918 25.4753-1.45574 25.2206-1.45574 24.7111-1.45574 24.2016-1.45574 24.1288-1.45574 23.5829-0.909832 11.3911 10.1901 7.56984 26.8583 7.56984 42.1799 7.56984 56.4824 10.8452 70.8941 20.0891 81.776 20.817 82.6131 22.2 84.1051 23.6921 85.4153 24.1288 85.8519 24.2016 85.8519 24.7111 85.8519 25.2206 85.8519 25.4753 85.8519 25.4753 85.4879Z" fill="#FFFFFF" fill-rule="nonzero" fill-opacity="1" transform="matrix(1.00144 0 0 1 41.7235 215.54)"/><path d="M6.98752-22.4183C6.98752-23.4009 6.15046-24.3472 5.05866-24.3472 3.8213-24.3472 3.09343-23.3281 3.09343-22.4183 3.09343-21.4357 3.93048-20.4895 5.02227-20.4895 6.25965-20.4895 6.98752-21.5085 6.98752-22.4183Z" fill="#FFFFFF" fill-rule="nonzero" fill-opacity="1" transform="matrix(1.00144 0 0 1 75.693 244.659)"/><path d="M16.4498-15.6856C16.4498-15.8311 16.3406-16.0495 16.0859-16.0495 15.6856-16.0495 14.2298-14.5938 13.6111-13.5383 12.8104-15.5036 11.3911-16.0859 10.2265-16.0859 5.93212-16.0859 1.45574-10.6996 1.45574-5.4226 1.45574-1.85606 3.60294 0.400327 6.25965 0.400327 7.82458 0.400327 9.24391-0.473113 10.5541-1.78327 10.2265-0.509506 9.02557 4.4036 8.91638 4.73113 8.62524 5.75013 8.3341 5.89572 6.29605 5.93212 5.82293 5.93212 5.45899 5.93212 5.45899 6.65999 5.45899 6.69638 5.45899 7.06032 5.93212 7.06032 7.09671 7.06032 8.37046 6.95112 9.57145 6.95112 10.8088 6.95112 12.119 7.06032 13.32 7.06032 13.5019 7.06032 13.975 7.06032 13.975 6.33245 13.975 5.93212 13.6111 5.93212 13.0288 5.93212 11.2819 5.93212 11.2819 5.67738 11.2819 5.34984 11.2819 5.09506 11.3547 4.87672 11.4275 4.54918L16.4498-15.6856ZM6.36885-0.400327C4.18524-0.400327 4.03966-3.20261 4.03966-3.8213 4.03966-5.56819 5.09506-9.53505 5.71378-11.0636 6.84193-13.7567 8.73439-15.2852 10.2265-15.2852 12.5921-15.2852 13.1016-12.3374 13.1016-12.0826 13.1016-11.8642 11.1-3.89409 10.9908-3.74852 10.4449-2.7295 8.40685-0.400327 6.36885-0.400327Z" fill="#FFFFFF" fill-rule="nonzero" fill-opacity="1" transform="matrix(1.00144 0 0 1 68.9295 244.659)"/><path d="M6.98752-22.4183C6.98752-23.4009 6.15046-24.3472 5.05866-24.3472 3.8213-24.3472 3.09343-23.3281 3.09343-22.4183 3.09343-21.4357 3.93048-20.4895 5.02227-20.4895 6.25965-20.4895 6.98752-21.5085 6.98752-22.4183Z" fill="#FFFFFF" fill-rule="nonzero" fill-opacity="1" transform="matrix(1.00144 0 0 1 75.693 288.331)"/><path d="M1.6377 4.43999C1.34656 5.67738 1.27377 5.93212-0.327541 5.93212-0.764259 5.93212-1.16459 5.93212-1.16459 6.62359-1.16459 6.91473-0.982619 7.06032-0.691473 7.06032 0.291146 7.06032 1.34656 6.95112 2.36557 6.95112 3.56655 6.95112 4.80392 7.06032 5.96852 7.06032 6.15046 7.06032 6.62359 7.06032 6.62359 6.33245 6.62359 5.93212 6.25965 5.93212 5.75013 5.93212 3.93048 5.93212 3.93048 5.67738 3.93048 5.34984 3.93048 4.91312 5.45899-1.01902 5.71378-1.92885 6.18686-0.873439 7.20591 0.400327 9.06192 0.400327 13.2836 0.400327 17.8328-4.91312 17.8328-10.2629 17.8328-13.6839 15.7583-16.0859 12.9924-16.0859 11.1728-16.0859 9.4259-14.7757 8.22491-13.3564 7.86098-15.3216 6.29605-16.0859 4.94951-16.0859 3.2754-16.0859 2.58393-14.6665 2.25639-14.0114 1.60131-12.774 1.1282-10.5905 1.1282-10.4813 1.1282-10.1174 1.49212-10.1174 1.56492-10.1174 1.92885-10.1174 1.96524-10.1538 2.1836-10.9544 2.80229-13.5383 3.53015-15.2852 4.84032-15.2852 5.45899-15.2852 5.96852-14.994 5.96852-13.6111 5.96852-12.774 5.85932-12.3738 5.71378-11.755L1.6377 4.43999ZM8.04292-11.3547C8.29771-12.3374 9.28031-13.3564 9.93538-13.9022 11.2092-15.0304 12.2646-15.2852 12.8832-15.2852 14.339-15.2852 15.2124-14.0114 15.2124-11.8642 15.2124-9.71704 14.0114-5.53179 13.3564-4.14884 12.119-1.60131 10.3721-0.400327 9.02557-0.400327 6.62359-0.400327 6.15046-3.42097 6.15046-3.63934 6.15046-3.71212 6.15046-3.78491 6.25965-4.22163L8.04292-11.3547Z" fill="#FFFFFF" fill-rule="nonzero" fill-opacity="1" transform="matrix(1.00144 0 0 1 68.5502 288.331)"/><path d="M19.1793 42.2163C19.1793 27.9137 15.9039 13.5019 6.65999 2.62032 5.93212 1.78327 4.54918 0.291146 3.05705-1.01902 2.62032-1.45574 2.54753-1.45574 2.03803-1.45574 1.60131-1.45574 1.27377-1.45574 1.27377-1.0918 1.27377-0.94623 1.41934-0.800652 1.49212-0.727866 2.7659 0.582293 5.20425 3.02065 7.64259 6.95112 13.5019 16.3406 16.1586 28.1685 16.1586 42.1799 16.1586 51.9699 14.8485 64.5982 8.84358 75.4436 5.96852 80.6114 2.94786 83.632 1.41934 85.1605 1.34656 85.2696 1.27377 85.3788 1.27377 85.4879 1.27377 85.8519 1.60131 85.8519 2.03803 85.8519 2.54753 85.8519 2.62032 85.8519 3.16623 85.3062 15.358 74.206 19.1793 57.5378 19.1793 42.2163Z" fill="#FFFFFF" fill-rule="nonzero" fill-opacity="1" transform="matrix(1.00144 0 0 1 86.8868 215.54)"/><path d="M25.0022-11.9006C25.5481-11.9006 26.2396-11.9006 26.2396-12.6285 26.2396-13.3564 25.5481-13.3564 25.0386-13.3564L3.23901-13.3564C2.7295-13.3564 2.03803-13.3564 2.03803-12.6285 2.03803-11.9006 2.7295-11.9006 3.2754-11.9006L25.0022-11.9006ZM25.0386-4.84032C25.5481-4.84032 26.2396-4.84032 26.2396-5.56819 26.2396-6.29605 25.5481-6.29605 25.0022-6.29605L3.2754-6.29605C2.7295-6.29605 2.03803-6.29605 2.03803-5.56819 2.03803-4.84032 2.7295-4.84032 3.23901-4.84032L25.0386-4.84032Z" fill="#FFFFFF" fill-rule="nonzero" fill-opacity="1" transform="matrix(1.00144 0 0 1 123.841 266.858)"/><path d="M25.4753 85.4879C25.4753 85.3422 25.4026 85.2696 25.3298 85.1605 23.9832 83.8137 21.5449 81.3755 19.1065 77.4452 13.2472 68.0558 10.5905 56.2276 10.5905 42.2163 10.5905 32.4265 11.9006 19.798 17.9056 8.95278 20.7806 3.78491 23.7649 0.800652 25.3662-0.800652 25.4753-0.909832 25.4753-0.982619 25.4753-1.0918 25.4753-1.45574 25.2206-1.45574 24.7111-1.45574 24.2016-1.45574 24.1288-1.45574 23.5829-0.909832 11.3911 10.1901 7.56984 26.8583 7.56984 42.1799 7.56984 56.4824 10.8452 70.8941 20.0891 81.776 20.817 82.6131 22.2 84.1051 23.6921 85.4153 24.1288 85.8519 24.2016 85.8519 24.7111 85.8519 25.2206 85.8519 25.4753 85.8519 25.4753 85.4879Z" fill="#FFFFFF" fill-rule="nonzero" fill-opacity="1" transform="matrix(1.00144 0 0 1 162.308 215.54)"/><path d="M16.741-11.6459C16.741-14.5574 16.559-17.4688 15.2852-20.1619 13.6111-23.6557 10.6269-24.238 9.09832-24.238 6.91473-24.238 4.25802-23.2917 2.7659-19.9072 1.60131-17.396 1.41934-14.5574 1.41934-11.6459 1.41934-8.91638 1.56492-5.64098 3.05705-2.87508 4.62193 0.0727857 7.27866 0.800652 9.06192 0.800652 11.0272 0.800652 13.7931 0.0363947 15.3944-3.42097 16.559-5.93212 16.741-8.77079 16.741-11.6459ZM9.06192 0C7.64259 0 5.49539-0.909832 4.84032-4.4036 4.43999-6.58719 4.43999-9.93538 4.43999-12.0826 4.43999-14.4118 4.43999-16.8138 4.73113-18.779 5.4226-23.1098 8.15211-23.4373 9.06192-23.4373 10.2629-23.4373 12.6649-22.7822 13.3564-19.1793 13.7203-17.1413 13.7203-14.3754 13.7203-12.0826 13.7203-9.35311 13.7203-6.87833 13.32-4.54918 12.774-1.0918 10.6996 0 9.06192 0Z" fill="#FFFFFF" fill-rule="nonzero" fill-opacity="1" transform="matrix(1.00144 0 0 1 221.864 244.659)"/><path d="M13.6111-22.0544C13.9386-23.3645 14.0478-23.7285 16.9229-23.7285 17.7964-23.7285 18.0875-23.7285 18.0875-24.4199 18.0875-24.8567 17.6872-24.8567 17.5416-24.8567 16.4862-24.8567 13.7931-24.7475 12.7377-24.7475 11.6459-24.7475 8.98917-24.8567 7.89738-24.8567 7.64259-24.8567 7.16951-24.8567 7.16951-24.1288 7.16951-23.7285 7.49704-23.7285 8.18851-23.7285 9.71704-23.7285 10.6996-23.7285 10.6996-23.037 10.6996-22.855 10.6996-22.7822 10.6269-22.4547L5.71378-2.83868C5.3862-1.49212 5.27705-1.1282 2.40196-1.1282 1.56492-1.1282 1.23738-1.1282 1.23738-0.400327 1.23738 0 1.67409 0 1.78327 0 2.83868 0 5.49539-0.10918 6.55079-0.10918 7.64259-0.10918 10.3357 0 11.4275 0 11.7186 0 12.1554 0 12.1554-0.691473 12.1554-1.1282 11.8642-1.1282 11.0636-1.1282 10.4085-1.1282 10.2265-1.1282 9.49865-1.20098 8.73439-1.27377 8.58884-1.41934 8.58884-1.81967 8.58884-2.11082 8.66164-2.40196 8.73439-2.65671L13.6111-22.0544Z" fill="#FFFFFF" fill-rule="nonzero" fill-opacity="1" transform="matrix(1.00144 0 0 1 351.589 244.659)"/><path d="M23.9832-8.37046C24.6019-8.37046 25.257-8.37046 25.257-9.09832 25.257-9.82619 24.6019-9.82619 23.9832-9.82619L4.29442-9.82619C3.67573-9.82619 3.02065-9.82619 3.02065-9.09832 3.02065-8.37046 3.67573-8.37046 4.29442-8.37046L23.9832-8.37046Z" fill="#FFFFFF" fill-rule="nonzero" fill-opacity="1" transform="matrix(1.00144 0 0 1 207.359 288.331)"/><path d="M13.6111-22.0544C13.9386-23.3645 14.0478-23.7285 16.9229-23.7285 17.7964-23.7285 18.0875-23.7285 18.0875-24.4199 18.0875-24.8567 17.6872-24.8567 17.5416-24.8567 16.4862-24.8567 13.7931-24.7475 12.7377-24.7475 11.6459-24.7475 8.98917-24.8567 7.89738-24.8567 7.64259-24.8567 7.16951-24.8567 7.16951-24.1288 7.16951-23.7285 7.49704-23.7285 8.18851-23.7285 9.71704-23.7285 10.6996-23.7285 10.6996-23.037 10.6996-22.855 10.6996-22.7822 10.6269-22.4547L5.71378-2.83868C5.3862-1.49212 5.27705-1.1282 2.40196-1.1282 1.56492-1.1282 1.23738-1.1282 1.23738-0.400327 1.23738 0 1.67409 0 1.78327 0 2.83868 0 5.49539-0.10918 6.55079-0.10918 7.64259-0.10918 10.3357 0 11.4275 0 11.7186 0 12.1554 0 12.1554-0.691473 12.1554-1.1282 11.8642-1.1282 11.0636-1.1282 10.4085-1.1282 10.2265-1.1282 9.49865-1.20098 8.73439-1.27377 8.58884-1.41934 8.58884-1.81967 8.58884-2.11082 8.66164-2.40196 8.73439-2.65671L13.6111-22.0544Z" fill="#FFFFFF" fill-rule="nonzero" fill-opacity="1" transform="matrix(1.00144 0 0 1 235.708 288.331)"/><path d="M23.9832-8.37046C24.6019-8.37046 25.257-8.37046 25.257-9.09832 25.257-9.82619 24.6019-9.82619 23.9832-9.82619L4.29442-9.82619C3.67573-9.82619 3.02065-9.82619 3.02065-9.09832 3.02065-8.37046 3.67573-8.37046 4.29442-8.37046L23.9832-8.37046Z" fill="#FFFFFF" fill-rule="nonzero" fill-opacity="1" transform="matrix(1.00144 0 0 1 291.034 288.331)"/><path d="M5.78653-2.83868C5.4226-1.41934 5.34984-1.1282 2.47475-1.1282 1.85606-1.1282 1.45574-1.1282 1.45574-0.436722 1.45574 0 1.78327 0 2.47475 0L14.521 0C22.0908 0 29.2603-7.67899 29.2603-15.6492 29.2603-20.7806 26.1668-24.8567 20.7078-24.8567L8.47965-24.8567C7.78818-24.8567 7.38785-24.8567 7.38785-24.1652 7.38785-23.7285 7.71539-23.7285 8.44325-23.7285 8.91638-23.7285 9.57145-23.6921 10.0082-23.6557 10.5905-23.5829 10.8088-23.4737 10.8088-23.0734 10.8088-22.9278 10.7724-22.8186 10.6632-22.3819L5.78653-2.83868ZM13.6475-22.3455C13.975-23.6193 14.0478-23.7285 15.6128-23.7285L19.5068-23.7285C23.0734-23.7285 26.094-21.7996 26.094-16.9957 26.094-15.2124 25.3662-9.24391 22.2727-5.24065 21.2173-3.89409 18.3422-1.1282 13.8659-1.1282L9.75344-1.1282C9.24391-1.1282 9.17112-1.1282 8.95278-1.16459 8.58884-1.20098 8.47965-1.23738 8.47965-1.52852 8.47965-1.6377 8.47965-1.71049 8.66164-2.36557L13.6475-22.3455Z" fill="#FFFFFF" fill-rule="nonzero" fill-opacity="1" transform="matrix(1.00144 0 0 1 319.382 288.331)"/><path d="M12.0462 8.73439C12.0462 8.62524 12.0462 8.55245 11.4275 7.93377 6.87833 3.34819 5.71378-3.53015 5.71378-9.09832 5.71378-15.4308 7.09671-21.7632 11.5731-26.3124 12.0462-26.7491 12.0462-26.8219 12.0462-26.9311 12.0462-27.1858 11.9006-27.295 11.6823-27.295 11.3183-27.295 8.04292-24.8203 5.89572-20.1983 4.03966-16.195 3.60294-12.1554 3.60294-9.09832 3.60294-6.25965 4.00327-1.85606 6.00492 2.25639 8.18851 6.73278 11.3183 9.09832 11.6823 9.09832 11.9006 9.09832 12.0462 8.98917 12.0462 8.73439Z" fill="#FFFFFF" fill-rule="nonzero" fill-opacity="1" transform="matrix(1.00144 0 0 1 350.568 288.331)"/><path d="M16.4498-15.6856C16.4498-15.8311 16.3406-16.0495 16.0859-16.0495 15.6856-16.0495 14.2298-14.5938 13.6111-13.5383 12.8104-15.5036 11.3911-16.0859 10.2265-16.0859 5.93212-16.0859 1.45574-10.6996 1.45574-5.4226 1.45574-1.85606 3.60294 0.400327 6.25965 0.400327 7.82458 0.400327 9.24391-0.473113 10.5541-1.78327 10.2265-0.509506 9.02557 4.4036 8.91638 4.73113 8.62524 5.75013 8.3341 5.89572 6.29605 5.93212 5.82293 5.93212 5.45899 5.93212 5.45899 6.65999 5.45899 6.69638 5.45899 7.06032 5.93212 7.06032 7.09671 7.06032 8.37046 6.95112 9.57145 6.95112 10.8088 6.95112 12.119 7.06032 13.32 7.06032 13.5019 7.06032 13.975 7.06032 13.975 6.33245 13.975 5.93212 13.6111 5.93212 13.0288 5.93212 11.2819 5.93212 11.2819 5.67738 11.2819 5.34984 11.2819 5.09506 11.3547 4.87672 11.4275 4.54918L16.4498-15.6856ZM6.36885-0.400327C4.18524-0.400327 4.03966-3.20261 4.03966-3.8213 4.03966-5.56819 5.09506-9.53505 5.71378-11.0636 6.84193-13.7567 8.73439-15.2852 10.2265-15.2852 12.5921-15.2852 13.1016-12.3374 13.1016-12.0826 13.1016-11.8642 11.1-3.89409 10.9908-3.74852 10.4449-2.7295 8.40685-0.400327 6.36885-0.400327Z" fill="#FFFFFF" fill-rule="nonzero" fill-opacity="1" transform="matrix(1.00144 0 0 1 364.742 288.331)"/><path d="M7.38785-0.0363947C7.38785-2.43835 6.478-3.8577 5.05866-3.8577 3.8577-3.8577 3.12983-2.94786 3.12983-1.92885 3.12983-0.94623 3.8577 0 5.05866 0 5.49539 0 5.96852-0.145575 6.33245-0.473113 6.44164-0.545904 6.478-0.582293 6.51439-0.582293 6.55079-0.582293 6.58719-0.545904 6.58719-0.0363947 6.58719 2.65671 5.31345 4.84032 4.11245 6.04131 3.71212 6.44164 3.71212 6.51439 3.71212 6.62359 3.71212 6.87833 3.89409 7.02392 4.07606 7.02392 4.47639 7.02392 7.38785 4.22163 7.38785-0.0363947Z" fill="#FFFFFF" fill-rule="nonzero" fill-opacity="1" transform="matrix(1.00144 0 0 1 382.32 288.331)"/><path d="M1.6377 4.43999C1.34656 5.67738 1.27377 5.93212-0.327541 5.93212-0.764259 5.93212-1.16459 5.93212-1.16459 6.62359-1.16459 6.91473-0.982619 7.06032-0.691473 7.06032 0.291146 7.06032 1.34656 6.95112 2.36557 6.95112 3.56655 6.95112 4.80392 7.06032 5.96852 7.06032 6.15046 7.06032 6.62359 7.06032 6.62359 6.33245 6.62359 5.93212 6.25965 5.93212 5.75013 5.93212 3.93048 5.93212 3.93048 5.67738 3.93048 5.34984 3.93048 4.91312 5.45899-1.01902 5.71378-1.92885 6.18686-0.873439 7.20591 0.400327 9.06192 0.400327 13.2836 0.400327 17.8328-4.91312 17.8328-10.2629 17.8328-13.6839 15.7583-16.0859 12.9924-16.0859 11.1728-16.0859 9.4259-14.7757 8.22491-13.3564 7.86098-15.3216 6.29605-16.0859 4.94951-16.0859 3.2754-16.0859 2.58393-14.6665 2.25639-14.0114 1.60131-12.774 1.1282-10.5905 1.1282-10.4813 1.1282-10.1174 1.49212-10.1174 1.56492-10.1174 1.92885-10.1174 1.96524-10.1538 2.1836-10.9544 2.80229-13.5383 3.53015-15.2852 4.84032-15.2852 5.45899-15.2852 5.96852-14.994 5.96852-13.6111 5.96852-12.774 5.85932-12.3738 5.71378-11.755L1.6377 4.43999ZM8.04292-11.3547C8.29771-12.3374 9.28031-13.3564 9.93538-13.9022 11.2092-15.0304 12.2646-15.2852 12.8832-15.2852 14.339-15.2852 15.2124-14.0114 15.2124-11.8642 15.2124-9.71704 14.0114-5.53179 13.3564-4.14884 12.119-1.60131 10.3721-0.400327 9.02557-0.400327 6.62359-0.400327 6.15046-3.42097 6.15046-3.63934 6.15046-3.71212 6.15046-3.78491 6.25965-4.22163L8.04292-11.3547Z" fill="#FFFFFF" fill-rule="nonzero" fill-opacity="1" transform="matrix(1.00144 0 0 1 398.515 288.331)"/><path d="M10.5177-9.09832C10.5177-11.937 10.1174-16.3406 8.11572-20.4531 5.93212-24.9295 2.80229-27.295 2.43835-27.295 2.22-27.295 2.07442-27.1495 2.07442-26.9311 2.07442-26.8219 2.07442-26.7491 2.7659-26.094 6.33245-22.4911 8.40685-16.7046 8.40685-9.09832 8.40685-2.87508 7.06032 3.53015 2.54753 8.11572 2.07442 8.55245 2.07442 8.62524 2.07442 8.73439 2.07442 8.95278 2.22 9.09832 2.43835 9.09832 2.80229 9.09832 6.07771 6.62359 8.22491 2.00164 10.081-2.00164 10.5177-6.04131 10.5177-9.09832Z" fill="#FFFFFF" fill-rule="nonzero" fill-opacity="1" transform="matrix(1.00144 0 0 1 416.852 288.331)"/><path d="M19.1793 42.2163C19.1793 27.9137 15.9039 13.5019 6.65999 2.62032 5.93212 1.78327 4.54918 0.291146 3.05705-1.01902 2.62032-1.45574 2.54753-1.45574 2.03803-1.45574 1.60131-1.45574 1.27377-1.45574 1.27377-1.0918 1.27377-0.94623 1.41934-0.800652 1.49212-0.727866 2.7659 0.582293 5.20425 3.02065 7.64259 6.95112 13.5019 16.3406 16.1586 28.1685 16.1586 42.1799 16.1586 51.9699 14.8485 64.5982 8.84358 75.4436 5.96852 80.6114 2.94786 83.632 1.41934 85.1605 1.34656 85.2696 1.27377 85.3788 1.27377 85.4879 1.27377 85.8519 1.60131 85.8519 2.03803 85.8519 2.54753 85.8519 2.62032 85.8519 3.16623 85.3062 15.358 74.206 19.1793 57.5378 19.1793 42.2163Z" fill="#FFFFFF" fill-rule="nonzero" fill-opacity="1" transform="matrix(1.00144 0 0 1 449.251 215.54)"/><path d="M25.4753 85.4879C25.4753 85.3422 25.4026 85.2696 25.3298 85.1605 23.9832 83.8137 21.5449 81.3755 19.1065 77.4452 13.2472 68.0558 10.5905 56.2276 10.5905 42.2163 10.5905 32.4265 11.9006 19.798 17.9056 8.95278 20.7806 3.78491 23.7649 0.800652 25.3662-0.800652 25.4753-0.909832 25.4753-0.982619 25.4753-1.0918 25.4753-1.45574 25.2206-1.45574 24.7111-1.45574 24.2016-1.45574 24.1288-1.45574 23.5829-0.909832 11.3911 10.1901 7.56984 26.8583 7.56984 42.1799 7.56984 56.4824 10.8452 70.8941 20.0891 81.776 20.817 82.6131 22.2 84.1051 23.6921 85.4153 24.1288 85.8519 24.2016 85.8519 24.7111 85.8519 25.2206 85.8519 25.4753 85.8519 25.4753 85.4879Z" fill="#FFFFFF" fill-rule="nonzero" fill-opacity="1" transform="matrix(1.00144 0 0 1 482.149 215.54)"/><path d="M28.3868-24.056C28.4596-24.1652 28.5688-24.4199 28.5688-24.5655 28.5688-24.8203 28.5324-24.8567 27.6953-24.8567L2.58393-24.8567C1.74688-24.8567 1.71049-24.8203 1.71049-24.5655 1.71049-24.4199 1.81967-24.1652 1.89246-24.056L14.157 0.509506C14.4118 0.982619 14.521 1.20098 15.1396 1.20098 15.7583 1.20098 15.8675 0.982619 16.1222 0.509506L28.3868-24.056ZM6.22326-22.2363 26.2032-22.2363 16.2314-2.22 6.22326-22.2363Z" fill="#FFFFFF" fill-rule="nonzero" fill-opacity="1" transform="matrix(1.00144 0 0 1 509.355 244.659)"/><path d="M12.967-10.4958C12.9924-10.5978 13.0179-10.7506 13.0179-10.878 13.0179-11.0308 12.916-11.2347 12.6867-11.2347 12.432-11.2347 11.362-10.3685 10.8525-9.55327 10.5978-10.0628 9.75705-11.2347 8.12663-11.2347 4.8658-11.2347 1.554-7.64259 1.554-3.97415 1.554-1.50304 3.20989 0.254752 5.40077 0.254752 6.85289 0.254752 8.05023-0.662359 8.61067-1.14639 8.58519-1.06996 7.79544 2.13993 7.69356 2.57301 7.33689 3.97415 7.3114 3.99963 5.73195 4.0251 5.42625 4.0251 5.06958 4.0251 5.06958 4.58558 5.06958 4.73843 5.19699 4.94221 5.45173 4.94221 6.2924 4.94221 7.235 4.84032 8.10115 4.84032 8.96734 4.84032 10.0373 4.94221 10.827 4.94221 11.0563 4.94221 11.3365 4.8658 11.3365 4.38176 11.3365 4.0251 10.9799 4.0251 10.6742 4.0251 10.1137 4.0251 9.4259 4.0251 9.4259 3.7194 9.4259 3.64297 9.4259 3.59203 9.55327 3.15894L12.967-10.4958ZM9.1202-3.20989C8.99278-2.77681 8.99278-2.72587 8.66164-2.31826 7.66807-1.14639 6.47074-0.458554 5.47721-0.458554 4.53462-0.458554 3.6175-1.12091 3.6175-2.92967 3.6175-4.27986 4.35628-7.08215 4.94221-8.10115 6.11411-10.1392 7.41333-10.5213 8.12663-10.5213 9.9099-10.5213 10.3939-8.55971 10.3939-8.30497 10.3939-8.1776 10.343-8.02474 10.3175-7.92286L9.1202-3.20989Z" fill="#FFFFFF" fill-rule="nonzero" fill-opacity="1" transform="matrix(1.00144 0 0 1 539.724 250.115)"/><path d="M27.7681-22.0544C28.0957-23.3645 28.1685-23.7285 30.8252-23.7285 31.7714-23.7285 32.0625-23.7285 32.0625-24.4563 32.0625-24.8567 31.6622-24.8567 31.5531-24.8567 30.534-24.8567 27.9137-24.7475 26.8947-24.7475 25.8393-24.7475 23.2554-24.8567 22.2-24.8567 21.9088-24.8567 21.5085-24.8567 21.5085-24.1288 21.5085-23.7285 21.836-23.7285 22.5275-23.7285 22.6003-23.7285 23.2917-23.7285 23.9104-23.6557 24.5655-23.5829 24.8931-23.5465 24.8931-23.0734 24.8931-22.9278 24.8567-22.855 24.7475-22.3819L22.5639-13.5019 11.4639-13.5019 13.6111-22.0544C13.9386-23.3645 14.0478-23.7285 16.6682-23.7285 17.6144-23.7285 17.9056-23.7285 17.9056-24.4563 17.9056-24.8567 17.5052-24.8567 17.396-24.8567 16.377-24.8567 13.7567-24.7475 12.7377-24.7475 11.6823-24.7475 9.09832-24.8567 8.04292-24.8567 7.75178-24.8567 7.35145-24.8567 7.35145-24.1288 7.35145-23.7285 7.67899-23.7285 8.37046-23.7285 8.44325-23.7285 9.13472-23.7285 9.75344-23.6557 10.4085-23.5829 10.736-23.5465 10.736-23.0734 10.736-22.9278 10.6996-22.8186 10.5905-22.3819L5.71378-2.83868C5.34984-1.41934 5.27705-1.1282 2.40196-1.1282 1.74688-1.1282 1.41934-1.1282 1.41934-0.400327 1.41934 0 1.85606 0 1.92885 0 2.94786 0 5.53179-0.10918 6.55079-0.10918 7.31506-0.10918 8.11572-0.0727857 8.87998-0.0727857 9.68064-0.0727857 10.4813 0 11.2456 0 11.5367 0 11.9734 0 11.9734-0.727866 11.9734-1.1282 11.6459-1.1282 10.9544-1.1282 9.60785-1.1282 8.58884-1.1282 8.58884-1.78327 8.58884-2.00164 8.66164-2.1836 8.69799-2.40196L11.1728-12.3738 22.2727-12.3738C20.7442-6.33245 19.9072-2.87508 19.7616-2.32917 19.3977-1.16459 18.7062-1.1282 16.4498-1.1282 15.9039-1.1282 15.5764-1.1282 15.5764-0.400327 15.5764 0 16.0131 0 16.0859 0 17.1049 0 19.6888-0.10918 20.7078-0.10918 21.4721-0.10918 22.2727-0.0727857 23.037-0.0727857 23.8377-0.0727857 24.6383 0 25.4026 0 25.6937 0 26.1304 0 26.1304-0.727866 26.1304-1.1282 25.8029-1.1282 25.1114-1.1282 23.7649-1.1282 22.7459-1.1282 22.7459-1.78327 22.7459-2.00164 22.8186-2.1836 22.855-2.40196L27.7681-22.0544Z" fill="#FFFFFF" fill-rule="nonzero" fill-opacity="1" transform="matrix(1.00144 0 0 1 555.821 244.659)"/><path d="M28.3868-24.056C28.4596-24.1652 28.5688-24.4199 28.5688-24.5655 28.5688-24.8203 28.5324-24.8567 27.6953-24.8567L2.58393-24.8567C1.74688-24.8567 1.71049-24.8203 1.71049-24.5655 1.71049-24.4199 1.81967-24.1652 1.89246-24.056L14.157 0.509506C14.4118 0.982619 14.521 1.20098 15.1396 1.20098 15.7583 1.20098 15.8675 0.982619 16.1222 0.509506L28.3868-24.056ZM6.22326-22.2363 26.2032-22.2363 16.2314-2.22 6.22326-22.2363Z" fill="#FFFFFF" fill-rule="nonzero" fill-opacity="1" transform="matrix(1.00144 0 0 1 508.981 288.331)"/><path d="M1.91065 3.10799C1.73232 3.8213 1.68138 4.0251 0.662359 4.0251 0.331179 4.0251-0.0254759 4.0251-0.0254759 4.5601-0.0254759 4.84032 0.203804 4.94221 0.331179 4.94221 0.993538 4.94221 1.83422 4.84032 2.52206 4.84032 3.38822 4.84032 4.35628 4.94221 5.19699 4.94221 5.42625 4.94221 5.70647 4.8658 5.70647 4.38176 5.70647 4.0251 5.34984 4.0251 5.04414 4.0251 4.48365 4.0251 3.79583 4.0251 3.79583 3.7194 3.79583 3.59203 3.97415 2.92967 4.07606 2.54753 4.38176 1.19734 4.73843-0.178328 5.01866-1.2483 5.32436-0.738785 6.11411 0.254752 7.64259 0.254752 10.7506 0.254752 14.1898-3.18442 14.1898-6.98026 14.1898-9.96087 12.1263-11.2347 10.3685-11.2347 8.78901-11.2347 7.43882-10.1647 6.75096-9.45134 6.31788-10.9035 4.89129-11.2347 4.12701-11.2347 3.13347-11.2347 2.52206-10.5723 2.11445-9.88442 1.60494-9.01827 1.19734-7.48974 1.19734-7.33689 1.19734-7.00574 1.554-7.00574 1.63042-7.00574 1.98708-7.00574 2.01255-7.08215 2.19088-7.77001 2.57301-9.24757 3.05705-10.5213 4.05058-10.5213 4.71295-10.5213 4.89129-9.96087 4.89129-9.27305 4.89129-8.99278 4.84032-8.66164 4.81484-8.50879L1.91065 3.10799ZM6.72547-8.1776C8.20308-10.1392 9.47682-10.5213 10.2921-10.5213 11.2856-10.5213 12.1517-9.78253 12.1517-8.05023 12.1517-7.00574 11.5913-4.40724 10.827-2.92967 10.1901-1.68138 8.94186-0.458554 7.64259-0.458554 5.83384-0.458554 5.37528-2.42016 5.37528-2.67491 5.37528-2.77681 5.42625-2.95514 5.45173-3.05705L6.72547-8.1776Z" fill="#FFFFFF" fill-rule="nonzero" fill-opacity="1" transform="matrix(1.00144 0 0 1 539.35 293.787)"/><path d="M27.7681-22.0544C28.0957-23.3645 28.1685-23.7285 30.8252-23.7285 31.7714-23.7285 32.0625-23.7285 32.0625-24.4563 32.0625-24.8567 31.6622-24.8567 31.5531-24.8567 30.534-24.8567 27.9137-24.7475 26.8947-24.7475 25.8393-24.7475 23.2554-24.8567 22.2-24.8567 21.9088-24.8567 21.5085-24.8567 21.5085-24.1288 21.5085-23.7285 21.836-23.7285 22.5275-23.7285 22.6003-23.7285 23.2917-23.7285 23.9104-23.6557 24.5655-23.5829 24.8931-23.5465 24.8931-23.0734 24.8931-22.9278 24.8567-22.855 24.7475-22.3819L22.5639-13.5019 11.4639-13.5019 13.6111-22.0544C13.9386-23.3645 14.0478-23.7285 16.6682-23.7285 17.6144-23.7285 17.9056-23.7285 17.9056-24.4563 17.9056-24.8567 17.5052-24.8567 17.396-24.8567 16.377-24.8567 13.7567-24.7475 12.7377-24.7475 11.6823-24.7475 9.09832-24.8567 8.04292-24.8567 7.75178-24.8567 7.35145-24.8567 7.35145-24.1288 7.35145-23.7285 7.67899-23.7285 8.37046-23.7285 8.44325-23.7285 9.13472-23.7285 9.75344-23.6557 10.4085-23.5829 10.736-23.5465 10.736-23.0734 10.736-22.9278 10.6996-22.8186 10.5905-22.3819L5.71378-2.83868C5.34984-1.41934 5.27705-1.1282 2.40196-1.1282 1.74688-1.1282 1.41934-1.1282 1.41934-0.400327 1.41934 0 1.85606 0 1.92885 0 2.94786 0 5.53179-0.10918 6.55079-0.10918 7.31506-0.10918 8.11572-0.0727857 8.87998-0.0727857 9.68064-0.0727857 10.4813 0 11.2456 0 11.5367 0 11.9734 0 11.9734-0.727866 11.9734-1.1282 11.6459-1.1282 10.9544-1.1282 9.60785-1.1282 8.58884-1.1282 8.58884-1.78327 8.58884-2.00164 8.66164-2.1836 8.69799-2.40196L11.1728-12.3738 22.2727-12.3738C20.7442-6.33245 19.9072-2.87508 19.7616-2.32917 19.3977-1.16459 18.7062-1.1282 16.4498-1.1282 15.9039-1.1282 15.5764-1.1282 15.5764-0.400327 15.5764 0 16.0131 0 16.0859 0 17.1049 0 19.6888-0.10918 20.7078-0.10918 21.4721-0.10918 22.2727-0.0727857 23.037-0.0727857 23.8377-0.0727857 24.6383 0 25.4026 0 25.6937 0 26.1304 0 26.1304-0.727866 26.1304-1.1282 25.8029-1.1282 25.1114-1.1282 23.7649-1.1282 22.7459-1.1282 22.7459-1.78327 22.7459-2.00164 22.8186-2.1836 22.855-2.40196L27.7681-22.0544Z" fill="#FFFFFF" fill-rule="nonzero" fill-opacity="1" transform="matrix(1.00144 0 0 1 556.196 288.331)"/><path d="M19.1793 42.2163C19.1793 27.9137 15.9039 13.5019 6.65999 2.62032 5.93212 1.78327 4.54918 0.291146 3.05705-1.01902 2.62032-1.45574 2.54753-1.45574 2.03803-1.45574 1.60131-1.45574 1.27377-1.45574 1.27377-1.0918 1.27377-0.94623 1.41934-0.800652 1.49212-0.727866 2.7659 0.582293 5.20425 3.02065 7.64259 6.95112 13.5019 16.3406 16.1586 28.1685 16.1586 42.1799 16.1586 51.9699 14.8485 64.5982 8.84358 75.4436 5.96852 80.6114 2.94786 83.632 1.41934 85.1605 1.34656 85.2696 1.27377 85.3788 1.27377 85.4879 1.27377 85.8519 1.60131 85.8519 2.03803 85.8519 2.54753 85.8519 2.62032 85.8519 3.16623 85.3062 15.358 74.206 19.1793 57.5378 19.1793 42.2163Z" fill="#FFFFFF" fill-rule="nonzero" fill-opacity="1" transform="matrix(1.00144 0 0 1 589.452 215.54)"/><path d="M14.8849-8.37046 25.0386-8.37046C25.5481-8.37046 26.2396-8.37046 26.2396-9.09832 26.2396-9.82619 25.5481-9.82619 25.0386-9.82619L14.8849-9.82619 14.8849-20.0164C14.8849-20.5258 14.8849-21.2173 14.157-21.2173 13.4292-21.2173 13.4292-20.5258 13.4292-20.0164L13.4292-9.82619 3.23901-9.82619C2.7295-9.82619 2.03803-9.82619 2.03803-9.09832 2.03803-8.37046 2.7295-8.37046 3.23901-8.37046L13.4292-8.37046 13.4292 1.81967C13.4292 2.32917 13.4292 3.02065 14.157 3.02065 14.8849 3.02065 14.8849 2.32917 14.8849 1.81967L14.8849-8.37046Z" fill="#FFFFFF" fill-rule="nonzero" fill-opacity="1" transform="matrix(1.00144 0 0 1 624.381 266.858)"/><path d="M25.4753 85.4879C25.4753 85.3422 25.4026 85.2696 25.3298 85.1605 23.9832 83.8137 21.5449 81.3755 19.1065 77.4452 13.2472 68.0558 10.5905 56.2276 10.5905 42.2163 10.5905 32.4265 11.9006 19.798 17.9056 8.95278 20.7806 3.78491 23.7649 0.800652 25.3662-0.800652 25.4753-0.909832 25.4753-0.982619 25.4753-1.0918 25.4753-1.45574 25.2206-1.45574 24.7111-1.45574 24.2016-1.45574 24.1288-1.45574 23.5829-0.909832 11.3911 10.1901 7.56984 26.8583 7.56984 42.1799 7.56984 56.4824 10.8452 70.8941 20.0891 81.776 20.817 82.6131 22.2 84.1051 23.6921 85.4153 24.1288 85.8519 24.2016 85.8519 24.7111 85.8519 25.2206 85.8519 25.4753 85.8519 25.4753 85.4879Z" fill="#FFFFFF" fill-rule="nonzero" fill-opacity="1" transform="matrix(1.00144 0 0 1 660.826 215.54)"/><path d="M16.741-11.6459C16.741-14.5574 16.559-17.4688 15.2852-20.1619 13.6111-23.6557 10.6269-24.238 9.09832-24.238 6.91473-24.238 4.25802-23.2917 2.7659-19.9072 1.60131-17.396 1.41934-14.5574 1.41934-11.6459 1.41934-8.91638 1.56492-5.64098 3.05705-2.87508 4.62193 0.0727857 7.27866 0.800652 9.06192 0.800652 11.0272 0.800652 13.7931 0.0363947 15.3944-3.42097 16.559-5.93212 16.741-8.77079 16.741-11.6459ZM9.06192 0C7.64259 0 5.49539-0.909832 4.84032-4.4036 4.43999-6.58719 4.43999-9.93538 4.43999-12.0826 4.43999-14.4118 4.43999-16.8138 4.73113-18.779 5.4226-23.1098 8.15211-23.4373 9.06192-23.4373 10.2629-23.4373 12.6649-22.7822 13.3564-19.1793 13.7203-17.1413 13.7203-14.3754 13.7203-12.0826 13.7203-9.35311 13.7203-6.87833 13.32-4.54918 12.774-1.0918 10.6996 0 9.06192 0Z" fill="#FFFFFF" fill-rule="nonzero" fill-opacity="1" transform="matrix(1.00144 0 0 1 715.831 244.659)"/><path d="M27.6589-25.2934C27.6589-25.4026 27.5862-25.6573 27.2586-25.6573 27.1495-25.6573 27.1131-25.6209 26.7127-25.2206L24.1652-22.4183C23.8377-22.9278 22.1636-25.6573 18.1239-25.6573 10.0082-25.6573 1.81967-17.6144 1.81967-9.17112 1.81967-3.38458 5.85932 0.800652 11.755 0.800652 13.3564 0.800652 14.994 0.473113 16.3042-0.0727857 18.1239-0.800652 18.8154-1.56492 19.4704-2.29278 19.798-1.38295 20.7442-0.0363947 21.1082-0.0363947 21.2901-0.0363947 21.3629-0.145575 21.3629-0.181966 21.4357-0.254752 21.7996-1.6377 21.9816-2.40196L22.6731-5.20425C22.8186-5.82293 23.0006-6.44164 23.1462-7.06032 23.5465-8.69799 23.5829-8.77079 25.6573-8.80719 25.8393-8.80719 26.2396-8.84358 26.2396-9.53505 26.2396-9.78984 26.0577-9.93538 25.7665-9.93538 24.9295-9.93538 22.7822-9.82619 21.9452-9.82619 20.817-9.82619 17.9783-9.93538 16.8501-9.93538 16.5226-9.93538 16.0859-9.93538 16.0859-9.20752 16.0859-8.80719 16.377-8.80719 17.1777-8.80719 17.214-8.80719 18.2695-8.80719 19.1065-8.73439 20.0528-8.62524 20.2347-8.51605 20.2347-8.04292 20.2347-7.71539 19.8344-6.07771 19.4704-4.73113 18.4514-0.727866 13.7203-0.327541 12.4465-0.327541 8.95278-0.327541 5.13146-2.40196 5.13146-7.97013 5.13146-9.09832 5.49539-15.1032 9.31671-19.8344 11.2819-22.3091 14.8121-24.5291 18.415-24.5291 22.1272-24.5291 24.2744-21.7268 24.2744-17.5052 24.2744-16.0495 24.1652-16.0131 24.1652-15.6492 24.1652-15.2852 24.5655-15.2852 24.7111-15.2852 25.1842-15.2852 25.1842-15.358 25.3662-16.0131L27.6589-25.2934Z" fill="#FFFFFF" fill-rule="nonzero" fill-opacity="1" transform="matrix(1.00144 0 0 1 687.653 288.331)"/><path d="M12.0462 8.73439C12.0462 8.62524 12.0462 8.55245 11.4275 7.93377 6.87833 3.34819 5.71378-3.53015 5.71378-9.09832 5.71378-15.4308 7.09671-21.7632 11.5731-26.3124 12.0462-26.7491 12.0462-26.8219 12.0462-26.9311 12.0462-27.1858 11.9006-27.295 11.6823-27.295 11.3183-27.295 8.04292-24.8203 5.89572-20.1983 4.03966-16.195 3.60294-12.1554 3.60294-9.09832 3.60294-6.25965 4.00327-1.85606 6.00492 2.25639 8.18851 6.73278 11.3183 9.09832 11.6823 9.09832 11.9006 9.09832 12.0462 8.98917 12.0462 8.73439Z" fill="#FFFFFF" fill-rule="nonzero" fill-opacity="1" transform="matrix(1.00144 0 0 1 716.309 288.331)"/><path d="M16.4498-15.6856C16.4498-15.8311 16.3406-16.0495 16.0859-16.0495 15.6856-16.0495 14.2298-14.5938 13.6111-13.5383 12.8104-15.5036 11.3911-16.0859 10.2265-16.0859 5.93212-16.0859 1.45574-10.6996 1.45574-5.4226 1.45574-1.85606 3.60294 0.400327 6.25965 0.400327 7.82458 0.400327 9.24391-0.473113 10.5541-1.78327 10.2265-0.509506 9.02557 4.4036 8.91638 4.73113 8.62524 5.75013 8.3341 5.89572 6.29605 5.93212 5.82293 5.93212 5.45899 5.93212 5.45899 6.65999 5.45899 6.69638 5.45899 7.06032 5.93212 7.06032 7.09671 7.06032 8.37046 6.95112 9.57145 6.95112 10.8088 6.95112 12.119 7.06032 13.32 7.06032 13.5019 7.06032 13.975 7.06032 13.975 6.33245 13.975 5.93212 13.6111 5.93212 13.0288 5.93212 11.2819 5.93212 11.2819 5.67738 11.2819 5.34984 11.2819 5.09506 11.3547 4.87672 11.4275 4.54918L16.4498-15.6856ZM6.36885-0.400327C4.18524-0.400327 4.03966-3.20261 4.03966-3.8213 4.03966-5.56819 5.09506-9.53505 5.71378-11.0636 6.84193-13.7567 8.73439-15.2852 10.2265-15.2852 12.5921-15.2852 13.1016-12.3374 13.1016-12.0826 13.1016-11.8642 11.1-3.89409 10.9908-3.74852 10.4449-2.7295 8.40685-0.400327 6.36885-0.400327Z" fill="#FFFFFF" fill-rule="nonzero" fill-opacity="1" transform="matrix(1.00144 0 0 1 730.483 288.331)"/><path d="M10.5177-9.09832C10.5177-11.937 10.1174-16.3406 8.11572-20.4531 5.93212-24.9295 2.80229-27.295 2.43835-27.295 2.22-27.295 2.07442-27.1495 2.07442-26.9311 2.07442-26.8219 2.07442-26.7491 2.7659-26.094 6.33245-22.4911 8.40685-16.7046 8.40685-9.09832 8.40685-2.87508 7.06032 3.53015 2.54753 8.11572 2.07442 8.55245 2.07442 8.62524 2.07442 8.73439 2.07442 8.95278 2.22 9.09832 2.43835 9.09832 2.80229 9.09832 6.07771 6.62359 8.22491 2.00164 10.081-2.00164 10.5177-6.04131 10.5177-9.09832Z" fill="#FFFFFF" fill-rule="nonzero" fill-opacity="1" transform="matrix(1.00144 0 0 1 748.061 288.331)"/><path d="M19.1793 42.2163C19.1793 27.9137 15.9039 13.5019 6.65999 2.62032 5.93212 1.78327 4.54918 0.291146 3.05705-1.01902 2.62032-1.45574 2.54753-1.45574 2.03803-1.45574 1.60131-1.45574 1.27377-1.45574 1.27377-1.0918 1.27377-0.94623 1.41934-0.800652 1.49212-0.727866 2.7659 0.582293 5.20425 3.02065 7.64259 6.95112 13.5019 16.3406 16.1586 28.1685 16.1586 42.1799 16.1586 51.9699 14.8485 64.5982 8.84358 75.4436 5.96852 80.6114 2.94786 83.632 1.41934 85.1605 1.34656 85.2696 1.27377 85.3788 1.27377 85.4879 1.27377 85.8519 1.60131 85.8519 2.03803 85.8519 2.54753 85.8519 2.62032 85.8519 3.16623 85.3062 15.358 74.206 19.1793 57.5378 19.1793 42.2163Z" fill="#FFFFFF" fill-rule="nonzero" fill-opacity="1" transform="matrix(1.00144 0 0 1 762.235 215.54)"/><path d="M12.7377-2.03803C13.138-0.545904 14.4118 0.400327 15.9767 0.400327 17.2504 0.400327 18.0875-0.436722 18.6698-1.60131 19.2885-2.91147 19.7616-5.13146 19.7616-5.20425 19.7616-5.56819 19.434-5.56819 19.3249-5.56819 18.961-5.56819 18.9246-5.4226 18.8154-4.91312 18.3059-2.87508 17.6144-0.400327 16.0859-0.400327 15.3216-0.400327 14.9577-0.873439 14.9577-2.07442 14.9577-2.87508 15.3944-4.58558 15.6856-5.85932L16.7046-9.78984C16.8138-10.3357 17.1777-11.7186 17.3232-12.2646 17.5052-13.1016 17.8692-14.4846 17.8692-14.7029 17.8692-15.358 17.3596-15.6856 16.8138-15.6856 16.6318-15.6856 15.6856-15.6492 15.3944-14.4118 14.7029-11.755 13.1016-5.3862 12.6649-3.45737 12.6285-3.31179 11.1728-0.400327 8.51605-0.400327 6.62359-0.400327 6.25965-2.03803 6.25965-3.38458 6.25965-5.4226 7.27866-8.29771 8.22491-10.8088 8.66164-11.9006 8.84358-12.4101 8.84358-13.1016 8.84358-14.7393 7.67899-16.0859 5.85932-16.0859 2.40196-16.0859 1.05541-10.8088 1.05541-10.4813 1.05541-10.1174 1.41934-10.1174 1.49212-10.1174 1.85606-10.1174 1.89246-10.1901 2.07442-10.7724 2.98425-13.9386 4.3672-15.2852 5.75013-15.2852 6.07771-15.2852 6.65999-15.2488 6.65999-14.0842 6.65999-13.2108 6.25965-12.1554 6.04131-11.6095 4.69473-8.00652 3.93048-5.75013 3.93048-3.96688 3.93048-0.509506 6.44164 0.400327 8.40685 0.400327 10.8088 0.400327 12.119-1.23738 12.7377-2.03803Z" fill="#FFFFFF" fill-rule="nonzero" fill-opacity="1" transform="matrix(1.00144 0 0 1 795.138 266.858)"/><path d="M27.7681-22.0544C28.0957-23.3645 28.1685-23.7285 30.8252-23.7285 31.7714-23.7285 32.0625-23.7285 32.0625-24.4563 32.0625-24.8567 31.6622-24.8567 31.5531-24.8567 30.534-24.8567 27.9137-24.7475 26.8947-24.7475 25.8393-24.7475 23.2554-24.8567 22.2-24.8567 21.9088-24.8567 21.5085-24.8567 21.5085-24.1288 21.5085-23.7285 21.836-23.7285 22.5275-23.7285 22.6003-23.7285 23.2917-23.7285 23.9104-23.6557 24.5655-23.5829 24.8931-23.5465 24.8931-23.0734 24.8931-22.9278 24.8567-22.855 24.7475-22.3819L22.5639-13.5019 11.4639-13.5019 13.6111-22.0544C13.9386-23.3645 14.0478-23.7285 16.6682-23.7285 17.6144-23.7285 17.9056-23.7285 17.9056-24.4563 17.9056-24.8567 17.5052-24.8567 17.396-24.8567 16.377-24.8567 13.7567-24.7475 12.7377-24.7475 11.6823-24.7475 9.09832-24.8567 8.04292-24.8567 7.75178-24.8567 7.35145-24.8567 7.35145-24.1288 7.35145-23.7285 7.67899-23.7285 8.37046-23.7285 8.44325-23.7285 9.13472-23.7285 9.75344-23.6557 10.4085-23.5829 10.736-23.5465 10.736-23.0734 10.736-22.9278 10.6996-22.8186 10.5905-22.3819L5.71378-2.83868C5.34984-1.41934 5.27705-1.1282 2.40196-1.1282 1.74688-1.1282 1.41934-1.1282 1.41934-0.400327 1.41934 0 1.85606 0 1.92885 0 2.94786 0 5.53179-0.10918 6.55079-0.10918 7.31506-0.10918 8.11572-0.0727857 8.87998-0.0727857 9.68064-0.0727857 10.4813 0 11.2456 0 11.5367 0 11.9734 0 11.9734-0.727866 11.9734-1.1282 11.6459-1.1282 10.9544-1.1282 9.60785-1.1282 8.58884-1.1282 8.58884-1.78327 8.58884-2.00164 8.66164-2.1836 8.69799-2.40196L11.1728-12.3738 22.2727-12.3738C20.7442-6.33245 19.9072-2.87508 19.7616-2.32917 19.3977-1.16459 18.7062-1.1282 16.4498-1.1282 15.9039-1.1282 15.5764-1.1282 15.5764-0.400327 15.5764 0 16.0131 0 16.0859 0 17.1049 0 19.6888-0.10918 20.7078-0.10918 21.4721-0.10918 22.2727-0.0727857 23.037-0.0727857 23.8377-0.0727857 24.6383 0 25.4026 0 25.6937 0 26.1304 0 26.1304-0.727866 26.1304-1.1282 25.8029-1.1282 25.1114-1.1282 23.7649-1.1282 22.7459-1.1282 22.7459-1.78327 22.7459-2.00164 22.8186-2.1836 22.855-2.40196L27.7681-22.0544Z" fill="#FFFFFF" fill-rule="nonzero" fill-opacity="1" transform="matrix(1.00144 0 0 1 0 364.063)"/><path d="M12.0462 8.73439C12.0462 8.62524 12.0462 8.55245 11.4275 7.93377 6.87833 3.34819 5.71378-3.53015 5.71378-9.09832 5.71378-15.4308 7.09671-21.7632 11.5731-26.3124 12.0462-26.7491 12.0462-26.8219 12.0462-26.9311 12.0462-27.1858 11.9006-27.295 11.6823-27.295 11.3183-27.295 8.04292-24.8203 5.89572-20.1983 4.03966-16.195 3.60294-12.1554 3.60294-9.09832 3.60294-6.25965 4.00327-1.85606 6.00492 2.25639 8.18851 6.73278 11.3183 9.09832 11.6823 9.09832 11.9006 9.09832 12.0462 8.98917 12.0462 8.73439Z" fill="#FFFFFF" fill-rule="nonzero" fill-opacity="1" transform="matrix(1.00144 0 0 1 33.2557 364.063)"/><path d="M16.4498-15.6856C16.4498-15.8311 16.3406-16.0495 16.0859-16.0495 15.6856-16.0495 14.2298-14.5938 13.6111-13.5383 12.8104-15.5036 11.3911-16.0859 10.2265-16.0859 5.93212-16.0859 1.45574-10.6996 1.45574-5.4226 1.45574-1.85606 3.60294 0.400327 6.25965 0.400327 7.82458 0.400327 9.24391-0.473113 10.5541-1.78327 10.2265-0.509506 9.02557 4.4036 8.91638 4.73113 8.62524 5.75013 8.3341 5.89572 6.29605 5.93212 5.82293 5.93212 5.45899 5.93212 5.45899 6.65999 5.45899 6.69638 5.45899 7.06032 5.93212 7.06032 7.09671 7.06032 8.37046 6.95112 9.57145 6.95112 10.8088 6.95112 12.119 7.06032 13.32 7.06032 13.5019 7.06032 13.975 7.06032 13.975 6.33245 13.975 5.93212 13.6111 5.93212 13.0288 5.93212 11.2819 5.93212 11.2819 5.67738 11.2819 5.34984 11.2819 5.09506 11.3547 4.87672 11.4275 4.54918L16.4498-15.6856ZM6.36885-0.400327C4.18524-0.400327 4.03966-3.20261 4.03966-3.8213 4.03966-5.56819 5.09506-9.53505 5.71378-11.0636 6.84193-13.7567 8.73439-15.2852 10.2265-15.2852 12.5921-15.2852 13.1016-12.3374 13.1016-12.0826 13.1016-11.8642 11.1-3.89409 10.9908-3.74852 10.4449-2.7295 8.40685-0.400327 6.36885-0.400327Z" fill="#FFFFFF" fill-rule="nonzero" fill-opacity="1" transform="matrix(1.00144 0 0 1 47.4297 364.063)"/><path d="M7.38785-0.0363947C7.38785-2.43835 6.478-3.8577 5.05866-3.8577 3.8577-3.8577 3.12983-2.94786 3.12983-1.92885 3.12983-0.94623 3.8577 0 5.05866 0 5.49539 0 5.96852-0.145575 6.33245-0.473113 6.44164-0.545904 6.478-0.582293 6.51439-0.582293 6.55079-0.582293 6.58719-0.545904 6.58719-0.0363947 6.58719 2.65671 5.31345 4.84032 4.11245 6.04131 3.71212 6.44164 3.71212 6.51439 3.71212 6.62359 3.71212 6.87833 3.89409 7.02392 4.07606 7.02392 4.47639 7.02392 7.38785 4.22163 7.38785-0.0363947Z" fill="#FFFFFF" fill-rule="nonzero" fill-opacity="1" transform="matrix(1.00144 0 0 1 65.0079 364.063)"/><path d="M1.6377 4.43999C1.34656 5.67738 1.27377 5.93212-0.327541 5.93212-0.764259 5.93212-1.16459 5.93212-1.16459 6.62359-1.16459 6.91473-0.982619 7.06032-0.691473 7.06032 0.291146 7.06032 1.34656 6.95112 2.36557 6.95112 3.56655 6.95112 4.80392 7.06032 5.96852 7.06032 6.15046 7.06032 6.62359 7.06032 6.62359 6.33245 6.62359 5.93212 6.25965 5.93212 5.75013 5.93212 3.93048 5.93212 3.93048 5.67738 3.93048 5.34984 3.93048 4.91312 5.45899-1.01902 5.71378-1.92885 6.18686-0.873439 7.20591 0.400327 9.06192 0.400327 13.2836 0.400327 17.8328-4.91312 17.8328-10.2629 17.8328-13.6839 15.7583-16.0859 12.9924-16.0859 11.1728-16.0859 9.4259-14.7757 8.22491-13.3564 7.86098-15.3216 6.29605-16.0859 4.94951-16.0859 3.2754-16.0859 2.58393-14.6665 2.25639-14.0114 1.60131-12.774 1.1282-10.5905 1.1282-10.4813 1.1282-10.1174 1.49212-10.1174 1.56492-10.1174 1.92885-10.1174 1.96524-10.1538 2.1836-10.9544 2.80229-13.5383 3.53015-15.2852 4.84032-15.2852 5.45899-15.2852 5.96852-14.994 5.96852-13.6111 5.96852-12.774 5.85932-12.3738 5.71378-11.755L1.6377 4.43999ZM8.04292-11.3547C8.29771-12.3374 9.28031-13.3564 9.93538-13.9022 11.2092-15.0304 12.2646-15.2852 12.8832-15.2852 14.339-15.2852 15.2124-14.0114 15.2124-11.8642 15.2124-9.71704 14.0114-5.53179 13.3564-4.14884 12.119-1.60131 10.3721-0.400327 9.02557-0.400327 6.62359-0.400327 6.15046-3.42097 6.15046-3.63934 6.15046-3.71212 6.15046-3.78491 6.25965-4.22163L8.04292-11.3547Z" fill="#FFFFFF" fill-rule="nonzero" fill-opacity="1" transform="matrix(1.00144 0 0 1 81.2074 364.063)"/><path d="M10.5177-9.09832C10.5177-11.937 10.1174-16.3406 8.11572-20.4531 5.93212-24.9295 2.80229-27.295 2.43835-27.295 2.22-27.295 2.07442-27.1495 2.07442-26.9311 2.07442-26.8219 2.07442-26.7491 2.7659-26.094 6.33245-22.4911 8.40685-16.7046 8.40685-9.09832 8.40685-2.87508 7.06032 3.53015 2.54753 8.11572 2.07442 8.55245 2.07442 8.62524 2.07442 8.73439 2.07442 8.95278 2.22 9.09832 2.43835 9.09832 2.80229 9.09832 6.07771 6.62359 8.22491 2.00164 10.081-2.00164 10.5177-6.04131 10.5177-9.09832Z" fill="#FFFFFF" fill-rule="nonzero" fill-opacity="1" transform="matrix(1.00144 0 0 1 99.544 364.063)"/><path d="M25.0022-11.9006C25.5481-11.9006 26.2396-11.9006 26.2396-12.6285 26.2396-13.3564 25.5481-13.3564 25.0386-13.3564L3.23901-13.3564C2.7295-13.3564 2.03803-13.3564 2.03803-12.6285 2.03803-11.9006 2.7295-11.9006 3.2754-11.9006L25.0022-11.9006ZM25.0386-4.84032C25.5481-4.84032 26.2396-4.84032 26.2396-5.56819 26.2396-6.29605 25.5481-6.29605 25.0022-6.29605L3.2754-6.29605C2.7295-6.29605 2.03803-6.29605 2.03803-5.56819 2.03803-4.84032 2.7295-4.84032 3.23901-4.84032L25.0386-4.84032Z" fill="#FFFFFF" fill-rule="nonzero" fill-opacity="1" transform="matrix(1.00144 0 0 1 123.841 364.063)"/><path d="M10.6996-23.2917C10.6996-24.1652 10.6996-24.238 9.86259-24.238 7.60619-21.9088 4.4036-21.9088 3.23901-21.9088L3.23901-20.7806C3.96688-20.7806 6.11411-20.7806 8.00652-21.7268L8.00652-2.87508C8.00652-1.56492 7.89738-1.1282 4.62193-1.1282L3.45737-1.1282 3.45737 0C4.73113-0.10918 7.89738-0.10918 9.35311-0.10918 10.8088-0.10918 13.975-0.10918 15.2488 0L15.2488-1.1282 14.0842-1.1282C10.8088-1.1282 10.6996-1.52852 10.6996-2.87508L10.6996-23.2917Z" fill="#FFFFFF" fill-rule="nonzero" fill-opacity="1" transform="matrix(1.00144 0 0 1 166.684 339.443)"/><path d="M612.453 409.461 630.652 409.461 630.652 410.916 612.453 410.916Z" fill="#FFFFFF" fill-rule="nonzero" fill-opacity="1" transform="matrix(1.00144 0 0 1 -446.651 -55.2244)"/><path d="M4.62193-2.80229 8.47965-6.55079C14.157-11.5731 16.3406-13.5383 16.3406-17.1777 16.3406-21.3265 13.0652-24.238 8.62524-24.238 4.51279-24.238 1.81967-20.8898 1.81967-17.6508 1.81967-15.6128 3.63934-15.6128 3.74852-15.6128 4.3672-15.6128 5.64098-16.0495 5.64098-17.5416 5.64098-18.4878 4.98591-19.434 3.71212-19.434 3.42097-19.434 3.34819-19.434 3.23901-19.3977 4.07606-21.7632 6.04131-23.1098 8.15211-23.1098 11.4639-23.1098 13.0288-20.1619 13.0288-17.1777 13.0288-14.2662 11.2092-11.3911 9.20752-9.13472L2.22-1.34656C1.81967-0.94623 1.81967-0.873439 1.81967 0L15.3216 0 16.3406-6.33245 15.4308-6.33245C15.2488-5.24065 14.994-3.63934 14.6301-3.09343 14.3754-2.80229 11.9734-2.80229 11.1728-2.80229L4.62193-2.80229Z" fill="#FFFFFF" fill-rule="nonzero" fill-opacity="1" transform="matrix(1.00144 0 0 1 166.684 389.025)"/><path d="M1.6377 4.43999C1.34656 5.67738 1.27377 5.93212-0.327541 5.93212-0.764259 5.93212-1.16459 5.93212-1.16459 6.62359-1.16459 6.91473-0.982619 7.06032-0.691473 7.06032 0.291146 7.06032 1.34656 6.95112 2.36557 6.95112 3.56655 6.95112 4.80392 7.06032 5.96852 7.06032 6.15046 7.06032 6.62359 7.06032 6.62359 6.33245 6.62359 5.93212 6.25965 5.93212 5.75013 5.93212 3.93048 5.93212 3.93048 5.67738 3.93048 5.34984 3.93048 4.91312 5.45899-1.01902 5.71378-1.92885 6.18686-0.873439 7.20591 0.400327 9.06192 0.400327 13.2836 0.400327 17.8328-4.91312 17.8328-10.2629 17.8328-13.6839 15.7583-16.0859 12.9924-16.0859 11.1728-16.0859 9.4259-14.7757 8.22491-13.3564 7.86098-15.3216 6.29605-16.0859 4.94951-16.0859 3.2754-16.0859 2.58393-14.6665 2.25639-14.0114 1.60131-12.774 1.1282-10.5905 1.1282-10.4813 1.1282-10.1174 1.49212-10.1174 1.56492-10.1174 1.92885-10.1174 1.96524-10.1538 2.1836-10.9544 2.80229-13.5383 3.53015-15.2852 4.84032-15.2852 5.45899-15.2852 5.96852-14.994 5.96852-13.6111 5.96852-12.774 5.85932-12.3738 5.71378-11.755L1.6377 4.43999ZM8.04292-11.3547C8.29771-12.3374 9.28031-13.3564 9.93538-13.9022 11.2092-15.0304 12.2646-15.2852 12.8832-15.2852 14.339-15.2852 15.2124-14.0114 15.2124-11.8642 15.2124-9.71704 14.0114-5.53179 13.3564-4.14884 12.119-1.60131 10.3721-0.400327 9.02557-0.400327 6.62359-0.400327 6.15046-3.42097 6.15046-3.63934 6.15046-3.71212 6.15046-3.78491 6.25965-4.22163L8.04292-11.3547Z" fill="#FFFFFF" fill-rule="nonzero" fill-opacity="1" transform="matrix(1.00144 0 0 1 195.354 364.063)"/><path d="M11.9989-16.4316 19.7689-16.4316C20.1765-16.4316 20.7879-16.4316 20.7879-17.043 20.7879-17.6799 20.202-17.6799 19.7689-17.6799L2.98061-17.6799C2.59849-17.6799 1.9616-17.6799 1.9616-17.0685 1.9616-16.4316 2.54753-16.4316 2.98061-16.4316L10.7506-16.4316 10.7506-0.993538C10.7506-0.585937 10.7506 0 11.3875 0 11.9989 0 11.9989-0.611406 11.9989-0.993538L11.9989-16.4316Z" fill="#FFFFFF" fill-rule="nonzero" fill-opacity="1" transform="matrix(1.00144 0 0 1 213.69 349.034)"/><path d="M33.7003-22.0544C34.0278-23.3645 34.1006-23.7285 36.8301-23.7285 37.6671-23.7285 37.9947-23.7285 37.9947-24.4563 37.9947-24.8567 37.6307-24.8567 37.0121-24.8567L32.2081-24.8567C31.2619-24.8567 31.2255-24.8567 30.7888-24.1652L17.5052-3.42097 14.6665-24.0196C14.5574-24.8567 14.4846-24.8567 13.5383-24.8567L8.55245-24.8567C7.86098-24.8567 7.46065-24.8567 7.46065-24.1652 7.46065-23.7285 7.78818-23.7285 8.51605-23.7285 8.98917-23.7285 9.64424-23.6921 10.081-23.6557 10.6632-23.5829 10.8816-23.4737 10.8816-23.0734 10.8816-22.9278 10.8452-22.8186 10.736-22.3819L6.11411-3.8577C5.75013-2.40196 5.13146-1.23738 2.1836-1.1282 2.00164-1.1282 1.52852-1.0918 1.52852-0.436722 1.52852-0.10918 1.74688 0 2.03803 0 3.20261 0 4.47639-0.10918 5.67738-0.10918 6.91473-0.10918 8.22491 0 9.4259 0 9.60785 0 10.081 0 10.081-0.727866 10.081-1.1282 9.68064-1.1282 9.4259-1.1282 7.35145-1.16459 6.95112-1.89246 6.95112-2.7295 6.95112-2.98425 6.98752-3.16623 7.09671-3.56655L12.0462-23.4009 12.0826-23.4009 15.2124-0.83705C15.2852-0.400327 15.3216 0 15.7583 0 16.1586 0 16.377-0.400327 16.559-0.655084L31.2619-23.6921 31.2983-23.6921 26.094-2.83868C25.7301-1.41934 25.6573-1.1282 22.7822-1.1282 22.1636-1.1282 21.7632-1.1282 21.7632-0.436722 21.7632 0 22.2 0 22.3091 0 23.3281 0 25.8029-0.10918 26.8219-0.10918 28.314-0.10918 29.8789 0 31.3711 0 31.5895 0 32.0625 0 32.0625-0.727866 32.0625-1.1282 31.735-1.1282 31.0435-1.1282 29.697-1.1282 28.6779-1.1282 28.6779-1.78327 28.6779-1.92885 28.6779-2.00164 28.8599-2.65671L33.7003-22.0544Z" fill="#FFFFFF" fill-rule="nonzero" fill-opacity="1" transform="matrix(1.00144 0 0 1 238.291 364.063)"/><path d="M12.0462 8.73439C12.0462 8.62524 12.0462 8.55245 11.4275 7.93377 6.87833 3.34819 5.71378-3.53015 5.71378-9.09832 5.71378-15.4308 7.09671-21.7632 11.5731-26.3124 12.0462-26.7491 12.0462-26.8219 12.0462-26.9311 12.0462-27.1858 11.9006-27.295 11.6823-27.295 11.3183-27.295 8.04292-24.8203 5.89572-20.1983 4.03966-16.195 3.60294-12.1554 3.60294-9.09832 3.60294-6.25965 4.00327-1.85606 6.00492 2.25639 8.18851 6.73278 11.3183 9.09832 11.6823 9.09832 11.9006 9.09832 12.0462 8.98917 12.0462 8.73439Z" fill="#FFFFFF" fill-rule="nonzero" fill-opacity="1" transform="matrix(1.00144 0 0 1 277.623 364.063)"/><path d="M16.4498-15.6856C16.4498-15.8311 16.3406-16.0495 16.0859-16.0495 15.6856-16.0495 14.2298-14.5938 13.6111-13.5383 12.8104-15.5036 11.3911-16.0859 10.2265-16.0859 5.93212-16.0859 1.45574-10.6996 1.45574-5.4226 1.45574-1.85606 3.60294 0.400327 6.25965 0.400327 7.82458 0.400327 9.24391-0.473113 10.5541-1.78327 10.2265-0.509506 9.02557 4.4036 8.91638 4.73113 8.62524 5.75013 8.3341 5.89572 6.29605 5.93212 5.82293 5.93212 5.45899 5.93212 5.45899 6.65999 5.45899 6.69638 5.45899 7.06032 5.93212 7.06032 7.09671 7.06032 8.37046 6.95112 9.57145 6.95112 10.8088 6.95112 12.119 7.06032 13.32 7.06032 13.5019 7.06032 13.975 7.06032 13.975 6.33245 13.975 5.93212 13.6111 5.93212 13.0288 5.93212 11.2819 5.93212 11.2819 5.67738 11.2819 5.34984 11.2819 5.09506 11.3547 4.87672 11.4275 4.54918L16.4498-15.6856ZM6.36885-0.400327C4.18524-0.400327 4.03966-3.20261 4.03966-3.8213 4.03966-5.56819 5.09506-9.53505 5.71378-11.0636 6.84193-13.7567 8.73439-15.2852 10.2265-15.2852 12.5921-15.2852 13.1016-12.3374 13.1016-12.0826 13.1016-11.8642 11.1-3.89409 10.9908-3.74852 10.4449-2.7295 8.40685-0.400327 6.36885-0.400327Z" fill="#FFFFFF" fill-rule="nonzero" fill-opacity="1" transform="matrix(1.00144 0 0 1 291.797 364.063)"/><path d="M10.5177-9.09832C10.5177-11.937 10.1174-16.3406 8.11572-20.4531 5.93212-24.9295 2.80229-27.295 2.43835-27.295 2.22-27.295 2.07442-27.1495 2.07442-26.9311 2.07442-26.8219 2.07442-26.7491 2.7659-26.094 6.33245-22.4911 8.40685-16.7046 8.40685-9.09832 8.40685-2.87508 7.06032 3.53015 2.54753 8.11572 2.07442 8.55245 2.07442 8.62524 2.07442 8.73439 2.07442 8.95278 2.22 9.09832 2.43835 9.09832 2.80229 9.09832 6.07771 6.62359 8.22491 2.00164 10.081-2.00164 10.5177-6.04131 10.5177-9.09832Z" fill="#FFFFFF" fill-rule="nonzero" fill-opacity="1" transform="matrix(1.00144 0 0 1 309.371 364.063)"/><path d="M18.9536-5.75744C19.3613-5.75744 19.9727-5.75744 19.9727-6.36885 19.9727-7.00574 19.3867-7.00574 18.9536-7.00574L3.77035-7.00574C3.36275-7.00574 2.75134-7.00574 2.75134-6.39433 2.75134-5.75744 3.33727-5.75744 3.77035-5.75744L18.9536-5.75744Z" fill="#FFFFFF" fill-rule="nonzero" fill-opacity="1" transform="matrix(1.00144 0 0 1 323.545 349.034)"/><path d="M8.53422-16.2023C8.53422-16.8902 8.4833-16.9156 7.77001-16.9156 6.13955-15.3107 3.8213-15.2852 2.77681-15.2852L2.77681-14.3681C3.38822-14.3681 5.06958-14.3681 6.47074-15.0814L6.47074-2.08898C6.47074-1.2483 6.47074-0.917116 3.9232-0.917116L2.95514-0.917116 2.95514 0C3.4137-0.0254759 6.54718-0.1019 7.48974-0.1019 8.27948-0.1019 11.4894-0.0254759 12.0498 0L12.0498-0.917116 11.0818-0.917116C8.53422-0.917116 8.53422-1.2483 8.53422-2.08898L8.53422-16.2023Z" fill="#FFFFFF" fill-rule="nonzero" fill-opacity="1" transform="matrix(1.00144 0 0 1 346.325 349.034)"/><path d="M1.6377 4.43999C1.34656 5.67738 1.27377 5.93212-0.327541 5.93212-0.764259 5.93212-1.16459 5.93212-1.16459 6.62359-1.16459 6.91473-0.982619 7.06032-0.691473 7.06032 0.291146 7.06032 1.34656 6.95112 2.36557 6.95112 3.56655 6.95112 4.80392 7.06032 5.96852 7.06032 6.15046 7.06032 6.62359 7.06032 6.62359 6.33245 6.62359 5.93212 6.25965 5.93212 5.75013 5.93212 3.93048 5.93212 3.93048 5.67738 3.93048 5.34984 3.93048 4.91312 5.45899-1.01902 5.71378-1.92885 6.18686-0.873439 7.20591 0.400327 9.06192 0.400327 13.2836 0.400327 17.8328-4.91312 17.8328-10.2629 17.8328-13.6839 15.7583-16.0859 12.9924-16.0859 11.1728-16.0859 9.4259-14.7757 8.22491-13.3564 7.86098-15.3216 6.29605-16.0859 4.94951-16.0859 3.2754-16.0859 2.58393-14.6665 2.25639-14.0114 1.60131-12.774 1.1282-10.5905 1.1282-10.4813 1.1282-10.1174 1.49212-10.1174 1.56492-10.1174 1.92885-10.1174 1.96524-10.1538 2.1836-10.9544 2.80229-13.5383 3.53015-15.2852 4.84032-15.2852 5.45899-15.2852 5.96852-14.994 5.96852-13.6111 5.96852-12.774 5.85932-12.3738 5.71378-11.755L1.6377 4.43999ZM8.04292-11.3547C8.29771-12.3374 9.28031-13.3564 9.93538-13.9022 11.2092-15.0304 12.2646-15.2852 12.8832-15.2852 14.339-15.2852 15.2124-14.0114 15.2124-11.8642 15.2124-9.71704 14.0114-5.53179 13.3564-4.14884 12.119-1.60131 10.3721-0.400327 9.02557-0.400327 6.62359-0.400327 6.15046-3.42097 6.15046-3.63934 6.15046-3.71212 6.15046-3.78491 6.25965-4.22163L8.04292-11.3547Z" fill="#FFFFFF" fill-rule="nonzero" fill-opacity="1" transform="matrix(1.00144 0 0 1 362.676 364.063)"/><path d="M14.8849-8.37046 25.0386-8.37046C25.5481-8.37046 26.2396-8.37046 26.2396-9.09832 26.2396-9.82619 25.5481-9.82619 25.0386-9.82619L14.8849-9.82619 14.8849-20.0164C14.8849-20.5258 14.8849-21.2173 14.157-21.2173 13.4292-21.2173 13.4292-20.5258 13.4292-20.0164L13.4292-9.82619 3.23901-9.82619C2.7295-9.82619 2.03803-9.82619 2.03803-9.09832 2.03803-8.37046 2.7295-8.37046 3.23901-8.37046L13.4292-8.37046 13.4292 1.81967C13.4292 2.32917 13.4292 3.02065 14.157 3.02065 14.8849 3.02065 14.8849 2.32917 14.8849 1.81967L14.8849-8.37046Z" fill="#FFFFFF" fill-rule="nonzero" fill-opacity="1" transform="matrix(1.00144 0 0 1 389.11 364.063)"/><path d="M22.855-20.7078C24.6383-23.5465 26.1668-23.6557 27.5134-23.7285 27.9501-23.7649 27.9865-24.3835 27.9865-24.4199 27.9865-24.7111 27.8045-24.8567 27.5134-24.8567 26.5671-24.8567 25.5117-24.7475 24.5291-24.7475 23.3281-24.7475 22.0908-24.8567 20.9262-24.8567 20.7078-24.8567 20.2347-24.8567 20.2347-24.1652 20.2347-23.7649 20.5622-23.7285 20.817-23.7285 21.7996-23.6557 22.4911-23.2917 22.4911-22.5275 22.4911-21.9816 21.9452-21.1809 21.9452-21.1446L10.7724-3.38458 8.29771-22.6367C8.29771-23.2554 9.13472-23.7285 10.8088-23.7285 11.3183-23.7285 11.7186-23.7285 11.7186-24.4563 11.7186-24.7839 11.4275-24.8567 11.2092-24.8567 9.75344-24.8567 8.18851-24.7475 6.69638-24.7475 6.04131-24.7475 5.34984-24.7839 4.69473-24.7839 4.03967-24.7839 3.34819-24.8567 2.7295-24.8567 2.47475-24.8567 2.03803-24.8567 2.03803-24.1652 2.03803-23.7285 2.36557-23.7285 2.94786-23.7285 4.98591-23.7285 5.02227-23.4009 5.13146-22.4911L8.00652-0.0363947C8.11572 0.691473 8.26131 0.800652 8.73439 0.800652 9.31671 0.800652 9.46226 0.618686 9.75344 0.145575L22.855-20.7078Z" fill="#FFFFFF" fill-rule="nonzero" fill-opacity="1" transform="matrix(1.00144 0 0 1 425.556 364.063)"/><path d="M12.0462 8.73439C12.0462 8.62524 12.0462 8.55245 11.4275 7.93377 6.87833 3.34819 5.71378-3.53015 5.71378-9.09832 5.71378-15.4308 7.09671-21.7632 11.5731-26.3124 12.0462-26.7491 12.0462-26.8219 12.0462-26.9311 12.0462-27.1858 11.9006-27.295 11.6823-27.295 11.3183-27.295 8.04292-24.8203 5.89572-20.1983 4.03966-16.195 3.60294-12.1554 3.60294-9.09832 3.60294-6.25965 4.00327-1.85606 6.00492 2.25639 8.18851 6.73278 11.3183 9.09832 11.6823 9.09832 11.9006 9.09832 12.0462 8.98917 12.0462 8.73439Z" fill="#FFFFFF" fill-rule="nonzero" fill-opacity="1" transform="matrix(1.00144 0 0 1 454.917 364.063)"/><path d="M16.4498-15.6856C16.4498-15.8311 16.3406-16.0495 16.0859-16.0495 15.6856-16.0495 14.2298-14.5938 13.6111-13.5383 12.8104-15.5036 11.3911-16.0859 10.2265-16.0859 5.93212-16.0859 1.45574-10.6996 1.45574-5.4226 1.45574-1.85606 3.60294 0.400327 6.25965 0.400327 7.82458 0.400327 9.24391-0.473113 10.5541-1.78327 10.2265-0.509506 9.02557 4.4036 8.91638 4.73113 8.62524 5.75013 8.3341 5.89572 6.29605 5.93212 5.82293 5.93212 5.45899 5.93212 5.45899 6.65999 5.45899 6.69638 5.45899 7.06032 5.93212 7.06032 7.09671 7.06032 8.37046 6.95112 9.57145 6.95112 10.8088 6.95112 12.119 7.06032 13.32 7.06032 13.5019 7.06032 13.975 7.06032 13.975 6.33245 13.975 5.93212 13.6111 5.93212 13.0288 5.93212 11.2819 5.93212 11.2819 5.67738 11.2819 5.34984 11.2819 5.09506 11.3547 4.87672 11.4275 4.54918L16.4498-15.6856ZM6.36885-0.400327C4.18524-0.400327 4.03966-3.20261 4.03966-3.8213 4.03966-5.56819 5.09506-9.53505 5.71378-11.0636 6.84193-13.7567 8.73439-15.2852 10.2265-15.2852 12.5921-15.2852 13.1016-12.3374 13.1016-12.0826 13.1016-11.8642 11.1-3.89409 10.9908-3.74852 10.4449-2.7295 8.40685-0.400327 6.36885-0.400327Z" fill="#FFFFFF" fill-rule="nonzero" fill-opacity="1" transform="matrix(1.00144 0 0 1 469.091 364.063)"/><path d="M10.5177-9.09832C10.5177-11.937 10.1174-16.3406 8.11572-20.4531 5.93212-24.9295 2.80229-27.295 2.43835-27.295 2.22-27.295 2.07442-27.1495 2.07442-26.9311 2.07442-26.8219 2.07442-26.7491 2.7659-26.094 6.33245-22.4911 8.40685-16.7046 8.40685-9.09832 8.40685-2.87508 7.06032 3.53015 2.54753 8.11572 2.07442 8.55245 2.07442 8.62524 2.07442 8.73439 2.07442 8.95278 2.22 9.09832 2.43835 9.09832 2.80229 9.09832 6.07771 6.62359 8.22491 2.00164 10.081-2.00164 10.5177-6.04131 10.5177-9.09832Z" fill="#FFFFFF" fill-rule="nonzero" fill-opacity="1" transform="matrix(1.00144 0 0 1 486.664 364.063)"/><path d="M17.6872-13.8659C17.8328-14.3754 17.8328-14.4482 17.8328-14.7029 17.8328-15.358 17.3232-15.6856 16.7774-15.6856 16.4134-15.6856 15.8311-15.4672 15.5036-14.9213 15.4308-14.7393 15.1396-13.6111 14.994-12.956 14.7393-12.0098 14.4846-11.0272 14.2662-10.0446L12.6285-3.49376C12.4829-2.94786 10.918-0.400327 8.51605-0.400327 6.65999-0.400327 6.25965-2.00164 6.25965-3.34819 6.25965-5.02227 6.87833-7.27866 8.11572-10.4813 8.69799-11.9734 8.84358-12.3738 8.84358-13.1016 8.84358-14.7393 7.67899-16.0859 5.85932-16.0859 2.40196-16.0859 1.05541-10.8088 1.05541-10.4813 1.05541-10.1174 1.41934-10.1174 1.49212-10.1174 1.85606-10.1174 1.89246-10.1901 2.07442-10.7724 3.05705-14.1934 4.51279-15.2852 5.75013-15.2852 6.04131-15.2852 6.65999-15.2852 6.65999-14.1206 6.65999-13.2108 6.29605-12.2646 6.04131-11.5731 4.58558-7.71539 3.93048-5.64098 3.93048-3.93048 3.93048-0.691473 6.22326 0.400327 8.37046 0.400327 9.78984 0.400327 11.0272-0.218361 12.0462-1.23738 11.5731 0.655084 11.1364 2.43835 9.68064 4.3672 8.73439 5.60458 7.35145 6.65999 5.67738 6.65999 5.16786 6.65999 3.53015 6.55079 2.91147 5.13146 3.49376 5.13146 3.96688 5.13146 4.47639 4.69473 4.84032 4.3672 5.20425 3.89409 5.20425 3.20261 5.20425 2.07442 4.22163 1.92885 3.8577 1.92885 3.02065 1.92885 1.81967 2.51114 1.81967 4.29442 1.81967 6.11411 3.42097 7.46065 5.67738 7.46065 9.4259 7.46065 13.1744 4.14884 14.1934 0.0363947L17.6872-13.8659Z" fill="#FFFFFF" fill-rule="nonzero" fill-opacity="1" transform="matrix(1.00144 0 0 1 94.5382 436.301)"/><path d="M25.0022-11.9006C25.5481-11.9006 26.2396-11.9006 26.2396-12.6285 26.2396-13.3564 25.5481-13.3564 25.0386-13.3564L3.23901-13.3564C2.7295-13.3564 2.03803-13.3564 2.03803-12.6285 2.03803-11.9006 2.7295-11.9006 3.2754-11.9006L25.0022-11.9006ZM25.0386-4.84032C25.5481-4.84032 26.2396-4.84032 26.2396-5.56819 26.2396-6.29605 25.5481-6.29605 25.0022-6.29605L3.2754-6.29605C2.7295-6.29605 2.03803-6.29605 2.03803-5.56819 2.03803-4.84032 2.7295-4.84032 3.23901-4.84032L25.0386-4.84032Z" fill="#FFFFFF" fill-rule="nonzero" fill-opacity="1" transform="matrix(1.00144 0 0 1 123.841 436.301)"/><path d="M27.6589-25.2934C27.6589-25.4026 27.5862-25.6573 27.2586-25.6573 27.1495-25.6573 27.1131-25.6209 26.7127-25.2206L24.1652-22.4183C23.8377-22.9278 22.1636-25.6573 18.1239-25.6573 10.0082-25.6573 1.81967-17.6144 1.81967-9.17112 1.81967-3.38458 5.85932 0.800652 11.755 0.800652 13.3564 0.800652 14.994 0.473113 16.3042-0.0727857 18.1239-0.800652 18.8154-1.56492 19.4704-2.29278 19.798-1.38295 20.7442-0.0363947 21.1082-0.0363947 21.2901-0.0363947 21.3629-0.145575 21.3629-0.181966 21.4357-0.254752 21.7996-1.6377 21.9816-2.40196L22.6731-5.20425C22.8186-5.82293 23.0006-6.44164 23.1462-7.06032 23.5465-8.69799 23.5829-8.77079 25.6573-8.80719 25.8393-8.80719 26.2396-8.84358 26.2396-9.53505 26.2396-9.78984 26.0577-9.93538 25.7665-9.93538 24.9295-9.93538 22.7822-9.82619 21.9452-9.82619 20.817-9.82619 17.9783-9.93538 16.8501-9.93538 16.5226-9.93538 16.0859-9.93538 16.0859-9.20752 16.0859-8.80719 16.377-8.80719 17.1777-8.80719 17.214-8.80719 18.2695-8.80719 19.1065-8.73439 20.0528-8.62524 20.2347-8.51605 20.2347-8.04292 20.2347-7.71539 19.8344-6.07771 19.4704-4.73113 18.4514-0.727866 13.7203-0.327541 12.4465-0.327541 8.95278-0.327541 5.13146-2.40196 5.13146-7.97013 5.13146-9.09832 5.49539-15.1032 9.31671-19.8344 11.2819-22.3091 14.8121-24.5291 18.415-24.5291 22.1272-24.5291 24.2744-21.7268 24.2744-17.5052 24.2744-16.0495 24.1652-16.0131 24.1652-15.6492 24.1652-15.2852 24.5655-15.2852 24.7111-15.2852 25.1842-15.2852 25.1842-15.358 25.3662-16.0131L27.6589-25.2934Z" fill="#FFFFFF" fill-rule="nonzero" fill-opacity="1" transform="matrix(1.00144 0 0 1 162.308 436.301)"/><path d="M12.0462 8.73439C12.0462 8.62524 12.0462 8.55245 11.4275 7.93377 6.87833 3.34819 5.71378-3.53015 5.71378-9.09832 5.71378-15.4308 7.09671-21.7632 11.5731-26.3124 12.0462-26.7491 12.0462-26.8219 12.0462-26.9311 12.0462-27.1858 11.9006-27.295 11.6823-27.295 11.3183-27.295 8.04292-24.8203 5.89572-20.1983 4.03966-16.195 3.60294-12.1554 3.60294-9.09832 3.60294-6.25965 4.00327-1.85606 6.00492 2.25639 8.18851 6.73278 11.3183 9.09832 11.6823 9.09832 11.9006 9.09832 12.0462 8.98917 12.0462 8.73439Z" fill="#FFFFFF" fill-rule="nonzero" fill-opacity="1" transform="matrix(1.00144 0 0 1 190.964 436.301)"/><path d="M16.4498-15.6856C16.4498-15.8311 16.3406-16.0495 16.0859-16.0495 15.6856-16.0495 14.2298-14.5938 13.6111-13.5383 12.8104-15.5036 11.3911-16.0859 10.2265-16.0859 5.93212-16.0859 1.45574-10.6996 1.45574-5.4226 1.45574-1.85606 3.60294 0.400327 6.25965 0.400327 7.82458 0.400327 9.24391-0.473113 10.5541-1.78327 10.2265-0.509506 9.02557 4.4036 8.91638 4.73113 8.62524 5.75013 8.3341 5.89572 6.29605 5.93212 5.82293 5.93212 5.45899 5.93212 5.45899 6.65999 5.45899 6.69638 5.45899 7.06032 5.93212 7.06032 7.09671 7.06032 8.37046 6.95112 9.57145 6.95112 10.8088 6.95112 12.119 7.06032 13.32 7.06032 13.5019 7.06032 13.975 7.06032 13.975 6.33245 13.975 5.93212 13.6111 5.93212 13.0288 5.93212 11.2819 5.93212 11.2819 5.67738 11.2819 5.34984 11.2819 5.09506 11.3547 4.87672 11.4275 4.54918L16.4498-15.6856ZM6.36885-0.400327C4.18524-0.400327 4.03966-3.20261 4.03966-3.8213 4.03966-5.56819 5.09506-9.53505 5.71378-11.0636 6.84193-13.7567 8.73439-15.2852 10.2265-15.2852 12.5921-15.2852 13.1016-12.3374 13.1016-12.0826 13.1016-11.8642 11.1-3.89409 10.9908-3.74852 10.4449-2.7295 8.40685-0.400327 6.36885-0.400327Z" fill="#FFFFFF" fill-rule="nonzero" fill-opacity="1" transform="matrix(1.00144 0 0 1 205.138 436.301)"/><path d="M10.5177-9.09832C10.5177-11.937 10.1174-16.3406 8.11572-20.4531 5.93212-24.9295 2.80229-27.295 2.43835-27.295 2.22-27.295 2.07442-27.1495 2.07442-26.9311 2.07442-26.8219 2.07442-26.7491 2.7659-26.094 6.33245-22.4911 8.40685-16.7046 8.40685-9.09832 8.40685-2.87508 7.06032 3.53015 2.54753 8.11572 2.07442 8.55245 2.07442 8.62524 2.07442 8.73439 2.07442 8.95278 2.22 9.09832 2.43835 9.09832 2.80229 9.09832 6.07771 6.62359 8.22491 2.00164 10.081-2.00164 10.5177-6.04131 10.5177-9.09832Z" fill="#FFFFFF" fill-rule="nonzero" fill-opacity="1" transform="matrix(1.00144 0 0 1 222.716 436.301)"/><path d="M11.9989-16.4316 19.7689-16.4316C20.1765-16.4316 20.7879-16.4316 20.7879-17.043 20.7879-17.6799 20.202-17.6799 19.7689-17.6799L2.98061-17.6799C2.59849-17.6799 1.9616-17.6799 1.9616-17.0685 1.9616-16.4316 2.54753-16.4316 2.98061-16.4316L10.7506-16.4316 10.7506-0.993538C10.7506-0.585937 10.7506 0 11.3875 0 11.9989 0 11.9989-0.611406 11.9989-0.993538L11.9989-16.4316Z" fill="#FFFFFF" fill-rule="nonzero" fill-opacity="1" transform="matrix(1.00144 0 0 1 236.89 421.277)"/><path d="M28.3868-24.056C28.4596-24.1652 28.5688-24.4199 28.5688-24.5655 28.5688-24.8203 28.5324-24.8567 27.6953-24.8567L2.58393-24.8567C1.74688-24.8567 1.71049-24.8203 1.71049-24.5655 1.71049-24.4199 1.81967-24.1652 1.89246-24.056L14.157 0.509506C14.4118 0.982619 14.521 1.20098 15.1396 1.20098 15.7583 1.20098 15.8675 0.982619 16.1222 0.509506L28.3868-24.056ZM6.22326-22.2363 26.2032-22.2363 16.2314-2.22 6.22326-22.2363Z" fill="#FFFFFF" fill-rule="nonzero" fill-opacity="1" transform="matrix(1.00144 0 0 1 261.49 436.301)"/><path d="M1.91065 3.10799C1.73232 3.8213 1.68138 4.0251 0.662359 4.0251 0.331179 4.0251-0.0254759 4.0251-0.0254759 4.5601-0.0254759 4.84032 0.203804 4.94221 0.331179 4.94221 0.993538 4.94221 1.83422 4.84032 2.52206 4.84032 3.38822 4.84032 4.35628 4.94221 5.19699 4.94221 5.42625 4.94221 5.70647 4.8658 5.70647 4.38176 5.70647 4.0251 5.34984 4.0251 5.04414 4.0251 4.48365 4.0251 3.79583 4.0251 3.79583 3.7194 3.79583 3.59203 3.97415 2.92967 4.07606 2.54753 4.38176 1.19734 4.73843-0.178328 5.01866-1.2483 5.32436-0.738785 6.11411 0.254752 7.64259 0.254752 10.7506 0.254752 14.1898-3.18442 14.1898-6.98026 14.1898-9.96087 12.1263-11.2347 10.3685-11.2347 8.78901-11.2347 7.43882-10.1647 6.75096-9.45134 6.31788-10.9035 4.89129-11.2347 4.12701-11.2347 3.13347-11.2347 2.52206-10.5723 2.11445-9.88442 1.60494-9.01827 1.19734-7.48974 1.19734-7.33689 1.19734-7.00574 1.554-7.00574 1.63042-7.00574 1.98708-7.00574 2.01255-7.08215 2.19088-7.77001 2.57301-9.24757 3.05705-10.5213 4.05058-10.5213 4.71295-10.5213 4.89129-9.96087 4.89129-9.27305 4.89129-8.99278 4.84032-8.66164 4.81484-8.50879L1.91065 3.10799ZM6.72547-8.1776C8.20308-10.1392 9.47682-10.5213 10.2921-10.5213 11.2856-10.5213 12.1517-9.78253 12.1517-8.05023 12.1517-7.00574 11.5913-4.40724 10.827-2.92967 10.1901-1.68138 8.94186-0.458554 7.64259-0.458554 5.83384-0.458554 5.37528-2.42016 5.37528-2.67491 5.37528-2.77681 5.42625-2.95514 5.45173-3.05705L6.72547-8.1776Z" fill="#FFFFFF" fill-rule="nonzero" fill-opacity="1" transform="matrix(1.00144 0 0 1 291.859 441.762)"/><path d="M27.7681-22.0544C28.0957-23.3645 28.1685-23.7285 30.8252-23.7285 31.7714-23.7285 32.0625-23.7285 32.0625-24.4563 32.0625-24.8567 31.6622-24.8567 31.5531-24.8567 30.534-24.8567 27.9137-24.7475 26.8947-24.7475 25.8393-24.7475 23.2554-24.8567 22.2-24.8567 21.9088-24.8567 21.5085-24.8567 21.5085-24.1288 21.5085-23.7285 21.836-23.7285 22.5275-23.7285 22.6003-23.7285 23.2917-23.7285 23.9104-23.6557 24.5655-23.5829 24.8931-23.5465 24.8931-23.0734 24.8931-22.9278 24.8567-22.855 24.7475-22.3819L22.5639-13.5019 11.4639-13.5019 13.6111-22.0544C13.9386-23.3645 14.0478-23.7285 16.6682-23.7285 17.6144-23.7285 17.9056-23.7285 17.9056-24.4563 17.9056-24.8567 17.5052-24.8567 17.396-24.8567 16.377-24.8567 13.7567-24.7475 12.7377-24.7475 11.6823-24.7475 9.09832-24.8567 8.04292-24.8567 7.75178-24.8567 7.35145-24.8567 7.35145-24.1288 7.35145-23.7285 7.67899-23.7285 8.37046-23.7285 8.44325-23.7285 9.13472-23.7285 9.75344-23.6557 10.4085-23.5829 10.736-23.5465 10.736-23.0734 10.736-22.9278 10.6996-22.8186 10.5905-22.3819L5.71378-2.83868C5.34984-1.41934 5.27705-1.1282 2.40196-1.1282 1.74688-1.1282 1.41934-1.1282 1.41934-0.400327 1.41934 0 1.85606 0 1.92885 0 2.94786 0 5.53179-0.10918 6.55079-0.10918 7.31506-0.10918 8.11572-0.0727857 8.87998-0.0727857 9.68064-0.0727857 10.4813 0 11.2456 0 11.5367 0 11.9734 0 11.9734-0.727866 11.9734-1.1282 11.6459-1.1282 10.9544-1.1282 9.60785-1.1282 8.58884-1.1282 8.58884-1.78327 8.58884-2.00164 8.66164-2.1836 8.69799-2.40196L11.1728-12.3738 22.2727-12.3738C20.7442-6.33245 19.9072-2.87508 19.7616-2.32917 19.3977-1.16459 18.7062-1.1282 16.4498-1.1282 15.9039-1.1282 15.5764-1.1282 15.5764-0.400327 15.5764 0 16.0131 0 16.0859 0 17.1049 0 19.6888-0.10918 20.7078-0.10918 21.4721-0.10918 22.2727-0.0727857 23.037-0.0727857 23.8377-0.0727857 24.6383 0 25.4026 0 25.6937 0 26.1304 0 26.1304-0.727866 26.1304-1.1282 25.8029-1.1282 25.1114-1.1282 23.7649-1.1282 22.7459-1.1282 22.7459-1.78327 22.7459-2.00164 22.8186-2.1836 22.855-2.40196L27.7681-22.0544Z" fill="#FFFFFF" fill-rule="nonzero" fill-opacity="1" transform="matrix(1.00144 0 0 1 308.706 436.301)"/><path d="M12.0462 8.73439C12.0462 8.62524 12.0462 8.55245 11.4275 7.93377 6.87833 3.34819 5.71378-3.53015 5.71378-9.09832 5.71378-15.4308 7.09671-21.7632 11.5731-26.3124 12.0462-26.7491 12.0462-26.8219 12.0462-26.9311 12.0462-27.1858 11.9006-27.295 11.6823-27.295 11.3183-27.295 8.04292-24.8203 5.89572-20.1983 4.03966-16.195 3.60294-12.1554 3.60294-9.09832 3.60294-6.25965 4.00327-1.85606 6.00492 2.25639 8.18851 6.73278 11.3183 9.09832 11.6823 9.09832 11.9006 9.09832 12.0462 8.98917 12.0462 8.73439Z" fill="#FFFFFF" fill-rule="nonzero" fill-opacity="1" transform="matrix(1.00144 0 0 1 341.966 436.301)"/><path d="M16.4498-15.6856C16.4498-15.8311 16.3406-16.0495 16.0859-16.0495 15.6856-16.0495 14.2298-14.5938 13.6111-13.5383 12.8104-15.5036 11.3911-16.0859 10.2265-16.0859 5.93212-16.0859 1.45574-10.6996 1.45574-5.4226 1.45574-1.85606 3.60294 0.400327 6.25965 0.400327 7.82458 0.400327 9.24391-0.473113 10.5541-1.78327 10.2265-0.509506 9.02557 4.4036 8.91638 4.73113 8.62524 5.75013 8.3341 5.89572 6.29605 5.93212 5.82293 5.93212 5.45899 5.93212 5.45899 6.65999 5.45899 6.69638 5.45899 7.06032 5.93212 7.06032 7.09671 7.06032 8.37046 6.95112 9.57145 6.95112 10.8088 6.95112 12.119 7.06032 13.32 7.06032 13.5019 7.06032 13.975 7.06032 13.975 6.33245 13.975 5.93212 13.6111 5.93212 13.0288 5.93212 11.2819 5.93212 11.2819 5.67738 11.2819 5.34984 11.2819 5.09506 11.3547 4.87672 11.4275 4.54918L16.4498-15.6856ZM6.36885-0.400327C4.18524-0.400327 4.03966-3.20261 4.03966-3.8213 4.03966-5.56819 5.09506-9.53505 5.71378-11.0636 6.84193-13.7567 8.73439-15.2852 10.2265-15.2852 12.5921-15.2852 13.1016-12.3374 13.1016-12.0826 13.1016-11.8642 11.1-3.89409 10.9908-3.74852 10.4449-2.7295 8.40685-0.400327 6.36885-0.400327Z" fill="#FFFFFF" fill-rule="nonzero" fill-opacity="1" transform="matrix(1.00144 0 0 1 356.14 436.301)"/><path d="M7.38785-0.0363947C7.38785-2.43835 6.478-3.8577 5.05866-3.8577 3.8577-3.8577 3.12983-2.94786 3.12983-1.92885 3.12983-0.94623 3.8577 0 5.05866 0 5.49539 0 5.96852-0.145575 6.33245-0.473113 6.44164-0.545904 6.478-0.582293 6.51439-0.582293 6.55079-0.582293 6.58719-0.545904 6.58719-0.0363947 6.58719 2.65671 5.31345 4.84032 4.11245 6.04131 3.71212 6.44164 3.71212 6.51439 3.71212 6.62359 3.71212 6.87833 3.89409 7.02392 4.07606 7.02392 4.47639 7.02392 7.38785 4.22163 7.38785-0.0363947Z" fill="#FFFFFF" fill-rule="nonzero" fill-opacity="1" transform="matrix(1.00144 0 0 1 373.714 436.301)"/><path d="M1.6377 4.43999C1.34656 5.67738 1.27377 5.93212-0.327541 5.93212-0.764259 5.93212-1.16459 5.93212-1.16459 6.62359-1.16459 6.91473-0.982619 7.06032-0.691473 7.06032 0.291146 7.06032 1.34656 6.95112 2.36557 6.95112 3.56655 6.95112 4.80392 7.06032 5.96852 7.06032 6.15046 7.06032 6.62359 7.06032 6.62359 6.33245 6.62359 5.93212 6.25965 5.93212 5.75013 5.93212 3.93048 5.93212 3.93048 5.67738 3.93048 5.34984 3.93048 4.91312 5.45899-1.01902 5.71378-1.92885 6.18686-0.873439 7.20591 0.400327 9.06192 0.400327 13.2836 0.400327 17.8328-4.91312 17.8328-10.2629 17.8328-13.6839 15.7583-16.0859 12.9924-16.0859 11.1728-16.0859 9.4259-14.7757 8.22491-13.3564 7.86098-15.3216 6.29605-16.0859 4.94951-16.0859 3.2754-16.0859 2.58393-14.6665 2.25639-14.0114 1.60131-12.774 1.1282-10.5905 1.1282-10.4813 1.1282-10.1174 1.49212-10.1174 1.56492-10.1174 1.92885-10.1174 1.96524-10.1538 2.1836-10.9544 2.80229-13.5383 3.53015-15.2852 4.84032-15.2852 5.45899-15.2852 5.96852-14.994 5.96852-13.6111 5.96852-12.774 5.85932-12.3738 5.71378-11.755L1.6377 4.43999ZM8.04292-11.3547C8.29771-12.3374 9.28031-13.3564 9.93538-13.9022 11.2092-15.0304 12.2646-15.2852 12.8832-15.2852 14.339-15.2852 15.2124-14.0114 15.2124-11.8642 15.2124-9.71704 14.0114-5.53179 13.3564-4.14884 12.119-1.60131 10.3721-0.400327 9.02557-0.400327 6.62359-0.400327 6.15046-3.42097 6.15046-3.63934 6.15046-3.71212 6.15046-3.78491 6.25965-4.22163L8.04292-11.3547Z" fill="#FFFFFF" fill-rule="nonzero" fill-opacity="1" transform="matrix(1.00144 0 0 1 389.913 436.301)"/><path d="M10.5177-9.09832C10.5177-11.937 10.1174-16.3406 8.11572-20.4531 5.93212-24.9295 2.80229-27.295 2.43835-27.295 2.22-27.295 2.07442-27.1495 2.07442-26.9311 2.07442-26.8219 2.07442-26.7491 2.7659-26.094 6.33245-22.4911 8.40685-16.7046 8.40685-9.09832 8.40685-2.87508 7.06032 3.53015 2.54753 8.11572 2.07442 8.55245 2.07442 8.62524 2.07442 8.73439 2.07442 8.95278 2.22 9.09832 2.43835 9.09832 2.80229 9.09832 6.07771 6.62359 8.22491 2.00164 10.081-2.00164 10.5177-6.04131 10.5177-9.09832Z" fill="#FFFFFF" fill-rule="nonzero" fill-opacity="1" transform="matrix(1.00144 0 0 1 408.25 436.301)"/></g></g></g><text fill="#FFFFFF" fill-opacity="1" font-family="Century,Century_MSFontService,sans-serif" font-style="normal" font-variant="normal" font-weight="400" font-stretch="normal" font-size="83" text-anchor="start" direction="ltr" writing-mode="lr-tb" unicode-bidi="normal" text-decoration="none" transform="matrix(0.446145 0 0 0.445038 74.542 174)">Mechanical Port</text><text fill="#FFFFFF" fill-opacity="1" font-family="Century,Century_MSFontService,sans-serif" font-style="normal" font-variant="normal" font-weight="400" font-stretch="normal" font-size="83" text-anchor="start" direction="ltr" writing-mode="lr-tb" unicode-bidi="normal" text-decoration="none" transform="matrix(0.446145 0 0 0.445038 353.15 174)">-</text><text fill="#FFFFFF" fill-opacity="1" font-family="Century,Century_MSFontService,sans-serif" font-style="normal" font-variant="normal" font-weight="400" font-stretch="normal" font-size="83" text-anchor="start" direction="ltr" writing-mode="lr-tb" unicode-bidi="normal" text-decoration="none" transform="matrix(0.446145 0 0 0.445038 365.643 174)">Hamiltonian Systems</text></g></g></g></g></g></g></svg>