<svg xmlns="http://www.w3.org/2000/svg" alt="control penguin" width="28px" height="28px" viewBox="0 -1 32 31">
<style>
    path,circle {
        fill: #00205B;
    }
    @media (prefers-color-scheme: dark) {
        path,circle {
            fill: #fff;
        }
    }
</style>
<path
    d="M29.304,16.33678C27.02937,6.34038,22.56016,2.19149,14.84031,2.1875A13.70972,13.70972,0,0,0,14.202,29.59208a55.33041,55.33041,0,0,0,9.99949-.64984c.78513-.12079.68079-1.6226.66434-1.63065a3.20115,3.20115,0,0,0-.66434-.24157,1.99312,1.99312,0,0,0-.48316-.0604c-1.47236.874-5.59209,1.32868-7.42851,1.32868-5.44807,0-9.18-5.30215-9.18-10.75021s3.81385-9.7839,9.26192-9.7839,9.88873,3.59086,9.18135,8.99281c-.14451,1.10356-1.29121,3.82054-1.88374,4.23531-.59858.419,1.93744,1.84889,2.81733,1.87822,1.79575.05986,4.78945-5.49378,4.69553-5.63465C31.0625,17.09631,29.346,16.52135,29.304,16.33678Z" />
<circle cx="20.09866" cy="14.92811" r="2.34777" />
</svg>